%TF.GenerationSoftware,KiCad,Pcbnew,9.0.3*%
%TF.CreationDate,2025-08-04T14:39:42+02:00*%
%TF.ProjectId,esp-motioncontroller,6573702d-6d6f-4746-996f-6e636f6e7472,1.0.0*%
%TF.SameCoordinates,Original*%
%TF.FileFunction,Paste,Bot*%
%TF.FilePolarity,Positive*%
%FSLAX46Y46*%
G04 Gerber Fmt 4.6, Leading zero omitted, Abs format (unit mm)*
G04 Created by KiCad (PCBNEW 9.0.3) date 2025-08-04 14:39:42*
%MOMM*%
%LPD*%
G01*
G04 APERTURE LIST*
%ADD10C,0.350000*%
G04 APERTURE END LIST*
D10*
X148000000Y-141000000D03*
X112000000Y-127460000D03*
X112000000Y-130000000D03*
X59500000Y-91000000D03*
X59500000Y-94500000D03*
X59500000Y-98000000D03*
X59500000Y-101500000D03*
X59500000Y-105000000D03*
X59500000Y-108500000D03*
X59500000Y-112000000D03*
X59500000Y-115500000D03*
X59500000Y-119000000D03*
X59500000Y-122500000D03*
X119340000Y-73400000D03*
X116800000Y-73400000D03*
X97000000Y-126950000D03*
X97000000Y-129490000D03*
X83820000Y-50800000D03*
X83820000Y-53340000D03*
X83820000Y-55880000D03*
X83820000Y-58420000D03*
X83820000Y-60960000D03*
X83820000Y-63500000D03*
X83820000Y-66040000D03*
X83820000Y-68580000D03*
X83820000Y-71120000D03*
X83820000Y-73660000D03*
X83820000Y-76200000D03*
X83820000Y-78740000D03*
X83820000Y-81280000D03*
X83820000Y-83820000D03*
X83820000Y-86360000D03*
X83820000Y-88900000D03*
X83820000Y-91440000D03*
X83820000Y-93980000D03*
X83820000Y-96520000D03*
X83816320Y-99057280D03*
X83816320Y-101597280D03*
X83816320Y-104137280D03*
X106680000Y-104140000D03*
X109220000Y-104140000D03*
X106680000Y-101600000D03*
X109220000Y-101600000D03*
X106680000Y-99060000D03*
X109220000Y-99060000D03*
X106680000Y-96520000D03*
X109220000Y-96520000D03*
X106680000Y-93980000D03*
X109220000Y-93980000D03*
X106680000Y-91440000D03*
X109220000Y-91440000D03*
X106680000Y-88900000D03*
X109220000Y-88900000D03*
X106680000Y-86360000D03*
X109220000Y-86360000D03*
X106680000Y-83820000D03*
X109220000Y-83820000D03*
X106680000Y-81280000D03*
X109220000Y-81280000D03*
X106680000Y-78740000D03*
X109220000Y-78740000D03*
X106680000Y-76200000D03*
X109220000Y-76200000D03*
X106680000Y-73660000D03*
X109220000Y-73660000D03*
X106680000Y-71120000D03*
X109220000Y-71120000D03*
X106680000Y-68580000D03*
X109220000Y-68580000D03*
X106680000Y-66040000D03*
X109220000Y-66040000D03*
X106680000Y-63500000D03*
X109220000Y-63500000D03*
X106680000Y-60960000D03*
X109220000Y-60960000D03*
X106680000Y-58420000D03*
X109220000Y-58420000D03*
X106680000Y-55880000D03*
X109220000Y-55880000D03*
X106680000Y-53340000D03*
X109220000Y-53340000D03*
X106680000Y-50800000D03*
X109220000Y-50800000D03*
X59500000Y-52500000D03*
X59500000Y-56000000D03*
X59500000Y-59500000D03*
X59500000Y-63000000D03*
X59500000Y-66500000D03*
X59500000Y-70000000D03*
X59500000Y-73500000D03*
X59500000Y-77000000D03*
X59500000Y-80500000D03*
X59500000Y-84000000D03*
X88500000Y-126250000D03*
X88500000Y-128790000D03*
X54000000Y-141000000D03*
X54000000Y-47000000D03*
X70200000Y-85600000D03*
X67660000Y-85600000D03*
X143000000Y-122500000D03*
X143000000Y-119000000D03*
X143000000Y-115500000D03*
X143000000Y-112000000D03*
X143000000Y-108500000D03*
X143000000Y-105000000D03*
X143000000Y-101500000D03*
X143000000Y-98000000D03*
X143000000Y-94500000D03*
X143000000Y-91000000D03*
X104000000Y-122000000D03*
X104000000Y-124540000D03*
X120000000Y-127460000D03*
X120000000Y-130000000D03*
X128000000Y-127460000D03*
X128000000Y-130000000D03*
X148000000Y-47000000D03*
X97000000Y-121460000D03*
X97000000Y-124000000D03*
X63000000Y-136500000D03*
X66500000Y-136500000D03*
X70000000Y-136500000D03*
X73500000Y-136500000D03*
X77000000Y-136500000D03*
X80500000Y-136500000D03*
X84000000Y-136500000D03*
X87500000Y-136500000D03*
X91000000Y-136500000D03*
X94500000Y-136500000D03*
X71500000Y-126500000D03*
X71500000Y-129040000D03*
X105000000Y-136500000D03*
X108500000Y-136500000D03*
X112000000Y-136500000D03*
X115500000Y-136500000D03*
X119000000Y-136500000D03*
X122500000Y-136500000D03*
X126000000Y-136500000D03*
X129500000Y-136500000D03*
X133000000Y-136500000D03*
X136500000Y-136500000D03*
X143000000Y-84000000D03*
X143000000Y-80500000D03*
X143000000Y-77000000D03*
X143000000Y-73500000D03*
X143000000Y-70000000D03*
X143000000Y-66500000D03*
X143000000Y-63000000D03*
X143000000Y-59500000D03*
X143000000Y-56000000D03*
X143000000Y-52500000D03*
X80000000Y-126460000D03*
X80000000Y-129000000D03*
X104000000Y-127460000D03*
X104000000Y-130000000D03*
M02*
