%TF.GenerationSoftware,KiCad,Pcbnew,9.0.3*%
%TF.CreationDate,2025-08-04T14:08:18+02:00*%
%TF.ProjectId,esp-motioncontroller,6573702d-6d6f-4746-996f-6e636f6e7472,1.0.0*%
%TF.SameCoordinates,Original*%
%TF.FileFunction,Soldermask,Bot*%
%TF.FilePolarity,Negative*%
%FSLAX46Y46*%
G04 Gerber Fmt 4.6, Leading zero omitted, Abs format (unit mm)*
G04 Created by KiCad (PCBNEW 9.0.3) date 2025-08-04 14:08:18*
%MOMM*%
%LPD*%
G01*
G04 APERTURE LIST*
G04 Aperture macros list*
%AMRoundRect*
0 Rectangle with rounded corners*
0 $1 Rounding radius*
0 $2 $3 $4 $5 $6 $7 $8 $9 X,Y pos of 4 corners*
0 Add a 4 corners polygon primitive as box body*
4,1,4,$2,$3,$4,$5,$6,$7,$8,$9,$2,$3,0*
0 Add four circle primitives for the rounded corners*
1,1,$1+$1,$2,$3*
1,1,$1+$1,$4,$5*
1,1,$1+$1,$6,$7*
1,1,$1+$1,$8,$9*
0 Add four rect primitives between the rounded corners*
20,1,$1+$1,$2,$3,$4,$5,0*
20,1,$1+$1,$4,$5,$6,$7,0*
20,1,$1+$1,$6,$7,$8,$9,0*
20,1,$1+$1,$8,$9,$2,$3,0*%
G04 Aperture macros list end*
%ADD10C,5.600000*%
%ADD11C,1.400000*%
%ADD12RoundRect,0.250001X-0.949999X0.949999X-0.949999X-0.949999X0.949999X-0.949999X0.949999X0.949999X0*%
%ADD13C,2.400000*%
%ADD14R,2.000000X1.200000*%
%ADD15O,2.000000X1.200000*%
%ADD16RoundRect,0.250001X0.949999X-0.949999X0.949999X0.949999X-0.949999X0.949999X-0.949999X-0.949999X0*%
%ADD17RoundRect,0.250001X-0.949999X-0.949999X0.949999X-0.949999X0.949999X0.949999X-0.949999X0.949999X0*%
%ADD18C,0.350000*%
G04 APERTURE END LIST*
D10*
%TO.C,H3*%
X148000000Y-141000000D03*
%TD*%
D11*
%TO.C,JP7*%
X112000000Y-127460000D03*
X112000000Y-130000000D03*
%TD*%
D12*
%TO.C,J4*%
X59500000Y-91000000D03*
D13*
X59500000Y-94500000D03*
X59500000Y-98000000D03*
X59500000Y-101500000D03*
X59500000Y-105000000D03*
X59500000Y-108500000D03*
X59500000Y-112000000D03*
X59500000Y-115500000D03*
X59500000Y-119000000D03*
X59500000Y-122500000D03*
%TD*%
D11*
%TO.C,JP12*%
X119340000Y-73400000D03*
X116800000Y-73400000D03*
%TD*%
%TO.C,JP8*%
X97000000Y-126950000D03*
X97000000Y-129490000D03*
%TD*%
D14*
%TO.C,U1*%
X83820000Y-50800000D03*
D15*
X83820000Y-53340000D03*
X83820000Y-55880000D03*
X83820000Y-58420000D03*
X83820000Y-60960000D03*
X83820000Y-63500000D03*
X83820000Y-66040000D03*
X83820000Y-68580000D03*
X83820000Y-71120000D03*
X83820000Y-73660000D03*
X83820000Y-76200000D03*
X83820000Y-78740000D03*
X83820000Y-81280000D03*
X83820000Y-83820000D03*
X83820000Y-86360000D03*
X83820000Y-88900000D03*
X83820000Y-91440000D03*
X83820000Y-93980000D03*
X83820000Y-96520000D03*
X83816320Y-99057280D03*
X83816320Y-101597280D03*
X83816320Y-104137280D03*
X106680000Y-104140000D03*
X109220000Y-104140000D03*
X106680000Y-101600000D03*
X109220000Y-101600000D03*
X106680000Y-99060000D03*
X109220000Y-99060000D03*
X106680000Y-96520000D03*
X109220000Y-96520000D03*
X106680000Y-93980000D03*
X109220000Y-93980000D03*
X106680000Y-91440000D03*
X109220000Y-91440000D03*
X106680000Y-88900000D03*
X109220000Y-88900000D03*
X106680000Y-86360000D03*
X109220000Y-86360000D03*
X106680000Y-83820000D03*
X109220000Y-83820000D03*
X106680000Y-81280000D03*
X109220000Y-81280000D03*
X106680000Y-78740000D03*
X109220000Y-78740000D03*
X106680000Y-76200000D03*
X109220000Y-76200000D03*
X106680000Y-73660000D03*
X109220000Y-73660000D03*
X106680000Y-71120000D03*
X109220000Y-71120000D03*
X106680000Y-68580000D03*
X109220000Y-68580000D03*
X106680000Y-66040000D03*
X109220000Y-66040000D03*
X106680000Y-63500000D03*
X109220000Y-63500000D03*
X106680000Y-60960000D03*
X109220000Y-60960000D03*
X106680000Y-58420000D03*
X109220000Y-58420000D03*
X106680000Y-55880000D03*
X109220000Y-55880000D03*
X106680000Y-53340000D03*
X109220000Y-53340000D03*
X106680000Y-50800000D03*
X109220000Y-50800000D03*
%TD*%
D12*
%TO.C,J6*%
X59500000Y-52500000D03*
D13*
X59500000Y-56000000D03*
X59500000Y-59500000D03*
X59500000Y-63000000D03*
X59500000Y-66500000D03*
X59500000Y-70000000D03*
X59500000Y-73500000D03*
X59500000Y-77000000D03*
X59500000Y-80500000D03*
X59500000Y-84000000D03*
%TD*%
D11*
%TO.C,JP5*%
X88500000Y-126250000D03*
X88500000Y-128790000D03*
%TD*%
D10*
%TO.C,H4*%
X54000000Y-141000000D03*
%TD*%
%TO.C,H1*%
X54000000Y-47000000D03*
%TD*%
D11*
%TO.C,JP11*%
X70200000Y-85600000D03*
X67660000Y-85600000D03*
%TD*%
D16*
%TO.C,J8*%
X143000000Y-122500000D03*
D13*
X143000000Y-119000000D03*
X143000000Y-115500000D03*
X143000000Y-112000000D03*
X143000000Y-108500000D03*
X143000000Y-105000000D03*
X143000000Y-101500000D03*
X143000000Y-98000000D03*
X143000000Y-94500000D03*
X143000000Y-91000000D03*
%TD*%
D11*
%TO.C,JP2*%
X104000000Y-122000000D03*
X104000000Y-124540000D03*
%TD*%
%TO.C,JP9*%
X120000000Y-127460000D03*
X120000000Y-130000000D03*
%TD*%
%TO.C,JP10*%
X128000000Y-127460000D03*
X128000000Y-130000000D03*
%TD*%
D10*
%TO.C,H2*%
X148000000Y-47000000D03*
%TD*%
D11*
%TO.C,JP1*%
X97000000Y-121460000D03*
X97000000Y-124000000D03*
%TD*%
D17*
%TO.C,J3*%
X63000000Y-136500000D03*
D13*
X66500000Y-136500000D03*
X70000000Y-136500000D03*
X73500000Y-136500000D03*
X77000000Y-136500000D03*
X80500000Y-136500000D03*
X84000000Y-136500000D03*
X87500000Y-136500000D03*
X91000000Y-136500000D03*
X94500000Y-136500000D03*
%TD*%
D11*
%TO.C,JP4*%
X71500000Y-126500000D03*
X71500000Y-129040000D03*
%TD*%
D17*
%TO.C,J2*%
X105000000Y-136500000D03*
D13*
X108500000Y-136500000D03*
X112000000Y-136500000D03*
X115500000Y-136500000D03*
X119000000Y-136500000D03*
X122500000Y-136500000D03*
X126000000Y-136500000D03*
X129500000Y-136500000D03*
X133000000Y-136500000D03*
X136500000Y-136500000D03*
%TD*%
D16*
%TO.C,J9*%
X143000000Y-84000000D03*
D13*
X143000000Y-80500000D03*
X143000000Y-77000000D03*
X143000000Y-73500000D03*
X143000000Y-70000000D03*
X143000000Y-66500000D03*
X143000000Y-63000000D03*
X143000000Y-59500000D03*
X143000000Y-56000000D03*
X143000000Y-52500000D03*
%TD*%
D11*
%TO.C,JP3*%
X80000000Y-126460000D03*
X80000000Y-129000000D03*
%TD*%
%TO.C,JP6*%
X104000000Y-127460000D03*
X104000000Y-130000000D03*
%TD*%
D18*
X148000000Y-141000000D03*
X112000000Y-127460000D03*
X112000000Y-130000000D03*
X59500000Y-91000000D03*
X59500000Y-94500000D03*
X59500000Y-98000000D03*
X59500000Y-101500000D03*
X59500000Y-105000000D03*
X59500000Y-108500000D03*
X59500000Y-112000000D03*
X59500000Y-115500000D03*
X59500000Y-119000000D03*
X59500000Y-122500000D03*
X119340000Y-73400000D03*
X116800000Y-73400000D03*
X97000000Y-126950000D03*
X97000000Y-129490000D03*
X83820000Y-50800000D03*
X83820000Y-53340000D03*
X83820000Y-55880000D03*
X83820000Y-58420000D03*
X83820000Y-60960000D03*
X83820000Y-63500000D03*
X83820000Y-66040000D03*
X83820000Y-68580000D03*
X83820000Y-71120000D03*
X83820000Y-73660000D03*
X83820000Y-76200000D03*
X83820000Y-78740000D03*
X83820000Y-81280000D03*
X83820000Y-83820000D03*
X83820000Y-86360000D03*
X83820000Y-88900000D03*
X83820000Y-91440000D03*
X83820000Y-93980000D03*
X83820000Y-96520000D03*
X83816320Y-99057280D03*
X83816320Y-101597280D03*
X83816320Y-104137280D03*
X106680000Y-104140000D03*
X109220000Y-104140000D03*
X106680000Y-101600000D03*
X109220000Y-101600000D03*
X106680000Y-99060000D03*
X109220000Y-99060000D03*
X106680000Y-96520000D03*
X109220000Y-96520000D03*
X106680000Y-93980000D03*
X109220000Y-93980000D03*
X106680000Y-91440000D03*
X109220000Y-91440000D03*
X106680000Y-88900000D03*
X109220000Y-88900000D03*
X106680000Y-86360000D03*
X109220000Y-86360000D03*
X106680000Y-83820000D03*
X109220000Y-83820000D03*
X106680000Y-81280000D03*
X109220000Y-81280000D03*
X106680000Y-78740000D03*
X109220000Y-78740000D03*
X106680000Y-76200000D03*
X109220000Y-76200000D03*
X106680000Y-73660000D03*
X109220000Y-73660000D03*
X106680000Y-71120000D03*
X109220000Y-71120000D03*
X106680000Y-68580000D03*
X109220000Y-68580000D03*
X106680000Y-66040000D03*
X109220000Y-66040000D03*
X106680000Y-63500000D03*
X109220000Y-63500000D03*
X106680000Y-60960000D03*
X109220000Y-60960000D03*
X106680000Y-58420000D03*
X109220000Y-58420000D03*
X106680000Y-55880000D03*
X109220000Y-55880000D03*
X106680000Y-53340000D03*
X109220000Y-53340000D03*
X106680000Y-50800000D03*
X109220000Y-50800000D03*
X59500000Y-52500000D03*
X59500000Y-56000000D03*
X59500000Y-59500000D03*
X59500000Y-63000000D03*
X59500000Y-66500000D03*
X59500000Y-70000000D03*
X59500000Y-73500000D03*
X59500000Y-77000000D03*
X59500000Y-80500000D03*
X59500000Y-84000000D03*
X88500000Y-126250000D03*
X88500000Y-128790000D03*
X54000000Y-141000000D03*
X54000000Y-47000000D03*
X70200000Y-85600000D03*
X67660000Y-85600000D03*
X143000000Y-122500000D03*
X143000000Y-119000000D03*
X143000000Y-115500000D03*
X143000000Y-112000000D03*
X143000000Y-108500000D03*
X143000000Y-105000000D03*
X143000000Y-101500000D03*
X143000000Y-98000000D03*
X143000000Y-94500000D03*
X143000000Y-91000000D03*
X104000000Y-122000000D03*
X104000000Y-124540000D03*
X120000000Y-127460000D03*
X120000000Y-130000000D03*
X128000000Y-127460000D03*
X128000000Y-130000000D03*
X148000000Y-47000000D03*
X97000000Y-121460000D03*
X97000000Y-124000000D03*
X63000000Y-136500000D03*
X66500000Y-136500000D03*
X70000000Y-136500000D03*
X73500000Y-136500000D03*
X77000000Y-136500000D03*
X80500000Y-136500000D03*
X84000000Y-136500000D03*
X87500000Y-136500000D03*
X91000000Y-136500000D03*
X94500000Y-136500000D03*
X71500000Y-126500000D03*
X71500000Y-129040000D03*
X105000000Y-136500000D03*
X108500000Y-136500000D03*
X112000000Y-136500000D03*
X115500000Y-136500000D03*
X119000000Y-136500000D03*
X122500000Y-136500000D03*
X126000000Y-136500000D03*
X129500000Y-136500000D03*
X133000000Y-136500000D03*
X136500000Y-136500000D03*
X143000000Y-84000000D03*
X143000000Y-80500000D03*
X143000000Y-77000000D03*
X143000000Y-73500000D03*
X143000000Y-70000000D03*
X143000000Y-66500000D03*
X143000000Y-63000000D03*
X143000000Y-59500000D03*
X143000000Y-56000000D03*
X143000000Y-52500000D03*
X80000000Y-126460000D03*
X80000000Y-129000000D03*
X104000000Y-127460000D03*
X104000000Y-130000000D03*
M02*
