%TF.GenerationSoftware,KiCad,Pcbnew,9.0.3*%
%TF.CreationDate,2025-08-04T15:00:35+02:00*%
%TF.ProjectId,esp-motioncontroller,6573702d-6d6f-4746-996f-6e636f6e7472,1.0.0*%
%TF.SameCoordinates,Original*%
%TF.FileFunction,Drillmap*%
%TF.FilePolarity,Positive*%
%FSLAX45Y45*%
G04 Gerber Fmt 4.5, Leading zero omitted, Abs format (unit mm)*
G04 Created by KiCad (PCBNEW 9.0.3) date 2025-08-04 15:00:35*
%MOMM*%
%LPD*%
G01*
G04 APERTURE LIST*
%ADD10C,0.050000*%
%ADD11C,0.200000*%
%ADD12C,0.100000*%
%ADD13C,0.120000*%
%ADD14C,0.320000*%
G04 APERTURE END LIST*
D10*
X15100000Y-4700000D02*
X15100000Y-14100000D01*
X5400000Y-4400000D02*
X14800000Y-4400000D01*
X15100000Y-14100000D02*
G75*
G02*
X14800000Y-14400000I-300000J0D01*
G01*
X5100000Y-14100000D02*
X5100000Y-4700000D01*
X14800000Y-4400000D02*
G75*
G02*
X15100000Y-4700000I0J-300000D01*
G01*
X5400000Y-14400000D02*
G75*
G02*
X5100000Y-14100000I0J300000D01*
G01*
X5100000Y-4700000D02*
G75*
G02*
X5400000Y-4400000I300000J0D01*
G01*
X14800000Y-14400000D02*
X5400000Y-14400000D01*
D11*
D12*
X5230000Y-5230000D02*
X5270000Y-5270000D01*
X5270000Y-5230000D02*
X5230000Y-5270000D01*
X5230000Y-5480000D02*
X5270000Y-5520000D01*
X5270000Y-5480000D02*
X5230000Y-5520000D01*
X5230000Y-6230000D02*
X5270000Y-6270000D01*
X5270000Y-6230000D02*
X5230000Y-6270000D01*
X5230000Y-6980000D02*
X5270000Y-7020000D01*
X5270000Y-6980000D02*
X5230000Y-7020000D01*
X5230000Y-7730000D02*
X5270000Y-7770000D01*
X5270000Y-7730000D02*
X5230000Y-7770000D01*
X5230000Y-8480000D02*
X5270000Y-8520000D01*
X5270000Y-8480000D02*
X5230000Y-8520000D01*
X5230000Y-9230000D02*
X5270000Y-9270000D01*
X5270000Y-9230000D02*
X5230000Y-9270000D01*
X5230000Y-10230000D02*
X5270000Y-10270000D01*
X5270000Y-10230000D02*
X5230000Y-10270000D01*
X5230000Y-10980000D02*
X5270000Y-11020000D01*
X5270000Y-10980000D02*
X5230000Y-11020000D01*
X5230000Y-11730000D02*
X5270000Y-11770000D01*
X5270000Y-11730000D02*
X5230000Y-11770000D01*
X5230000Y-13480000D02*
X5270000Y-13520000D01*
X5270000Y-13480000D02*
X5230000Y-13520000D01*
X5572500Y-8352688D02*
X5612500Y-8392688D01*
X5612500Y-8352688D02*
X5572500Y-8392688D01*
X5572500Y-12352688D02*
X5612500Y-12392688D01*
X5612500Y-12352688D02*
X5572500Y-12392688D01*
X5572500Y-12852688D02*
X5612500Y-12892688D01*
X5612500Y-12852688D02*
X5572500Y-12892688D01*
X5572500Y-13352688D02*
X5612500Y-13392688D01*
X5612500Y-13352688D02*
X5572500Y-13392688D01*
X5730000Y-4480000D02*
X5770000Y-4520000D01*
X5770000Y-4480000D02*
X5730000Y-4520000D01*
X5830237Y-4751366D02*
X5870237Y-4791366D01*
X5870237Y-4751366D02*
X5830237Y-4791366D01*
X5920000Y-8780000D02*
X5960000Y-8820000D01*
X5960000Y-8780000D02*
X5920000Y-8820000D01*
X5980000Y-14230000D02*
X6020000Y-14270000D01*
X6020000Y-14230000D02*
X5980000Y-14270000D01*
X6072500Y-12852688D02*
X6112500Y-12892688D01*
X6112500Y-12852688D02*
X6072500Y-12892688D01*
X6072500Y-13352688D02*
X6112500Y-13392688D01*
X6112500Y-13352688D02*
X6072500Y-13392688D01*
X6072500Y-13852688D02*
X6112500Y-13892688D01*
X6112500Y-13852688D02*
X6072500Y-13892688D01*
X6120000Y-10980000D02*
X6160000Y-11020000D01*
X6160000Y-10980000D02*
X6120000Y-11020000D01*
X6140000Y-10360000D02*
X6180000Y-10400000D01*
X6180000Y-10360000D02*
X6140000Y-10400000D01*
X6160000Y-7360000D02*
X6200000Y-7400000D01*
X6200000Y-7360000D02*
X6160000Y-7400000D01*
X6160000Y-10120000D02*
X6200000Y-10160000D01*
X6200000Y-10120000D02*
X6160000Y-10160000D01*
X6180000Y-7000000D02*
X6220000Y-7040000D01*
X6220000Y-7000000D02*
X6180000Y-7040000D01*
X6180000Y-9700000D02*
X6220000Y-9740000D01*
X6220000Y-9700000D02*
X6180000Y-9740000D01*
X6197931Y-6235227D02*
X6237931Y-6275227D01*
X6237931Y-6235227D02*
X6197931Y-6275227D01*
X6200000Y-11200000D02*
X6240000Y-11240000D01*
X6240000Y-11200000D02*
X6200000Y-11240000D01*
X6220000Y-9480000D02*
X6260000Y-9520000D01*
X6260000Y-9480000D02*
X6220000Y-9520000D01*
X6230000Y-4480000D02*
X6270000Y-4520000D01*
X6270000Y-4480000D02*
X6230000Y-4520000D01*
X6230000Y-14230000D02*
X6270000Y-14270000D01*
X6270000Y-14230000D02*
X6230000Y-14270000D01*
X6296427Y-10028221D02*
X6336427Y-10068221D01*
X6336427Y-10028221D02*
X6296427Y-10068221D01*
X6300000Y-10720000D02*
X6340000Y-10760000D01*
X6340000Y-10720000D02*
X6300000Y-10760000D01*
X6330000Y-6380000D02*
X6370000Y-6420000D01*
X6370000Y-6380000D02*
X6330000Y-6420000D01*
X6360000Y-9080000D02*
X6400000Y-9120000D01*
X6400000Y-9080000D02*
X6360000Y-9120000D01*
X6369541Y-5095603D02*
X6409541Y-5135603D01*
X6409541Y-5095603D02*
X6369541Y-5135603D01*
X6420000Y-11180000D02*
X6460000Y-11220000D01*
X6460000Y-11180000D02*
X6420000Y-11220000D01*
X6424236Y-12692237D02*
X6464236Y-12732237D01*
X6464236Y-12692237D02*
X6424236Y-12732237D01*
X6434504Y-10246237D02*
X6474504Y-10286237D01*
X6474504Y-10246237D02*
X6434504Y-10286237D01*
X6435500Y-9824500D02*
X6475500Y-9864500D01*
X6475500Y-9824500D02*
X6435500Y-9864500D01*
X6480000Y-6530000D02*
X6520000Y-6570000D01*
X6520000Y-6530000D02*
X6480000Y-6570000D01*
X6494772Y-6833096D02*
X6534772Y-6873096D01*
X6534772Y-6833096D02*
X6494772Y-6873096D01*
X6497674Y-6054194D02*
X6537674Y-6094194D01*
X6537674Y-6054194D02*
X6497674Y-6094194D01*
X6520000Y-8520000D02*
X6560000Y-8560000D01*
X6560000Y-8520000D02*
X6520000Y-8560000D01*
X6572500Y-7852688D02*
X6612500Y-7892688D01*
X6612500Y-7852688D02*
X6572500Y-7892688D01*
X6572500Y-8852688D02*
X6612500Y-8892688D01*
X6612500Y-8852688D02*
X6572500Y-8892688D01*
X6572500Y-10852688D02*
X6612500Y-10892688D01*
X6612500Y-10852688D02*
X6572500Y-10892688D01*
X6572500Y-12352688D02*
X6612500Y-12392688D01*
X6612500Y-12352688D02*
X6572500Y-12392688D01*
X6572500Y-13852688D02*
X6612500Y-13892688D01*
X6612500Y-13852688D02*
X6572500Y-13892688D01*
X6580000Y-7280000D02*
X6620000Y-7320000D01*
X6620000Y-7280000D02*
X6580000Y-7320000D01*
X6610506Y-4751366D02*
X6650506Y-4791366D01*
X6650506Y-4751366D02*
X6610506Y-4791366D01*
X6730000Y-4480000D02*
X6770000Y-4520000D01*
X6770000Y-4480000D02*
X6730000Y-4520000D01*
X6760000Y-10260000D02*
X6800000Y-10300000D01*
X6800000Y-10260000D02*
X6760000Y-10300000D01*
X6760000Y-10880000D02*
X6800000Y-10920000D01*
X6800000Y-10880000D02*
X6760000Y-10920000D01*
X6780000Y-6020000D02*
X6820000Y-6060000D01*
X6820000Y-6020000D02*
X6780000Y-6060000D01*
X6816186Y-10751688D02*
X6856186Y-10791688D01*
X6856186Y-10751688D02*
X6816186Y-10791688D01*
X6838067Y-6449805D02*
X6878067Y-6489805D01*
X6878067Y-6449805D02*
X6838067Y-6489805D01*
X6840000Y-9420000D02*
X6880000Y-9460000D01*
X6880000Y-9420000D02*
X6840000Y-9460000D01*
X6840000Y-9840000D02*
X6880000Y-9880000D01*
X6880000Y-9840000D02*
X6840000Y-9880000D01*
X6840000Y-11540000D02*
X6880000Y-11580000D01*
X6880000Y-11540000D02*
X6840000Y-11580000D01*
X6880000Y-11730000D02*
X6920000Y-11770000D01*
X6920000Y-11730000D02*
X6880000Y-11770000D01*
X6918960Y-12655207D02*
X6958960Y-12695207D01*
X6958960Y-12655207D02*
X6918960Y-12695207D01*
X6980000Y-9100000D02*
X7020000Y-9140000D01*
X7020000Y-9100000D02*
X6980000Y-9140000D01*
X7000000Y-6940000D02*
X7040000Y-6980000D01*
X7040000Y-6940000D02*
X7000000Y-6980000D01*
X7006500Y-11903500D02*
X7046500Y-11943500D01*
X7046500Y-11903500D02*
X7006500Y-11943500D01*
X7040000Y-11340000D02*
X7080000Y-11380000D01*
X7080000Y-11340000D02*
X7040000Y-11380000D01*
X7060000Y-11780000D02*
X7100000Y-11820000D01*
X7100000Y-11780000D02*
X7060000Y-11820000D01*
X7072500Y-7852688D02*
X7112500Y-7892688D01*
X7112500Y-7852688D02*
X7072500Y-7892688D01*
X7072500Y-8352688D02*
X7112500Y-8392688D01*
X7112500Y-8352688D02*
X7072500Y-8392688D01*
X7072500Y-8852688D02*
X7112500Y-8892688D01*
X7112500Y-8852688D02*
X7072500Y-8892688D01*
X7072500Y-12352688D02*
X7112500Y-12392688D01*
X7112500Y-12352688D02*
X7072500Y-12392688D01*
X7072500Y-13852688D02*
X7112500Y-13892688D01*
X7112500Y-13852688D02*
X7072500Y-13892688D01*
X7154622Y-5980000D02*
X7194622Y-6020000D01*
X7194622Y-5980000D02*
X7154622Y-6020000D01*
X7211778Y-12181685D02*
X7251778Y-12221685D01*
X7251778Y-12181685D02*
X7211778Y-12221685D01*
X7220000Y-11160000D02*
X7260000Y-11200000D01*
X7260000Y-11160000D02*
X7220000Y-11200000D01*
X7220000Y-11500000D02*
X7260000Y-11540000D01*
X7260000Y-11500000D02*
X7220000Y-11540000D01*
X7230000Y-4480000D02*
X7270000Y-4520000D01*
X7270000Y-4480000D02*
X7230000Y-4520000D01*
X7230000Y-14230000D02*
X7270000Y-14270000D01*
X7270000Y-14230000D02*
X7230000Y-14270000D01*
X7280000Y-9840000D02*
X7320000Y-9880000D01*
X7320000Y-9840000D02*
X7280000Y-9880000D01*
X7298979Y-5112815D02*
X7338979Y-5152815D01*
X7338979Y-5112815D02*
X7298979Y-5152815D01*
X7340000Y-11040000D02*
X7380000Y-11080000D01*
X7380000Y-11040000D02*
X7340000Y-11080000D01*
X7356573Y-7045966D02*
X7396573Y-7085966D01*
X7396573Y-7045966D02*
X7356573Y-7085966D01*
X7379301Y-4751366D02*
X7419301Y-4791366D01*
X7419301Y-4751366D02*
X7379301Y-4791366D01*
X7440000Y-10840000D02*
X7480000Y-10880000D01*
X7480000Y-10840000D02*
X7440000Y-10880000D01*
X7460000Y-10620000D02*
X7500000Y-10660000D01*
X7500000Y-10620000D02*
X7460000Y-10660000D01*
X7500000Y-10780000D02*
X7540000Y-10820000D01*
X7540000Y-10780000D02*
X7500000Y-10820000D01*
X7520000Y-9640000D02*
X7560000Y-9680000D01*
X7560000Y-9640000D02*
X7520000Y-9680000D01*
X7560000Y-11620000D02*
X7600000Y-11660000D01*
X7600000Y-11620000D02*
X7560000Y-11660000D01*
X7572500Y-5352688D02*
X7612500Y-5392688D01*
X7612500Y-5352688D02*
X7572500Y-5392688D01*
X7572500Y-5852688D02*
X7612500Y-5892688D01*
X7612500Y-5852688D02*
X7572500Y-5892688D01*
X7572500Y-7352688D02*
X7612500Y-7392688D01*
X7612500Y-7352688D02*
X7572500Y-7392688D01*
X7572500Y-7852688D02*
X7612500Y-7892688D01*
X7612500Y-7852688D02*
X7572500Y-7892688D01*
X7572500Y-12352688D02*
X7612500Y-12392688D01*
X7612500Y-12352688D02*
X7572500Y-12392688D01*
X7572500Y-13852688D02*
X7612500Y-13892688D01*
X7612500Y-13852688D02*
X7572500Y-13892688D01*
X7580000Y-6880000D02*
X7620000Y-6920000D01*
X7620000Y-6880000D02*
X7580000Y-6920000D01*
X7630000Y-6730000D02*
X7670000Y-6770000D01*
X7670000Y-6730000D02*
X7630000Y-6770000D01*
X7671796Y-6962730D02*
X7711796Y-7002730D01*
X7711796Y-6962730D02*
X7671796Y-7002730D01*
X7698995Y-6654000D02*
X7738995Y-6694000D01*
X7738995Y-6654000D02*
X7698995Y-6694000D01*
X7700000Y-9300000D02*
X7740000Y-9340000D01*
X7740000Y-9300000D02*
X7700000Y-9340000D01*
X7700000Y-9940000D02*
X7740000Y-9980000D01*
X7740000Y-9940000D02*
X7700000Y-9980000D01*
X7730000Y-11730000D02*
X7770000Y-11770000D01*
X7770000Y-11730000D02*
X7730000Y-11770000D01*
X7734105Y-6335569D02*
X7774105Y-6375569D01*
X7774105Y-6335569D02*
X7734105Y-6375569D01*
X7740000Y-11460000D02*
X7780000Y-11500000D01*
X7780000Y-11460000D02*
X7740000Y-11500000D01*
X7760000Y-10600000D02*
X7800000Y-10640000D01*
X7800000Y-10600000D02*
X7760000Y-10640000D01*
X7780000Y-8880000D02*
X7820000Y-8920000D01*
X7820000Y-8880000D02*
X7780000Y-8920000D01*
X7875055Y-6665450D02*
X7915055Y-6705450D01*
X7915055Y-6665450D02*
X7875055Y-6705450D01*
X7880000Y-8880000D02*
X7920000Y-8920000D01*
X7920000Y-8880000D02*
X7880000Y-8920000D01*
X7890000Y-11890000D02*
X7930000Y-11930000D01*
X7930000Y-11890000D02*
X7890000Y-11930000D01*
X7898415Y-6476842D02*
X7938415Y-6516842D01*
X7938415Y-6476842D02*
X7898415Y-6516842D01*
X7960000Y-9120000D02*
X8000000Y-9160000D01*
X8000000Y-9120000D02*
X7960000Y-9160000D01*
X7960000Y-11820000D02*
X8000000Y-11860000D01*
X8000000Y-11820000D02*
X7960000Y-11860000D01*
X7979439Y-5977460D02*
X8019439Y-6017460D01*
X8019439Y-5977460D02*
X7979439Y-6017460D01*
X8011656Y-11012022D02*
X8051656Y-11052022D01*
X8051656Y-11012022D02*
X8011656Y-11052022D01*
X8019570Y-10541139D02*
X8059570Y-10581139D01*
X8059570Y-10541139D02*
X8019570Y-10581139D01*
X8026528Y-7549267D02*
X8066528Y-7589267D01*
X8066528Y-7549267D02*
X8026528Y-7589267D01*
X8029448Y-7455828D02*
X8069448Y-7495828D01*
X8069448Y-7455828D02*
X8029448Y-7495828D01*
X8033029Y-7266663D02*
X8073029Y-7306663D01*
X8073029Y-7266663D02*
X8033029Y-7306663D01*
X8060000Y-9320000D02*
X8100000Y-9360000D01*
X8100000Y-9320000D02*
X8060000Y-9360000D01*
X8072500Y-5352688D02*
X8112500Y-5392688D01*
X8112500Y-5352688D02*
X8072500Y-5392688D01*
X8072500Y-7852688D02*
X8112500Y-7892688D01*
X8112500Y-7852688D02*
X8072500Y-7892688D01*
X8072500Y-12352688D02*
X8112500Y-12392688D01*
X8112500Y-12352688D02*
X8072500Y-12392688D01*
X8072500Y-13852688D02*
X8112500Y-13892688D01*
X8112500Y-13852688D02*
X8072500Y-13892688D01*
X8095706Y-12134201D02*
X8135706Y-12174201D01*
X8135706Y-12134201D02*
X8095706Y-12174201D01*
X8098149Y-6157504D02*
X8138149Y-6197504D01*
X8138149Y-6157504D02*
X8098149Y-6197504D01*
X8100000Y-8680000D02*
X8140000Y-8720000D01*
X8140000Y-8680000D02*
X8100000Y-8720000D01*
X8125146Y-5101340D02*
X8165146Y-5141340D01*
X8165146Y-5101340D02*
X8125146Y-5141340D01*
X8130000Y-6680000D02*
X8170000Y-6720000D01*
X8170000Y-6680000D02*
X8130000Y-6720000D01*
X8165753Y-6764079D02*
X8205753Y-6804079D01*
X8205753Y-6764079D02*
X8165753Y-6804079D01*
X8180000Y-7180000D02*
X8220000Y-7220000D01*
X8220000Y-7180000D02*
X8180000Y-7220000D01*
X8200000Y-9500000D02*
X8240000Y-9540000D01*
X8240000Y-9500000D02*
X8200000Y-9540000D01*
X8230000Y-14230000D02*
X8270000Y-14270000D01*
X8270000Y-14230000D02*
X8230000Y-14270000D01*
X8550000Y-11690000D02*
X8590000Y-11730000D01*
X8590000Y-11690000D02*
X8550000Y-11730000D01*
X8572500Y-5852688D02*
X8612500Y-5892688D01*
X8612500Y-5852688D02*
X8572500Y-5892688D01*
X8572500Y-6352688D02*
X8612500Y-6392688D01*
X8612500Y-6352688D02*
X8572500Y-6392688D01*
X8572500Y-6852688D02*
X8612500Y-6892688D01*
X8612500Y-6852688D02*
X8572500Y-6892688D01*
X8572500Y-7352688D02*
X8612500Y-7392688D01*
X8612500Y-7352688D02*
X8572500Y-7392688D01*
X8572500Y-10352688D02*
X8612500Y-10392688D01*
X8612500Y-10352688D02*
X8572500Y-10392688D01*
X8572500Y-11352688D02*
X8612500Y-11392688D01*
X8612500Y-11352688D02*
X8572500Y-11392688D01*
X8572500Y-12352688D02*
X8612500Y-12392688D01*
X8612500Y-12352688D02*
X8572500Y-12392688D01*
X8572500Y-13852688D02*
X8612500Y-13892688D01*
X8612500Y-13852688D02*
X8572500Y-13892688D01*
X8580000Y-9280000D02*
X8620000Y-9320000D01*
X8620000Y-9280000D02*
X8580000Y-9320000D01*
X8592775Y-9060000D02*
X8632775Y-9100000D01*
X8632775Y-9060000D02*
X8592775Y-9100000D01*
X8619484Y-9494971D02*
X8659484Y-9534971D01*
X8659484Y-9494971D02*
X8619484Y-9534971D01*
X8628388Y-8309849D02*
X8668388Y-8349849D01*
X8668388Y-8309849D02*
X8628388Y-8349849D01*
X8640000Y-7720000D02*
X8680000Y-7760000D01*
X8680000Y-7720000D02*
X8640000Y-7760000D01*
X8750000Y-11890000D02*
X8790000Y-11930000D01*
X8790000Y-11890000D02*
X8750000Y-11930000D01*
X8760000Y-11620000D02*
X8800000Y-11660000D01*
X8800000Y-11620000D02*
X8760000Y-11660000D01*
X9072500Y-5852688D02*
X9112500Y-5892688D01*
X9112500Y-5852688D02*
X9072500Y-5892688D01*
X9072500Y-6352688D02*
X9112500Y-6392688D01*
X9112500Y-6352688D02*
X9072500Y-6392688D01*
X9072500Y-6852688D02*
X9112500Y-6892688D01*
X9112500Y-6852688D02*
X9072500Y-6892688D01*
X9072500Y-7352688D02*
X9112500Y-7392688D01*
X9112500Y-7352688D02*
X9072500Y-7392688D01*
X9072500Y-8852688D02*
X9112500Y-8892688D01*
X9112500Y-8852688D02*
X9072500Y-8892688D01*
X9072500Y-9352688D02*
X9112500Y-9392688D01*
X9112500Y-9352688D02*
X9072500Y-9392688D01*
X9072500Y-9852688D02*
X9112500Y-9892688D01*
X9112500Y-9852688D02*
X9072500Y-9892688D01*
X9072500Y-10352688D02*
X9112500Y-10392688D01*
X9112500Y-10352688D02*
X9072500Y-10392688D01*
X9072500Y-10852688D02*
X9112500Y-10892688D01*
X9112500Y-10852688D02*
X9072500Y-10892688D01*
X9072500Y-12352688D02*
X9112500Y-12392688D01*
X9112500Y-12352688D02*
X9072500Y-12392688D01*
X9072500Y-13852688D02*
X9112500Y-13892688D01*
X9112500Y-13852688D02*
X9072500Y-13892688D01*
X9140000Y-8220000D02*
X9180000Y-8260000D01*
X9180000Y-8220000D02*
X9140000Y-8260000D01*
X9230000Y-14230000D02*
X9270000Y-14270000D01*
X9270000Y-14230000D02*
X9230000Y-14270000D01*
X9260000Y-11380000D02*
X9300000Y-11420000D01*
X9300000Y-11380000D02*
X9260000Y-11420000D01*
X9280000Y-9520000D02*
X9320000Y-9560000D01*
X9320000Y-9520000D02*
X9280000Y-9560000D01*
X9410000Y-11690000D02*
X9450000Y-11730000D01*
X9450000Y-11690000D02*
X9410000Y-11730000D01*
X9410000Y-12090000D02*
X9450000Y-12130000D01*
X9450000Y-12090000D02*
X9410000Y-12130000D01*
X9572500Y-5352688D02*
X9612500Y-5392688D01*
X9612500Y-5352688D02*
X9572500Y-5392688D01*
X9572500Y-5852688D02*
X9612500Y-5892688D01*
X9612500Y-5852688D02*
X9572500Y-5892688D01*
X9572500Y-6352688D02*
X9612500Y-6392688D01*
X9612500Y-6352688D02*
X9572500Y-6392688D01*
X9572500Y-6852688D02*
X9612500Y-6892688D01*
X9612500Y-6852688D02*
X9572500Y-6892688D01*
X9572500Y-7352688D02*
X9612500Y-7392688D01*
X9612500Y-7352688D02*
X9572500Y-7392688D01*
X9572500Y-7852688D02*
X9612500Y-7892688D01*
X9612500Y-7852688D02*
X9572500Y-7892688D01*
X9572500Y-8352688D02*
X9612500Y-8392688D01*
X9612500Y-8352688D02*
X9572500Y-8392688D01*
X9572500Y-8852688D02*
X9612500Y-8892688D01*
X9612500Y-8852688D02*
X9572500Y-8892688D01*
X9572500Y-9352688D02*
X9612500Y-9392688D01*
X9612500Y-9352688D02*
X9572500Y-9392688D01*
X9572500Y-9852688D02*
X9612500Y-9892688D01*
X9612500Y-9852688D02*
X9572500Y-9892688D01*
X9572500Y-10352688D02*
X9612500Y-10392688D01*
X9612500Y-10352688D02*
X9572500Y-10392688D01*
X9572500Y-10852688D02*
X9612500Y-10892688D01*
X9612500Y-10852688D02*
X9572500Y-10892688D01*
X9572500Y-11352688D02*
X9612500Y-11392688D01*
X9612500Y-11352688D02*
X9572500Y-11392688D01*
X9572500Y-13352688D02*
X9612500Y-13392688D01*
X9612500Y-13352688D02*
X9572500Y-13392688D01*
X9996165Y-10544715D02*
X10036165Y-10584715D01*
X10036165Y-10544715D02*
X9996165Y-10584715D01*
X10072500Y-5352688D02*
X10112500Y-5392688D01*
X10112500Y-5352688D02*
X10072500Y-5392688D01*
X10072500Y-5852688D02*
X10112500Y-5892688D01*
X10112500Y-5852688D02*
X10072500Y-5892688D01*
X10072500Y-6352688D02*
X10112500Y-6392688D01*
X10112500Y-6352688D02*
X10072500Y-6392688D01*
X10072500Y-11352688D02*
X10112500Y-11392688D01*
X10112500Y-11352688D02*
X10072500Y-11392688D01*
X10072500Y-11852688D02*
X10112500Y-11892688D01*
X10112500Y-11852688D02*
X10072500Y-11892688D01*
X10072500Y-12352688D02*
X10112500Y-12392688D01*
X10112500Y-12352688D02*
X10072500Y-12392688D01*
X10072500Y-12852688D02*
X10112500Y-12892688D01*
X10112500Y-12852688D02*
X10072500Y-12892688D01*
X10072500Y-13352688D02*
X10112500Y-13392688D01*
X10112500Y-13352688D02*
X10072500Y-13392688D01*
X10145000Y-9220000D02*
X10185000Y-9260000D01*
X10185000Y-9220000D02*
X10145000Y-9260000D01*
X10145000Y-10260000D02*
X10185000Y-10300000D01*
X10185000Y-10260000D02*
X10145000Y-10300000D01*
X10426286Y-6463611D02*
X10466286Y-6503611D01*
X10466286Y-6463611D02*
X10426286Y-6503611D01*
X10432516Y-6714893D02*
X10472516Y-6754893D01*
X10472516Y-6714893D02*
X10432516Y-6754893D01*
X10460000Y-7460000D02*
X10500000Y-7500000D01*
X10500000Y-7460000D02*
X10460000Y-7500000D01*
X10460000Y-8480000D02*
X10500000Y-8520000D01*
X10500000Y-8480000D02*
X10460000Y-8520000D01*
X10460000Y-10000000D02*
X10500000Y-10040000D01*
X10500000Y-10000000D02*
X10460000Y-10040000D01*
X10460000Y-12020000D02*
X10500000Y-12060000D01*
X10500000Y-12020000D02*
X10460000Y-12060000D01*
X10480000Y-5180000D02*
X10520000Y-5220000D01*
X10520000Y-5180000D02*
X10480000Y-5220000D01*
X10480000Y-9000000D02*
X10520000Y-9040000D01*
X10520000Y-9000000D02*
X10480000Y-9040000D01*
X10480000Y-14230000D02*
X10520000Y-14270000D01*
X10520000Y-14230000D02*
X10480000Y-14270000D01*
X10490458Y-7229254D02*
X10530458Y-7269254D01*
X10530458Y-7229254D02*
X10490458Y-7269254D01*
X10572500Y-12352688D02*
X10612500Y-12392688D01*
X10612500Y-12352688D02*
X10572500Y-12392688D01*
X10583871Y-12550322D02*
X10623871Y-12590322D01*
X10623871Y-12550322D02*
X10583871Y-12590322D01*
X10660000Y-11780000D02*
X10700000Y-11820000D01*
X10700000Y-11780000D02*
X10660000Y-11820000D01*
X10872516Y-11421852D02*
X10912516Y-11461852D01*
X10912516Y-11421852D02*
X10872516Y-11461852D01*
X11000000Y-6700000D02*
X11040000Y-6740000D01*
X11040000Y-6700000D02*
X11000000Y-6740000D01*
X11017699Y-7217081D02*
X11057699Y-7257081D01*
X11057699Y-7217081D02*
X11017699Y-7257081D01*
X11020468Y-7474593D02*
X11060468Y-7514593D01*
X11060468Y-7474593D02*
X11020468Y-7514593D01*
X11023237Y-6203087D02*
X11063237Y-6243087D01*
X11063237Y-6203087D02*
X11023237Y-6243087D01*
X11023527Y-11718495D02*
X11063527Y-11758495D01*
X11063527Y-11718495D02*
X11023527Y-11758495D01*
X11027390Y-6456445D02*
X11067390Y-6496445D01*
X11067390Y-6456445D02*
X11027390Y-6496445D01*
X11072500Y-8352688D02*
X11112500Y-8392688D01*
X11112500Y-8352688D02*
X11072500Y-8392688D01*
X11072500Y-9852688D02*
X11112500Y-9892688D01*
X11112500Y-9852688D02*
X11072500Y-9892688D01*
X11072500Y-10352688D02*
X11112500Y-10392688D01*
X11112500Y-10352688D02*
X11072500Y-10392688D01*
X11072500Y-10852688D02*
X11112500Y-10892688D01*
X11112500Y-10852688D02*
X11072500Y-10892688D01*
X11072500Y-12352688D02*
X11112500Y-12392688D01*
X11112500Y-12352688D02*
X11072500Y-12392688D01*
X11072500Y-13352688D02*
X11112500Y-13392688D01*
X11112500Y-13352688D02*
X11072500Y-13392688D01*
X11080000Y-5980000D02*
X11120000Y-6020000D01*
X11120000Y-5980000D02*
X11080000Y-6020000D01*
X11120000Y-5100000D02*
X11160000Y-5140000D01*
X11160000Y-5100000D02*
X11120000Y-5140000D01*
X11140000Y-11340000D02*
X11180000Y-11380000D01*
X11180000Y-11340000D02*
X11140000Y-11380000D01*
X11200000Y-5680000D02*
X11240000Y-5720000D01*
X11240000Y-5680000D02*
X11200000Y-5720000D01*
X11280000Y-12000000D02*
X11320000Y-12040000D01*
X11320000Y-12000000D02*
X11280000Y-12040000D01*
X11358455Y-12574064D02*
X11398455Y-12614064D01*
X11398455Y-12574064D02*
X11358455Y-12614064D01*
X11460000Y-7880000D02*
X11500000Y-7920000D01*
X11500000Y-7880000D02*
X11460000Y-7920000D01*
X11460000Y-11800000D02*
X11500000Y-11840000D01*
X11500000Y-11800000D02*
X11460000Y-11840000D01*
X11466943Y-7382335D02*
X11506943Y-7422335D01*
X11506943Y-7382335D02*
X11466943Y-7422335D01*
X11480000Y-12580000D02*
X11520000Y-12620000D01*
X11520000Y-12580000D02*
X11480000Y-12620000D01*
X11480000Y-14230000D02*
X11520000Y-14270000D01*
X11520000Y-14230000D02*
X11480000Y-14270000D01*
X11570214Y-7468394D02*
X11610214Y-7508394D01*
X11610214Y-7468394D02*
X11570214Y-7508394D01*
X11572500Y-8352688D02*
X11612500Y-8392688D01*
X11612500Y-8352688D02*
X11572500Y-8392688D01*
X11572500Y-8852688D02*
X11612500Y-8892688D01*
X11612500Y-8852688D02*
X11572500Y-8892688D01*
X11572500Y-9352688D02*
X11612500Y-9392688D01*
X11612500Y-9352688D02*
X11572500Y-9392688D01*
X11572500Y-9852688D02*
X11612500Y-9892688D01*
X11612500Y-9852688D02*
X11572500Y-9892688D01*
X11572500Y-10352688D02*
X11612500Y-10392688D01*
X11612500Y-10352688D02*
X11572500Y-10392688D01*
X11572500Y-10852688D02*
X11612500Y-10892688D01*
X11612500Y-10852688D02*
X11572500Y-10892688D01*
X11572500Y-12352688D02*
X11612500Y-12392688D01*
X11612500Y-12352688D02*
X11572500Y-12392688D01*
X11730000Y-4480000D02*
X11770000Y-4520000D01*
X11770000Y-4480000D02*
X11730000Y-4520000D01*
X11730000Y-5230000D02*
X11770000Y-5270000D01*
X11770000Y-5230000D02*
X11730000Y-5270000D01*
X11730000Y-5480000D02*
X11770000Y-5520000D01*
X11770000Y-5480000D02*
X11730000Y-5520000D01*
X11730000Y-5980000D02*
X11770000Y-6020000D01*
X11770000Y-5980000D02*
X11730000Y-6020000D01*
X11730000Y-6480000D02*
X11770000Y-6520000D01*
X11770000Y-6480000D02*
X11730000Y-6520000D01*
X11760000Y-7880000D02*
X11800000Y-7920000D01*
X11800000Y-7880000D02*
X11760000Y-7920000D01*
X11980000Y-4480000D02*
X12020000Y-4520000D01*
X12020000Y-4480000D02*
X11980000Y-4520000D01*
X11994772Y-7479868D02*
X12034772Y-7519868D01*
X12034772Y-7479868D02*
X11994772Y-7519868D01*
X12033574Y-8971962D02*
X12073574Y-9011962D01*
X12073574Y-8971962D02*
X12033574Y-9011962D01*
X12040000Y-12000000D02*
X12080000Y-12040000D01*
X12080000Y-12000000D02*
X12040000Y-12040000D01*
X12072500Y-10852688D02*
X12112500Y-10892688D01*
X12112500Y-10852688D02*
X12072500Y-10892688D01*
X12072500Y-11352688D02*
X12112500Y-11392688D01*
X12112500Y-11352688D02*
X12072500Y-11392688D01*
X12072500Y-12352688D02*
X12112500Y-12392688D01*
X12112500Y-12352688D02*
X12072500Y-12392688D01*
X12093434Y-12581319D02*
X12133434Y-12621319D01*
X12133434Y-12581319D02*
X12093434Y-12621319D01*
X12240000Y-11800000D02*
X12280000Y-11840000D01*
X12280000Y-11800000D02*
X12240000Y-11840000D01*
X12270161Y-7336436D02*
X12310161Y-7376436D01*
X12310161Y-7336436D02*
X12270161Y-7376436D01*
X12366104Y-5942711D02*
X12406104Y-5982711D01*
X12406104Y-5942711D02*
X12366104Y-5982711D01*
X12366104Y-6454391D02*
X12406104Y-6494391D01*
X12406104Y-6454391D02*
X12366104Y-6494391D01*
X12376144Y-6065514D02*
X12416144Y-6105514D01*
X12416144Y-6065514D02*
X12376144Y-6105514D01*
X12376144Y-6585514D02*
X12416144Y-6625514D01*
X12416144Y-6585514D02*
X12376144Y-6625514D01*
X12378004Y-7480000D02*
X12418004Y-7520000D01*
X12418004Y-7480000D02*
X12378004Y-7520000D01*
X12379704Y-6196001D02*
X12419704Y-6236001D01*
X12419704Y-6196001D02*
X12379704Y-6236001D01*
X12396144Y-5825514D02*
X12436144Y-5865514D01*
X12436144Y-5825514D02*
X12396144Y-5865514D01*
X12396144Y-6325514D02*
X12436144Y-6365514D01*
X12436144Y-6325514D02*
X12396144Y-6365514D01*
X12480000Y-4480000D02*
X12520000Y-4520000D01*
X12520000Y-4480000D02*
X12480000Y-4520000D01*
X12480000Y-12580000D02*
X12520000Y-12620000D01*
X12520000Y-12580000D02*
X12480000Y-12620000D01*
X12480000Y-14230000D02*
X12520000Y-14270000D01*
X12520000Y-14230000D02*
X12480000Y-14270000D01*
X12510000Y-6610000D02*
X12550000Y-6650000D01*
X12550000Y-6610000D02*
X12510000Y-6650000D01*
X12522601Y-7474131D02*
X12562601Y-7514131D01*
X12562601Y-7474131D02*
X12522601Y-7514131D01*
X12533574Y-8971962D02*
X12573574Y-9011962D01*
X12573574Y-8971962D02*
X12533574Y-9011962D01*
X12572500Y-10852688D02*
X12612500Y-10892688D01*
X12612500Y-10852688D02*
X12572500Y-10892688D01*
X12572500Y-11352688D02*
X12612500Y-11392688D01*
X12612500Y-11352688D02*
X12572500Y-11392688D01*
X12572500Y-12352688D02*
X12612500Y-12392688D01*
X12612500Y-12352688D02*
X12572500Y-12392688D01*
X12578596Y-6726380D02*
X12618596Y-6766380D01*
X12618596Y-6726380D02*
X12578596Y-6766380D01*
X12630000Y-6610000D02*
X12670000Y-6650000D01*
X12670000Y-6610000D02*
X12630000Y-6650000D01*
X12654639Y-7730000D02*
X12694639Y-7770000D01*
X12694639Y-7730000D02*
X12654639Y-7770000D01*
X12700000Y-8080000D02*
X12740000Y-8120000D01*
X12740000Y-8080000D02*
X12700000Y-8120000D01*
X12750000Y-6610000D02*
X12790000Y-6650000D01*
X12790000Y-6610000D02*
X12750000Y-6650000D01*
X12760000Y-7860000D02*
X12800000Y-7900000D01*
X12800000Y-7860000D02*
X12760000Y-7900000D01*
X12760000Y-8420000D02*
X12800000Y-8460000D01*
X12800000Y-8420000D02*
X12760000Y-8460000D01*
X12815202Y-7365123D02*
X12855202Y-7405123D01*
X12855202Y-7365123D02*
X12815202Y-7405123D01*
X12823386Y-6716181D02*
X12863386Y-6756181D01*
X12863386Y-6716181D02*
X12823386Y-6756181D01*
X12840000Y-12020000D02*
X12880000Y-12060000D01*
X12880000Y-12020000D02*
X12840000Y-12060000D01*
X12870000Y-6610000D02*
X12910000Y-6650000D01*
X12910000Y-6610000D02*
X12870000Y-6650000D01*
X12883214Y-7467360D02*
X12923214Y-7507360D01*
X12923214Y-7467360D02*
X12883214Y-7507360D01*
X12954639Y-8390000D02*
X12994639Y-8430000D01*
X12994639Y-8390000D02*
X12954639Y-8430000D01*
X12980000Y-4480000D02*
X13020000Y-4520000D01*
X13020000Y-4480000D02*
X12980000Y-4520000D01*
X12998381Y-5734267D02*
X13038381Y-5774267D01*
X13038381Y-5734267D02*
X12998381Y-5774267D01*
X13020000Y-11820000D02*
X13060000Y-11860000D01*
X13060000Y-11820000D02*
X13020000Y-11860000D01*
X13033574Y-8971962D02*
X13073574Y-9011962D01*
X13073574Y-8971962D02*
X13033574Y-9011962D01*
X13072500Y-4852688D02*
X13112500Y-4892688D01*
X13112500Y-4852688D02*
X13072500Y-4892688D01*
X13072500Y-10852688D02*
X13112500Y-10892688D01*
X13112500Y-10852688D02*
X13072500Y-10892688D01*
X13072500Y-12352688D02*
X13112500Y-12392688D01*
X13112500Y-12352688D02*
X13072500Y-12392688D01*
X13080963Y-6341793D02*
X13120963Y-6381793D01*
X13120963Y-6341793D02*
X13080963Y-6381793D01*
X13110000Y-7570000D02*
X13150000Y-7610000D01*
X13150000Y-7570000D02*
X13110000Y-7610000D01*
X13132537Y-7800264D02*
X13172537Y-7840264D01*
X13172537Y-7800264D02*
X13132537Y-7840264D01*
X13174639Y-8310000D02*
X13214639Y-8350000D01*
X13214639Y-8310000D02*
X13174639Y-8350000D01*
X13188872Y-6569986D02*
X13228872Y-6609986D01*
X13228872Y-6569986D02*
X13188872Y-6609986D01*
X13210000Y-6350000D02*
X13250000Y-6390000D01*
X13250000Y-6350000D02*
X13210000Y-6390000D01*
X13230000Y-7530000D02*
X13270000Y-7570000D01*
X13270000Y-7530000D02*
X13230000Y-7570000D01*
X13280000Y-5734267D02*
X13320000Y-5774267D01*
X13320000Y-5734267D02*
X13280000Y-5774267D01*
X13288644Y-5388644D02*
X13328644Y-5428644D01*
X13328644Y-5388644D02*
X13288644Y-5428644D01*
X13319246Y-7429112D02*
X13359246Y-7469112D01*
X13359246Y-7429112D02*
X13319246Y-7469112D01*
X13330000Y-6350000D02*
X13370000Y-6390000D01*
X13370000Y-6350000D02*
X13330000Y-6390000D01*
X13360000Y-12720000D02*
X13400000Y-12760000D01*
X13400000Y-12720000D02*
X13360000Y-12760000D01*
X13407420Y-7344924D02*
X13447420Y-7384924D01*
X13447420Y-7344924D02*
X13407420Y-7384924D01*
X13480000Y-4730000D02*
X13520000Y-4770000D01*
X13520000Y-4730000D02*
X13480000Y-4770000D01*
X13480000Y-6730000D02*
X13520000Y-6770000D01*
X13520000Y-6730000D02*
X13480000Y-6770000D01*
X13480000Y-14230000D02*
X13520000Y-14270000D01*
X13520000Y-14230000D02*
X13480000Y-14270000D01*
X13572500Y-4852688D02*
X13612500Y-4892688D01*
X13612500Y-4852688D02*
X13572500Y-4892688D01*
X13572500Y-6352688D02*
X13612500Y-6392688D01*
X13612500Y-6352688D02*
X13572500Y-6392688D01*
X13572500Y-7852688D02*
X13612500Y-7892688D01*
X13612500Y-7852688D02*
X13572500Y-7892688D01*
X13572500Y-8352688D02*
X13612500Y-8392688D01*
X13612500Y-8352688D02*
X13572500Y-8392688D01*
X13572500Y-8852688D02*
X13612500Y-8892688D01*
X13612500Y-8852688D02*
X13572500Y-8892688D01*
X13572500Y-9352688D02*
X13612500Y-9392688D01*
X13612500Y-9352688D02*
X13572500Y-9392688D01*
X13572500Y-9852688D02*
X13612500Y-9892688D01*
X13612500Y-9852688D02*
X13572500Y-9892688D01*
X13572500Y-10352688D02*
X13612500Y-10392688D01*
X13612500Y-10352688D02*
X13572500Y-10392688D01*
X13572500Y-10852688D02*
X13612500Y-10892688D01*
X13612500Y-10852688D02*
X13572500Y-10892688D01*
X13572500Y-11352688D02*
X13612500Y-11392688D01*
X13612500Y-11352688D02*
X13572500Y-11392688D01*
X13572500Y-11852688D02*
X13612500Y-11892688D01*
X13612500Y-11852688D02*
X13572500Y-11892688D01*
X13572500Y-12352688D02*
X13612500Y-12392688D01*
X13612500Y-12352688D02*
X13572500Y-12392688D01*
X13572500Y-12852688D02*
X13612500Y-12892688D01*
X13612500Y-12852688D02*
X13572500Y-12892688D01*
X13572500Y-13352688D02*
X13612500Y-13392688D01*
X13612500Y-13352688D02*
X13572500Y-13392688D01*
X13586986Y-7242969D02*
X13626986Y-7282969D01*
X13626986Y-7242969D02*
X13586986Y-7282969D01*
X13730000Y-4480000D02*
X13770000Y-4520000D01*
X13770000Y-4480000D02*
X13730000Y-4520000D01*
X13730000Y-6480000D02*
X13770000Y-6520000D01*
X13770000Y-6480000D02*
X13730000Y-6520000D01*
X13730000Y-7230000D02*
X13770000Y-7270000D01*
X13770000Y-7230000D02*
X13730000Y-7270000D01*
X13730000Y-7730000D02*
X13770000Y-7770000D01*
X13770000Y-7730000D02*
X13730000Y-7770000D01*
X13980000Y-5730000D02*
X14020000Y-5770000D01*
X14020000Y-5730000D02*
X13980000Y-5770000D01*
X13980000Y-6230000D02*
X14020000Y-6270000D01*
X14020000Y-6230000D02*
X13980000Y-6270000D01*
X13980000Y-6730000D02*
X14020000Y-6770000D01*
X14020000Y-6730000D02*
X13980000Y-6770000D01*
X13980000Y-7230000D02*
X14020000Y-7270000D01*
X14020000Y-7230000D02*
X13980000Y-7270000D01*
X13980000Y-7730000D02*
X14020000Y-7770000D01*
X14020000Y-7730000D02*
X13980000Y-7770000D01*
X13980000Y-14230000D02*
X14020000Y-14270000D01*
X14020000Y-14230000D02*
X13980000Y-14270000D01*
X14072500Y-4852688D02*
X14112500Y-4892688D01*
X14112500Y-4852688D02*
X14072500Y-4892688D01*
X14072500Y-8852688D02*
X14112500Y-8892688D01*
X14112500Y-8852688D02*
X14072500Y-8892688D01*
X14072500Y-10352688D02*
X14112500Y-10392688D01*
X14112500Y-10352688D02*
X14072500Y-10392688D01*
X14072500Y-11352688D02*
X14112500Y-11392688D01*
X14112500Y-11352688D02*
X14072500Y-11392688D01*
X14072500Y-12852688D02*
X14112500Y-12892688D01*
X14112500Y-12852688D02*
X14072500Y-12892688D01*
X14072500Y-13352688D02*
X14112500Y-13392688D01*
X14112500Y-13352688D02*
X14072500Y-13392688D01*
X14230000Y-4480000D02*
X14270000Y-4520000D01*
X14270000Y-4480000D02*
X14230000Y-4520000D01*
X14572500Y-5852688D02*
X14612500Y-5892688D01*
X14612500Y-5852688D02*
X14572500Y-5892688D01*
X14572500Y-6352688D02*
X14612500Y-6392688D01*
X14612500Y-6352688D02*
X14572500Y-6392688D01*
X14572500Y-7352688D02*
X14612500Y-7392688D01*
X14612500Y-7352688D02*
X14572500Y-7392688D01*
X14572500Y-7852688D02*
X14612500Y-7892688D01*
X14612500Y-7852688D02*
X14572500Y-7892688D01*
X14572500Y-8352688D02*
X14612500Y-8392688D01*
X14612500Y-8352688D02*
X14572500Y-8392688D01*
X14572500Y-9352688D02*
X14612500Y-9392688D01*
X14612500Y-9352688D02*
X14572500Y-9392688D01*
X14572500Y-9852688D02*
X14612500Y-9892688D01*
X14612500Y-9852688D02*
X14572500Y-9892688D01*
X14572500Y-10352688D02*
X14612500Y-10392688D01*
X14612500Y-10352688D02*
X14572500Y-10392688D01*
X14572500Y-10852688D02*
X14612500Y-10892688D01*
X14612500Y-10852688D02*
X14572500Y-10892688D01*
X14572500Y-11352688D02*
X14612500Y-11392688D01*
X14612500Y-11352688D02*
X14572500Y-11392688D01*
X14572500Y-11852688D02*
X14612500Y-11892688D01*
X14612500Y-11852688D02*
X14572500Y-11892688D01*
X14572500Y-12352688D02*
X14612500Y-12392688D01*
X14612500Y-12352688D02*
X14572500Y-12392688D01*
X14572500Y-12852688D02*
X14612500Y-12892688D01*
X14612500Y-12852688D02*
X14572500Y-12892688D01*
X14697357Y-6833271D02*
X14737357Y-6873271D01*
X14737357Y-6833271D02*
X14697357Y-6873271D01*
X14942279Y-13488903D02*
X14982279Y-13528903D01*
X14982279Y-13488903D02*
X14942279Y-13528903D01*
X14980000Y-5420000D02*
X15020000Y-5460000D01*
X15020000Y-5420000D02*
X14980000Y-5460000D01*
X14980000Y-5730000D02*
X15020000Y-5770000D01*
X15020000Y-5730000D02*
X14980000Y-5770000D01*
X14980000Y-6480000D02*
X15020000Y-6520000D01*
X15020000Y-6480000D02*
X14980000Y-6520000D01*
X14980000Y-7230000D02*
X15020000Y-7270000D01*
X15020000Y-7230000D02*
X14980000Y-7270000D01*
X14980000Y-7980000D02*
X15020000Y-8020000D01*
X15020000Y-7980000D02*
X14980000Y-8020000D01*
X14980000Y-8980000D02*
X15020000Y-9020000D01*
X15020000Y-8980000D02*
X14980000Y-9020000D01*
X14980000Y-9730000D02*
X15020000Y-9770000D01*
X15020000Y-9730000D02*
X14980000Y-9770000D01*
X14980000Y-10480000D02*
X15020000Y-10520000D01*
X15020000Y-10480000D02*
X14980000Y-10520000D01*
X14980000Y-11230000D02*
X15020000Y-11270000D01*
X15020000Y-11230000D02*
X14980000Y-11270000D01*
X14980000Y-11730000D02*
X15020000Y-11770000D01*
X15020000Y-11730000D02*
X14980000Y-11770000D01*
X14980000Y-12230000D02*
X15020000Y-12270000D01*
X15020000Y-12230000D02*
X14980000Y-12270000D01*
X14980000Y-12730000D02*
X15020000Y-12770000D01*
X15020000Y-12730000D02*
X14980000Y-12770000D01*
X14980000Y-13230000D02*
X15020000Y-13270000D01*
X15020000Y-13230000D02*
X14980000Y-13270000D01*
X14980000Y-13730000D02*
X15020000Y-13770000D01*
X15020000Y-13730000D02*
X14980000Y-13770000D01*
X6806000Y-8560000D02*
G75*
G02*
X6726000Y-8560000I-40000J0D01*
G01*
X6726000Y-8560000D02*
G75*
G02*
X6806000Y-8560000I40000J0D01*
G01*
X7060000Y-8560000D02*
G75*
G02*
X6980000Y-8560000I-40000J0D01*
G01*
X6980000Y-8560000D02*
G75*
G02*
X7060000Y-8560000I40000J0D01*
G01*
X7190000Y-12650000D02*
G75*
G02*
X7110000Y-12650000I-40000J0D01*
G01*
X7110000Y-12650000D02*
G75*
G02*
X7190000Y-12650000I40000J0D01*
G01*
X7190000Y-12904000D02*
G75*
G02*
X7110000Y-12904000I-40000J0D01*
G01*
X7110000Y-12904000D02*
G75*
G02*
X7190000Y-12904000I40000J0D01*
G01*
X8040000Y-12646000D02*
G75*
G02*
X7960000Y-12646000I-40000J0D01*
G01*
X7960000Y-12646000D02*
G75*
G02*
X8040000Y-12646000I40000J0D01*
G01*
X8040000Y-12900000D02*
G75*
G02*
X7960000Y-12900000I-40000J0D01*
G01*
X7960000Y-12900000D02*
G75*
G02*
X8040000Y-12900000I40000J0D01*
G01*
X8421632Y-9905728D02*
G75*
G02*
X8341632Y-9905728I-40000J0D01*
G01*
X8341632Y-9905728D02*
G75*
G02*
X8421632Y-9905728I40000J0D01*
G01*
X8421632Y-10159728D02*
G75*
G02*
X8341632Y-10159728I-40000J0D01*
G01*
X8341632Y-10159728D02*
G75*
G02*
X8421632Y-10159728I40000J0D01*
G01*
X8421632Y-10413728D02*
G75*
G02*
X8341632Y-10413728I-40000J0D01*
G01*
X8341632Y-10413728D02*
G75*
G02*
X8421632Y-10413728I40000J0D01*
G01*
X8422000Y-5080000D02*
G75*
G02*
X8342000Y-5080000I-40000J0D01*
G01*
X8342000Y-5080000D02*
G75*
G02*
X8422000Y-5080000I40000J0D01*
G01*
X8422000Y-5334000D02*
G75*
G02*
X8342000Y-5334000I-40000J0D01*
G01*
X8342000Y-5334000D02*
G75*
G02*
X8422000Y-5334000I40000J0D01*
G01*
X8422000Y-5588000D02*
G75*
G02*
X8342000Y-5588000I-40000J0D01*
G01*
X8342000Y-5588000D02*
G75*
G02*
X8422000Y-5588000I40000J0D01*
G01*
X8422000Y-5842000D02*
G75*
G02*
X8342000Y-5842000I-40000J0D01*
G01*
X8342000Y-5842000D02*
G75*
G02*
X8422000Y-5842000I40000J0D01*
G01*
X8422000Y-6096000D02*
G75*
G02*
X8342000Y-6096000I-40000J0D01*
G01*
X8342000Y-6096000D02*
G75*
G02*
X8422000Y-6096000I40000J0D01*
G01*
X8422000Y-6350000D02*
G75*
G02*
X8342000Y-6350000I-40000J0D01*
G01*
X8342000Y-6350000D02*
G75*
G02*
X8422000Y-6350000I40000J0D01*
G01*
X8422000Y-6604000D02*
G75*
G02*
X8342000Y-6604000I-40000J0D01*
G01*
X8342000Y-6604000D02*
G75*
G02*
X8422000Y-6604000I40000J0D01*
G01*
X8422000Y-6858000D02*
G75*
G02*
X8342000Y-6858000I-40000J0D01*
G01*
X8342000Y-6858000D02*
G75*
G02*
X8422000Y-6858000I40000J0D01*
G01*
X8422000Y-7112000D02*
G75*
G02*
X8342000Y-7112000I-40000J0D01*
G01*
X8342000Y-7112000D02*
G75*
G02*
X8422000Y-7112000I40000J0D01*
G01*
X8422000Y-7366000D02*
G75*
G02*
X8342000Y-7366000I-40000J0D01*
G01*
X8342000Y-7366000D02*
G75*
G02*
X8422000Y-7366000I40000J0D01*
G01*
X8422000Y-7620000D02*
G75*
G02*
X8342000Y-7620000I-40000J0D01*
G01*
X8342000Y-7620000D02*
G75*
G02*
X8422000Y-7620000I40000J0D01*
G01*
X8422000Y-7874000D02*
G75*
G02*
X8342000Y-7874000I-40000J0D01*
G01*
X8342000Y-7874000D02*
G75*
G02*
X8422000Y-7874000I40000J0D01*
G01*
X8422000Y-8128000D02*
G75*
G02*
X8342000Y-8128000I-40000J0D01*
G01*
X8342000Y-8128000D02*
G75*
G02*
X8422000Y-8128000I40000J0D01*
G01*
X8422000Y-8382000D02*
G75*
G02*
X8342000Y-8382000I-40000J0D01*
G01*
X8342000Y-8382000D02*
G75*
G02*
X8422000Y-8382000I40000J0D01*
G01*
X8422000Y-8636000D02*
G75*
G02*
X8342000Y-8636000I-40000J0D01*
G01*
X8342000Y-8636000D02*
G75*
G02*
X8422000Y-8636000I40000J0D01*
G01*
X8422000Y-8890000D02*
G75*
G02*
X8342000Y-8890000I-40000J0D01*
G01*
X8342000Y-8890000D02*
G75*
G02*
X8422000Y-8890000I40000J0D01*
G01*
X8422000Y-9144000D02*
G75*
G02*
X8342000Y-9144000I-40000J0D01*
G01*
X8342000Y-9144000D02*
G75*
G02*
X8422000Y-9144000I40000J0D01*
G01*
X8422000Y-9398000D02*
G75*
G02*
X8342000Y-9398000I-40000J0D01*
G01*
X8342000Y-9398000D02*
G75*
G02*
X8422000Y-9398000I40000J0D01*
G01*
X8422000Y-9652000D02*
G75*
G02*
X8342000Y-9652000I-40000J0D01*
G01*
X8342000Y-9652000D02*
G75*
G02*
X8422000Y-9652000I40000J0D01*
G01*
X8890000Y-12625000D02*
G75*
G02*
X8810000Y-12625000I-40000J0D01*
G01*
X8810000Y-12625000D02*
G75*
G02*
X8890000Y-12625000I40000J0D01*
G01*
X8890000Y-12879000D02*
G75*
G02*
X8810000Y-12879000I-40000J0D01*
G01*
X8810000Y-12879000D02*
G75*
G02*
X8890000Y-12879000I40000J0D01*
G01*
X9740000Y-12146000D02*
G75*
G02*
X9660000Y-12146000I-40000J0D01*
G01*
X9660000Y-12146000D02*
G75*
G02*
X9740000Y-12146000I40000J0D01*
G01*
X9740000Y-12400000D02*
G75*
G02*
X9660000Y-12400000I-40000J0D01*
G01*
X9660000Y-12400000D02*
G75*
G02*
X9740000Y-12400000I40000J0D01*
G01*
X9740000Y-12695000D02*
G75*
G02*
X9660000Y-12695000I-40000J0D01*
G01*
X9660000Y-12695000D02*
G75*
G02*
X9740000Y-12695000I40000J0D01*
G01*
X9740000Y-12949000D02*
G75*
G02*
X9660000Y-12949000I-40000J0D01*
G01*
X9660000Y-12949000D02*
G75*
G02*
X9740000Y-12949000I40000J0D01*
G01*
X10440000Y-12200000D02*
G75*
G02*
X10360000Y-12200000I-40000J0D01*
G01*
X10360000Y-12200000D02*
G75*
G02*
X10440000Y-12200000I40000J0D01*
G01*
X10440000Y-12454000D02*
G75*
G02*
X10360000Y-12454000I-40000J0D01*
G01*
X10360000Y-12454000D02*
G75*
G02*
X10440000Y-12454000I40000J0D01*
G01*
X10440000Y-12746000D02*
G75*
G02*
X10360000Y-12746000I-40000J0D01*
G01*
X10360000Y-12746000D02*
G75*
G02*
X10440000Y-12746000I40000J0D01*
G01*
X10440000Y-13000000D02*
G75*
G02*
X10360000Y-13000000I-40000J0D01*
G01*
X10360000Y-13000000D02*
G75*
G02*
X10440000Y-13000000I40000J0D01*
G01*
X10708000Y-5080000D02*
G75*
G02*
X10628000Y-5080000I-40000J0D01*
G01*
X10628000Y-5080000D02*
G75*
G02*
X10708000Y-5080000I40000J0D01*
G01*
X10708000Y-5334000D02*
G75*
G02*
X10628000Y-5334000I-40000J0D01*
G01*
X10628000Y-5334000D02*
G75*
G02*
X10708000Y-5334000I40000J0D01*
G01*
X10708000Y-5588000D02*
G75*
G02*
X10628000Y-5588000I-40000J0D01*
G01*
X10628000Y-5588000D02*
G75*
G02*
X10708000Y-5588000I40000J0D01*
G01*
X10708000Y-5842000D02*
G75*
G02*
X10628000Y-5842000I-40000J0D01*
G01*
X10628000Y-5842000D02*
G75*
G02*
X10708000Y-5842000I40000J0D01*
G01*
X10708000Y-6096000D02*
G75*
G02*
X10628000Y-6096000I-40000J0D01*
G01*
X10628000Y-6096000D02*
G75*
G02*
X10708000Y-6096000I40000J0D01*
G01*
X10708000Y-6350000D02*
G75*
G02*
X10628000Y-6350000I-40000J0D01*
G01*
X10628000Y-6350000D02*
G75*
G02*
X10708000Y-6350000I40000J0D01*
G01*
X10708000Y-6604000D02*
G75*
G02*
X10628000Y-6604000I-40000J0D01*
G01*
X10628000Y-6604000D02*
G75*
G02*
X10708000Y-6604000I40000J0D01*
G01*
X10708000Y-6858000D02*
G75*
G02*
X10628000Y-6858000I-40000J0D01*
G01*
X10628000Y-6858000D02*
G75*
G02*
X10708000Y-6858000I40000J0D01*
G01*
X10708000Y-7112000D02*
G75*
G02*
X10628000Y-7112000I-40000J0D01*
G01*
X10628000Y-7112000D02*
G75*
G02*
X10708000Y-7112000I40000J0D01*
G01*
X10708000Y-7366000D02*
G75*
G02*
X10628000Y-7366000I-40000J0D01*
G01*
X10628000Y-7366000D02*
G75*
G02*
X10708000Y-7366000I40000J0D01*
G01*
X10708000Y-7620000D02*
G75*
G02*
X10628000Y-7620000I-40000J0D01*
G01*
X10628000Y-7620000D02*
G75*
G02*
X10708000Y-7620000I40000J0D01*
G01*
X10708000Y-7874000D02*
G75*
G02*
X10628000Y-7874000I-40000J0D01*
G01*
X10628000Y-7874000D02*
G75*
G02*
X10708000Y-7874000I40000J0D01*
G01*
X10708000Y-8128000D02*
G75*
G02*
X10628000Y-8128000I-40000J0D01*
G01*
X10628000Y-8128000D02*
G75*
G02*
X10708000Y-8128000I40000J0D01*
G01*
X10708000Y-8382000D02*
G75*
G02*
X10628000Y-8382000I-40000J0D01*
G01*
X10628000Y-8382000D02*
G75*
G02*
X10708000Y-8382000I40000J0D01*
G01*
X10708000Y-8636000D02*
G75*
G02*
X10628000Y-8636000I-40000J0D01*
G01*
X10628000Y-8636000D02*
G75*
G02*
X10708000Y-8636000I40000J0D01*
G01*
X10708000Y-8890000D02*
G75*
G02*
X10628000Y-8890000I-40000J0D01*
G01*
X10628000Y-8890000D02*
G75*
G02*
X10708000Y-8890000I40000J0D01*
G01*
X10708000Y-9144000D02*
G75*
G02*
X10628000Y-9144000I-40000J0D01*
G01*
X10628000Y-9144000D02*
G75*
G02*
X10708000Y-9144000I40000J0D01*
G01*
X10708000Y-9398000D02*
G75*
G02*
X10628000Y-9398000I-40000J0D01*
G01*
X10628000Y-9398000D02*
G75*
G02*
X10708000Y-9398000I40000J0D01*
G01*
X10708000Y-9652000D02*
G75*
G02*
X10628000Y-9652000I-40000J0D01*
G01*
X10628000Y-9652000D02*
G75*
G02*
X10708000Y-9652000I40000J0D01*
G01*
X10708000Y-9906000D02*
G75*
G02*
X10628000Y-9906000I-40000J0D01*
G01*
X10628000Y-9906000D02*
G75*
G02*
X10708000Y-9906000I40000J0D01*
G01*
X10708000Y-10160000D02*
G75*
G02*
X10628000Y-10160000I-40000J0D01*
G01*
X10628000Y-10160000D02*
G75*
G02*
X10708000Y-10160000I40000J0D01*
G01*
X10708000Y-10414000D02*
G75*
G02*
X10628000Y-10414000I-40000J0D01*
G01*
X10628000Y-10414000D02*
G75*
G02*
X10708000Y-10414000I40000J0D01*
G01*
X10962000Y-5080000D02*
G75*
G02*
X10882000Y-5080000I-40000J0D01*
G01*
X10882000Y-5080000D02*
G75*
G02*
X10962000Y-5080000I40000J0D01*
G01*
X10962000Y-5334000D02*
G75*
G02*
X10882000Y-5334000I-40000J0D01*
G01*
X10882000Y-5334000D02*
G75*
G02*
X10962000Y-5334000I40000J0D01*
G01*
X10962000Y-5588000D02*
G75*
G02*
X10882000Y-5588000I-40000J0D01*
G01*
X10882000Y-5588000D02*
G75*
G02*
X10962000Y-5588000I40000J0D01*
G01*
X10962000Y-5842000D02*
G75*
G02*
X10882000Y-5842000I-40000J0D01*
G01*
X10882000Y-5842000D02*
G75*
G02*
X10962000Y-5842000I40000J0D01*
G01*
X10962000Y-6096000D02*
G75*
G02*
X10882000Y-6096000I-40000J0D01*
G01*
X10882000Y-6096000D02*
G75*
G02*
X10962000Y-6096000I40000J0D01*
G01*
X10962000Y-6350000D02*
G75*
G02*
X10882000Y-6350000I-40000J0D01*
G01*
X10882000Y-6350000D02*
G75*
G02*
X10962000Y-6350000I40000J0D01*
G01*
X10962000Y-6604000D02*
G75*
G02*
X10882000Y-6604000I-40000J0D01*
G01*
X10882000Y-6604000D02*
G75*
G02*
X10962000Y-6604000I40000J0D01*
G01*
X10962000Y-6858000D02*
G75*
G02*
X10882000Y-6858000I-40000J0D01*
G01*
X10882000Y-6858000D02*
G75*
G02*
X10962000Y-6858000I40000J0D01*
G01*
X10962000Y-7112000D02*
G75*
G02*
X10882000Y-7112000I-40000J0D01*
G01*
X10882000Y-7112000D02*
G75*
G02*
X10962000Y-7112000I40000J0D01*
G01*
X10962000Y-7366000D02*
G75*
G02*
X10882000Y-7366000I-40000J0D01*
G01*
X10882000Y-7366000D02*
G75*
G02*
X10962000Y-7366000I40000J0D01*
G01*
X10962000Y-7620000D02*
G75*
G02*
X10882000Y-7620000I-40000J0D01*
G01*
X10882000Y-7620000D02*
G75*
G02*
X10962000Y-7620000I40000J0D01*
G01*
X10962000Y-7874000D02*
G75*
G02*
X10882000Y-7874000I-40000J0D01*
G01*
X10882000Y-7874000D02*
G75*
G02*
X10962000Y-7874000I40000J0D01*
G01*
X10962000Y-8128000D02*
G75*
G02*
X10882000Y-8128000I-40000J0D01*
G01*
X10882000Y-8128000D02*
G75*
G02*
X10962000Y-8128000I40000J0D01*
G01*
X10962000Y-8382000D02*
G75*
G02*
X10882000Y-8382000I-40000J0D01*
G01*
X10882000Y-8382000D02*
G75*
G02*
X10962000Y-8382000I40000J0D01*
G01*
X10962000Y-8636000D02*
G75*
G02*
X10882000Y-8636000I-40000J0D01*
G01*
X10882000Y-8636000D02*
G75*
G02*
X10962000Y-8636000I40000J0D01*
G01*
X10962000Y-8890000D02*
G75*
G02*
X10882000Y-8890000I-40000J0D01*
G01*
X10882000Y-8890000D02*
G75*
G02*
X10962000Y-8890000I40000J0D01*
G01*
X10962000Y-9144000D02*
G75*
G02*
X10882000Y-9144000I-40000J0D01*
G01*
X10882000Y-9144000D02*
G75*
G02*
X10962000Y-9144000I40000J0D01*
G01*
X10962000Y-9398000D02*
G75*
G02*
X10882000Y-9398000I-40000J0D01*
G01*
X10882000Y-9398000D02*
G75*
G02*
X10962000Y-9398000I40000J0D01*
G01*
X10962000Y-9652000D02*
G75*
G02*
X10882000Y-9652000I-40000J0D01*
G01*
X10882000Y-9652000D02*
G75*
G02*
X10962000Y-9652000I40000J0D01*
G01*
X10962000Y-9906000D02*
G75*
G02*
X10882000Y-9906000I-40000J0D01*
G01*
X10882000Y-9906000D02*
G75*
G02*
X10962000Y-9906000I40000J0D01*
G01*
X10962000Y-10160000D02*
G75*
G02*
X10882000Y-10160000I-40000J0D01*
G01*
X10882000Y-10160000D02*
G75*
G02*
X10962000Y-10160000I40000J0D01*
G01*
X10962000Y-10414000D02*
G75*
G02*
X10882000Y-10414000I-40000J0D01*
G01*
X10882000Y-10414000D02*
G75*
G02*
X10962000Y-10414000I40000J0D01*
G01*
X11240000Y-12746000D02*
G75*
G02*
X11160000Y-12746000I-40000J0D01*
G01*
X11160000Y-12746000D02*
G75*
G02*
X11240000Y-12746000I40000J0D01*
G01*
X11240000Y-13000000D02*
G75*
G02*
X11160000Y-13000000I-40000J0D01*
G01*
X11160000Y-13000000D02*
G75*
G02*
X11240000Y-13000000I40000J0D01*
G01*
X11720000Y-7340000D02*
G75*
G02*
X11640000Y-7340000I-40000J0D01*
G01*
X11640000Y-7340000D02*
G75*
G02*
X11720000Y-7340000I40000J0D01*
G01*
X11974000Y-7340000D02*
G75*
G02*
X11894000Y-7340000I-40000J0D01*
G01*
X11894000Y-7340000D02*
G75*
G02*
X11974000Y-7340000I40000J0D01*
G01*
X12040000Y-12746000D02*
G75*
G02*
X11960000Y-12746000I-40000J0D01*
G01*
X11960000Y-12746000D02*
G75*
G02*
X12040000Y-12746000I40000J0D01*
G01*
X12040000Y-13000000D02*
G75*
G02*
X11960000Y-13000000I-40000J0D01*
G01*
X11960000Y-13000000D02*
G75*
G02*
X12040000Y-13000000I40000J0D01*
G01*
X12840000Y-12746000D02*
G75*
G02*
X12760000Y-12746000I-40000J0D01*
G01*
X12760000Y-12746000D02*
G75*
G02*
X12840000Y-12746000I40000J0D01*
G01*
X12840000Y-13000000D02*
G75*
G02*
X12760000Y-13000000I-40000J0D01*
G01*
X12760000Y-13000000D02*
G75*
G02*
X12840000Y-13000000I40000J0D01*
G01*
D13*
X5950000Y-5190000D02*
X5950000Y-5310000D01*
X5890000Y-5250000D02*
X6010000Y-5250000D01*
X5950000Y-5540000D02*
X5950000Y-5660000D01*
X5890000Y-5600000D02*
X6010000Y-5600000D01*
X5950000Y-5890000D02*
X5950000Y-6010000D01*
X5890000Y-5950000D02*
X6010000Y-5950000D01*
X5950000Y-6240000D02*
X5950000Y-6360000D01*
X5890000Y-6300000D02*
X6010000Y-6300000D01*
X5950000Y-6590000D02*
X5950000Y-6710000D01*
X5890000Y-6650000D02*
X6010000Y-6650000D01*
X5950000Y-6940000D02*
X5950000Y-7060000D01*
X5890000Y-7000000D02*
X6010000Y-7000000D01*
X5950000Y-7290000D02*
X5950000Y-7410000D01*
X5890000Y-7350000D02*
X6010000Y-7350000D01*
X5950000Y-7640000D02*
X5950000Y-7760000D01*
X5890000Y-7700000D02*
X6010000Y-7700000D01*
X5950000Y-7990000D02*
X5950000Y-8110000D01*
X5890000Y-8050000D02*
X6010000Y-8050000D01*
X5950000Y-8340000D02*
X5950000Y-8460000D01*
X5890000Y-8400000D02*
X6010000Y-8400000D01*
X5950000Y-9040000D02*
X5950000Y-9160000D01*
X5890000Y-9100000D02*
X6010000Y-9100000D01*
X5950000Y-9390000D02*
X5950000Y-9510000D01*
X5890000Y-9450000D02*
X6010000Y-9450000D01*
X5950000Y-9740000D02*
X5950000Y-9860000D01*
X5890000Y-9800000D02*
X6010000Y-9800000D01*
X5950000Y-10090000D02*
X5950000Y-10210000D01*
X5890000Y-10150000D02*
X6010000Y-10150000D01*
X5950000Y-10440000D02*
X5950000Y-10560000D01*
X5890000Y-10500000D02*
X6010000Y-10500000D01*
X5950000Y-10790000D02*
X5950000Y-10910000D01*
X5890000Y-10850000D02*
X6010000Y-10850000D01*
X5950000Y-11140000D02*
X5950000Y-11260000D01*
X5890000Y-11200000D02*
X6010000Y-11200000D01*
X5950000Y-11490000D02*
X5950000Y-11610000D01*
X5890000Y-11550000D02*
X6010000Y-11550000D01*
X5950000Y-11840000D02*
X5950000Y-11960000D01*
X5890000Y-11900000D02*
X6010000Y-11900000D01*
X5950000Y-12190000D02*
X5950000Y-12310000D01*
X5890000Y-12250000D02*
X6010000Y-12250000D01*
X6300000Y-13590000D02*
X6300000Y-13710000D01*
X6240000Y-13650000D02*
X6360000Y-13650000D01*
X6650000Y-13590000D02*
X6650000Y-13710000D01*
X6590000Y-13650000D02*
X6710000Y-13650000D01*
X7000000Y-13590000D02*
X7000000Y-13710000D01*
X6940000Y-13650000D02*
X7060000Y-13650000D01*
X7350000Y-13590000D02*
X7350000Y-13710000D01*
X7290000Y-13650000D02*
X7410000Y-13650000D01*
X7700000Y-13590000D02*
X7700000Y-13710000D01*
X7640000Y-13650000D02*
X7760000Y-13650000D01*
X8050000Y-13590000D02*
X8050000Y-13710000D01*
X7990000Y-13650000D02*
X8110000Y-13650000D01*
X8400000Y-13590000D02*
X8400000Y-13710000D01*
X8340000Y-13650000D02*
X8460000Y-13650000D01*
X8750000Y-13590000D02*
X8750000Y-13710000D01*
X8690000Y-13650000D02*
X8810000Y-13650000D01*
X9100000Y-13590000D02*
X9100000Y-13710000D01*
X9040000Y-13650000D02*
X9160000Y-13650000D01*
X9450000Y-13590000D02*
X9450000Y-13710000D01*
X9390000Y-13650000D02*
X9510000Y-13650000D01*
X10500000Y-13590000D02*
X10500000Y-13710000D01*
X10440000Y-13650000D02*
X10560000Y-13650000D01*
X10850000Y-13590000D02*
X10850000Y-13710000D01*
X10790000Y-13650000D02*
X10910000Y-13650000D01*
X11200000Y-13590000D02*
X11200000Y-13710000D01*
X11140000Y-13650000D02*
X11260000Y-13650000D01*
X11550000Y-13590000D02*
X11550000Y-13710000D01*
X11490000Y-13650000D02*
X11610000Y-13650000D01*
X11900000Y-13590000D02*
X11900000Y-13710000D01*
X11840000Y-13650000D02*
X11960000Y-13650000D01*
X12250000Y-13590000D02*
X12250000Y-13710000D01*
X12190000Y-13650000D02*
X12310000Y-13650000D01*
X12600000Y-13590000D02*
X12600000Y-13710000D01*
X12540000Y-13650000D02*
X12660000Y-13650000D01*
X12950000Y-13590000D02*
X12950000Y-13710000D01*
X12890000Y-13650000D02*
X13010000Y-13650000D01*
X13300000Y-13590000D02*
X13300000Y-13710000D01*
X13240000Y-13650000D02*
X13360000Y-13650000D01*
X13650000Y-13590000D02*
X13650000Y-13710000D01*
X13590000Y-13650000D02*
X13710000Y-13650000D01*
X14300000Y-5190000D02*
X14300000Y-5310000D01*
X14240000Y-5250000D02*
X14360000Y-5250000D01*
X14300000Y-5540000D02*
X14300000Y-5660000D01*
X14240000Y-5600000D02*
X14360000Y-5600000D01*
X14300000Y-5890000D02*
X14300000Y-6010000D01*
X14240000Y-5950000D02*
X14360000Y-5950000D01*
X14300000Y-6240000D02*
X14300000Y-6360000D01*
X14240000Y-6300000D02*
X14360000Y-6300000D01*
X14300000Y-6590000D02*
X14300000Y-6710000D01*
X14240000Y-6650000D02*
X14360000Y-6650000D01*
X14300000Y-6940000D02*
X14300000Y-7060000D01*
X14240000Y-7000000D02*
X14360000Y-7000000D01*
X14300000Y-7290000D02*
X14300000Y-7410000D01*
X14240000Y-7350000D02*
X14360000Y-7350000D01*
X14300000Y-7640000D02*
X14300000Y-7760000D01*
X14240000Y-7700000D02*
X14360000Y-7700000D01*
X14300000Y-7990000D02*
X14300000Y-8110000D01*
X14240000Y-8050000D02*
X14360000Y-8050000D01*
X14300000Y-8340000D02*
X14300000Y-8460000D01*
X14240000Y-8400000D02*
X14360000Y-8400000D01*
X14300000Y-9040000D02*
X14300000Y-9160000D01*
X14240000Y-9100000D02*
X14360000Y-9100000D01*
X14300000Y-9390000D02*
X14300000Y-9510000D01*
X14240000Y-9450000D02*
X14360000Y-9450000D01*
X14300000Y-9740000D02*
X14300000Y-9860000D01*
X14240000Y-9800000D02*
X14360000Y-9800000D01*
X14300000Y-10090000D02*
X14300000Y-10210000D01*
X14240000Y-10150000D02*
X14360000Y-10150000D01*
X14300000Y-10440000D02*
X14300000Y-10560000D01*
X14240000Y-10500000D02*
X14360000Y-10500000D01*
X14300000Y-10790000D02*
X14300000Y-10910000D01*
X14240000Y-10850000D02*
X14360000Y-10850000D01*
X14300000Y-11140000D02*
X14300000Y-11260000D01*
X14240000Y-11200000D02*
X14360000Y-11200000D01*
X14300000Y-11490000D02*
X14300000Y-11610000D01*
X14240000Y-11550000D02*
X14360000Y-11550000D01*
X14300000Y-11840000D02*
X14300000Y-11960000D01*
X14240000Y-11900000D02*
X14360000Y-11900000D01*
X14300000Y-12190000D02*
X14300000Y-12310000D01*
X14240000Y-12250000D02*
X14360000Y-12250000D01*
D14*
X5513138Y-4813138D02*
X5513138Y-4586862D01*
X5286862Y-4586862D01*
X5286862Y-4813138D01*
X5513138Y-4813138D01*
X5513138Y-14213138D02*
X5513138Y-13986862D01*
X5286862Y-13986862D01*
X5286862Y-14213138D01*
X5513138Y-14213138D01*
X14913138Y-4813138D02*
X14913138Y-4586862D01*
X14686862Y-4586862D01*
X14686862Y-4813138D01*
X14913138Y-4813138D01*
X14913138Y-14213138D02*
X14913138Y-13986862D01*
X14686862Y-13986862D01*
X14686862Y-14213138D01*
X14913138Y-14213138D01*
D11*
X5358277Y-14713984D02*
X5358277Y-14513984D01*
X5358277Y-14513984D02*
X5405896Y-14513984D01*
X5405896Y-14513984D02*
X5434467Y-14523508D01*
X5434467Y-14523508D02*
X5453515Y-14542555D01*
X5453515Y-14542555D02*
X5463039Y-14561603D01*
X5463039Y-14561603D02*
X5472563Y-14599698D01*
X5472563Y-14599698D02*
X5472563Y-14628269D01*
X5472563Y-14628269D02*
X5463039Y-14666365D01*
X5463039Y-14666365D02*
X5453515Y-14685412D01*
X5453515Y-14685412D02*
X5434467Y-14704460D01*
X5434467Y-14704460D02*
X5405896Y-14713984D01*
X5405896Y-14713984D02*
X5358277Y-14713984D01*
X5558277Y-14713984D02*
X5558277Y-14580650D01*
X5558277Y-14618746D02*
X5567801Y-14599698D01*
X5567801Y-14599698D02*
X5577324Y-14590174D01*
X5577324Y-14590174D02*
X5596372Y-14580650D01*
X5596372Y-14580650D02*
X5615420Y-14580650D01*
X5682086Y-14713984D02*
X5682086Y-14580650D01*
X5682086Y-14513984D02*
X5672562Y-14523508D01*
X5672562Y-14523508D02*
X5682086Y-14533031D01*
X5682086Y-14533031D02*
X5691610Y-14523508D01*
X5691610Y-14523508D02*
X5682086Y-14513984D01*
X5682086Y-14513984D02*
X5682086Y-14533031D01*
X5805896Y-14713984D02*
X5786848Y-14704460D01*
X5786848Y-14704460D02*
X5777324Y-14685412D01*
X5777324Y-14685412D02*
X5777324Y-14513984D01*
X5910658Y-14713984D02*
X5891610Y-14704460D01*
X5891610Y-14704460D02*
X5882086Y-14685412D01*
X5882086Y-14685412D02*
X5882086Y-14513984D01*
X6139229Y-14713984D02*
X6139229Y-14513984D01*
X6139229Y-14513984D02*
X6205896Y-14656841D01*
X6205896Y-14656841D02*
X6272562Y-14513984D01*
X6272562Y-14513984D02*
X6272562Y-14713984D01*
X6453515Y-14713984D02*
X6453515Y-14609222D01*
X6453515Y-14609222D02*
X6443991Y-14590174D01*
X6443991Y-14590174D02*
X6424943Y-14580650D01*
X6424943Y-14580650D02*
X6386848Y-14580650D01*
X6386848Y-14580650D02*
X6367801Y-14590174D01*
X6453515Y-14704460D02*
X6434467Y-14713984D01*
X6434467Y-14713984D02*
X6386848Y-14713984D01*
X6386848Y-14713984D02*
X6367801Y-14704460D01*
X6367801Y-14704460D02*
X6358277Y-14685412D01*
X6358277Y-14685412D02*
X6358277Y-14666365D01*
X6358277Y-14666365D02*
X6367801Y-14647317D01*
X6367801Y-14647317D02*
X6386848Y-14637793D01*
X6386848Y-14637793D02*
X6434467Y-14637793D01*
X6434467Y-14637793D02*
X6453515Y-14628269D01*
X6548753Y-14580650D02*
X6548753Y-14780650D01*
X6548753Y-14590174D02*
X6567801Y-14580650D01*
X6567801Y-14580650D02*
X6605896Y-14580650D01*
X6605896Y-14580650D02*
X6624943Y-14590174D01*
X6624943Y-14590174D02*
X6634467Y-14599698D01*
X6634467Y-14599698D02*
X6643991Y-14618746D01*
X6643991Y-14618746D02*
X6643991Y-14675888D01*
X6643991Y-14675888D02*
X6634467Y-14694936D01*
X6634467Y-14694936D02*
X6624943Y-14704460D01*
X6624943Y-14704460D02*
X6605896Y-14713984D01*
X6605896Y-14713984D02*
X6567801Y-14713984D01*
X6567801Y-14713984D02*
X6548753Y-14704460D01*
X6729705Y-14694936D02*
X6739229Y-14704460D01*
X6739229Y-14704460D02*
X6729705Y-14713984D01*
X6729705Y-14713984D02*
X6720182Y-14704460D01*
X6720182Y-14704460D02*
X6729705Y-14694936D01*
X6729705Y-14694936D02*
X6729705Y-14713984D01*
X6729705Y-14590174D02*
X6739229Y-14599698D01*
X6739229Y-14599698D02*
X6729705Y-14609222D01*
X6729705Y-14609222D02*
X6720182Y-14599698D01*
X6720182Y-14599698D02*
X6729705Y-14590174D01*
X6729705Y-14590174D02*
X6729705Y-14609222D01*
D12*
X5057500Y-15022500D02*
X5097500Y-15062500D01*
X5097500Y-15022500D02*
X5057500Y-15062500D01*
D11*
X5396372Y-14933984D02*
X5415420Y-14933984D01*
X5415420Y-14933984D02*
X5434467Y-14943508D01*
X5434467Y-14943508D02*
X5443991Y-14953031D01*
X5443991Y-14953031D02*
X5453515Y-14972079D01*
X5453515Y-14972079D02*
X5463039Y-15010174D01*
X5463039Y-15010174D02*
X5463039Y-15057793D01*
X5463039Y-15057793D02*
X5453515Y-15095888D01*
X5453515Y-15095888D02*
X5443991Y-15114936D01*
X5443991Y-15114936D02*
X5434467Y-15124460D01*
X5434467Y-15124460D02*
X5415420Y-15133984D01*
X5415420Y-15133984D02*
X5396372Y-15133984D01*
X5396372Y-15133984D02*
X5377324Y-15124460D01*
X5377324Y-15124460D02*
X5367801Y-15114936D01*
X5367801Y-15114936D02*
X5358277Y-15095888D01*
X5358277Y-15095888D02*
X5348753Y-15057793D01*
X5348753Y-15057793D02*
X5348753Y-15010174D01*
X5348753Y-15010174D02*
X5358277Y-14972079D01*
X5358277Y-14972079D02*
X5367801Y-14953031D01*
X5367801Y-14953031D02*
X5377324Y-14943508D01*
X5377324Y-14943508D02*
X5396372Y-14933984D01*
X5548753Y-15114936D02*
X5558277Y-15124460D01*
X5558277Y-15124460D02*
X5548753Y-15133984D01*
X5548753Y-15133984D02*
X5539229Y-15124460D01*
X5539229Y-15124460D02*
X5548753Y-15114936D01*
X5548753Y-15114936D02*
X5548753Y-15133984D01*
X5729705Y-15000650D02*
X5729705Y-15133984D01*
X5682086Y-14924460D02*
X5634467Y-15067317D01*
X5634467Y-15067317D02*
X5758277Y-15067317D01*
X5872562Y-14933984D02*
X5891610Y-14933984D01*
X5891610Y-14933984D02*
X5910658Y-14943508D01*
X5910658Y-14943508D02*
X5920182Y-14953031D01*
X5920182Y-14953031D02*
X5929705Y-14972079D01*
X5929705Y-14972079D02*
X5939229Y-15010174D01*
X5939229Y-15010174D02*
X5939229Y-15057793D01*
X5939229Y-15057793D02*
X5929705Y-15095888D01*
X5929705Y-15095888D02*
X5920182Y-15114936D01*
X5920182Y-15114936D02*
X5910658Y-15124460D01*
X5910658Y-15124460D02*
X5891610Y-15133984D01*
X5891610Y-15133984D02*
X5872562Y-15133984D01*
X5872562Y-15133984D02*
X5853515Y-15124460D01*
X5853515Y-15124460D02*
X5843991Y-15114936D01*
X5843991Y-15114936D02*
X5834467Y-15095888D01*
X5834467Y-15095888D02*
X5824943Y-15057793D01*
X5824943Y-15057793D02*
X5824943Y-15010174D01*
X5824943Y-15010174D02*
X5834467Y-14972079D01*
X5834467Y-14972079D02*
X5843991Y-14953031D01*
X5843991Y-14953031D02*
X5853515Y-14943508D01*
X5853515Y-14943508D02*
X5872562Y-14933984D01*
X6063039Y-14933984D02*
X6082086Y-14933984D01*
X6082086Y-14933984D02*
X6101134Y-14943508D01*
X6101134Y-14943508D02*
X6110658Y-14953031D01*
X6110658Y-14953031D02*
X6120182Y-14972079D01*
X6120182Y-14972079D02*
X6129705Y-15010174D01*
X6129705Y-15010174D02*
X6129705Y-15057793D01*
X6129705Y-15057793D02*
X6120182Y-15095888D01*
X6120182Y-15095888D02*
X6110658Y-15114936D01*
X6110658Y-15114936D02*
X6101134Y-15124460D01*
X6101134Y-15124460D02*
X6082086Y-15133984D01*
X6082086Y-15133984D02*
X6063039Y-15133984D01*
X6063039Y-15133984D02*
X6043991Y-15124460D01*
X6043991Y-15124460D02*
X6034467Y-15114936D01*
X6034467Y-15114936D02*
X6024943Y-15095888D01*
X6024943Y-15095888D02*
X6015420Y-15057793D01*
X6015420Y-15057793D02*
X6015420Y-15010174D01*
X6015420Y-15010174D02*
X6024943Y-14972079D01*
X6024943Y-14972079D02*
X6034467Y-14953031D01*
X6034467Y-14953031D02*
X6043991Y-14943508D01*
X6043991Y-14943508D02*
X6063039Y-14933984D01*
X6215420Y-15133984D02*
X6215420Y-15000650D01*
X6215420Y-15019698D02*
X6224943Y-15010174D01*
X6224943Y-15010174D02*
X6243991Y-15000650D01*
X6243991Y-15000650D02*
X6272563Y-15000650D01*
X6272563Y-15000650D02*
X6291610Y-15010174D01*
X6291610Y-15010174D02*
X6301134Y-15029222D01*
X6301134Y-15029222D02*
X6301134Y-15133984D01*
X6301134Y-15029222D02*
X6310658Y-15010174D01*
X6310658Y-15010174D02*
X6329705Y-15000650D01*
X6329705Y-15000650D02*
X6358277Y-15000650D01*
X6358277Y-15000650D02*
X6377324Y-15010174D01*
X6377324Y-15010174D02*
X6386848Y-15029222D01*
X6386848Y-15029222D02*
X6386848Y-15133984D01*
X6482086Y-15133984D02*
X6482086Y-15000650D01*
X6482086Y-15019698D02*
X6491610Y-15010174D01*
X6491610Y-15010174D02*
X6510658Y-15000650D01*
X6510658Y-15000650D02*
X6539229Y-15000650D01*
X6539229Y-15000650D02*
X6558277Y-15010174D01*
X6558277Y-15010174D02*
X6567801Y-15029222D01*
X6567801Y-15029222D02*
X6567801Y-15133984D01*
X6567801Y-15029222D02*
X6577324Y-15010174D01*
X6577324Y-15010174D02*
X6596372Y-15000650D01*
X6596372Y-15000650D02*
X6624943Y-15000650D01*
X6624943Y-15000650D02*
X6643991Y-15010174D01*
X6643991Y-15010174D02*
X6653515Y-15029222D01*
X6653515Y-15029222D02*
X6653515Y-15133984D01*
X7043991Y-14924460D02*
X6872563Y-15181603D01*
X7301134Y-14933984D02*
X7320182Y-14933984D01*
X7320182Y-14933984D02*
X7339229Y-14943508D01*
X7339229Y-14943508D02*
X7348753Y-14953031D01*
X7348753Y-14953031D02*
X7358277Y-14972079D01*
X7358277Y-14972079D02*
X7367801Y-15010174D01*
X7367801Y-15010174D02*
X7367801Y-15057793D01*
X7367801Y-15057793D02*
X7358277Y-15095888D01*
X7358277Y-15095888D02*
X7348753Y-15114936D01*
X7348753Y-15114936D02*
X7339229Y-15124460D01*
X7339229Y-15124460D02*
X7320182Y-15133984D01*
X7320182Y-15133984D02*
X7301134Y-15133984D01*
X7301134Y-15133984D02*
X7282086Y-15124460D01*
X7282086Y-15124460D02*
X7272563Y-15114936D01*
X7272563Y-15114936D02*
X7263039Y-15095888D01*
X7263039Y-15095888D02*
X7253515Y-15057793D01*
X7253515Y-15057793D02*
X7253515Y-15010174D01*
X7253515Y-15010174D02*
X7263039Y-14972079D01*
X7263039Y-14972079D02*
X7272563Y-14953031D01*
X7272563Y-14953031D02*
X7282086Y-14943508D01*
X7282086Y-14943508D02*
X7301134Y-14933984D01*
X7453515Y-15114936D02*
X7463039Y-15124460D01*
X7463039Y-15124460D02*
X7453515Y-15133984D01*
X7453515Y-15133984D02*
X7443991Y-15124460D01*
X7443991Y-15124460D02*
X7453515Y-15114936D01*
X7453515Y-15114936D02*
X7453515Y-15133984D01*
X7586848Y-14933984D02*
X7605896Y-14933984D01*
X7605896Y-14933984D02*
X7624944Y-14943508D01*
X7624944Y-14943508D02*
X7634467Y-14953031D01*
X7634467Y-14953031D02*
X7643991Y-14972079D01*
X7643991Y-14972079D02*
X7653515Y-15010174D01*
X7653515Y-15010174D02*
X7653515Y-15057793D01*
X7653515Y-15057793D02*
X7643991Y-15095888D01*
X7643991Y-15095888D02*
X7634467Y-15114936D01*
X7634467Y-15114936D02*
X7624944Y-15124460D01*
X7624944Y-15124460D02*
X7605896Y-15133984D01*
X7605896Y-15133984D02*
X7586848Y-15133984D01*
X7586848Y-15133984D02*
X7567801Y-15124460D01*
X7567801Y-15124460D02*
X7558277Y-15114936D01*
X7558277Y-15114936D02*
X7548753Y-15095888D01*
X7548753Y-15095888D02*
X7539229Y-15057793D01*
X7539229Y-15057793D02*
X7539229Y-15010174D01*
X7539229Y-15010174D02*
X7548753Y-14972079D01*
X7548753Y-14972079D02*
X7558277Y-14953031D01*
X7558277Y-14953031D02*
X7567801Y-14943508D01*
X7567801Y-14943508D02*
X7586848Y-14933984D01*
X7843991Y-15133984D02*
X7729706Y-15133984D01*
X7786848Y-15133984D02*
X7786848Y-14933984D01*
X7786848Y-14933984D02*
X7767801Y-14962555D01*
X7767801Y-14962555D02*
X7748753Y-14981603D01*
X7748753Y-14981603D02*
X7729706Y-14991127D01*
X8024944Y-14933984D02*
X7929706Y-14933984D01*
X7929706Y-14933984D02*
X7920182Y-15029222D01*
X7920182Y-15029222D02*
X7929706Y-15019698D01*
X7929706Y-15019698D02*
X7948753Y-15010174D01*
X7948753Y-15010174D02*
X7996372Y-15010174D01*
X7996372Y-15010174D02*
X8015420Y-15019698D01*
X8015420Y-15019698D02*
X8024944Y-15029222D01*
X8024944Y-15029222D02*
X8034467Y-15048269D01*
X8034467Y-15048269D02*
X8034467Y-15095888D01*
X8034467Y-15095888D02*
X8024944Y-15114936D01*
X8024944Y-15114936D02*
X8015420Y-15124460D01*
X8015420Y-15124460D02*
X7996372Y-15133984D01*
X7996372Y-15133984D02*
X7948753Y-15133984D01*
X7948753Y-15133984D02*
X7929706Y-15124460D01*
X7929706Y-15124460D02*
X7920182Y-15114936D01*
X8101134Y-14933984D02*
X8234467Y-14933984D01*
X8234467Y-14933984D02*
X8148753Y-15133984D01*
X8301134Y-14933984D02*
X8301134Y-14972079D01*
X8377325Y-14933984D02*
X8377325Y-14972079D01*
X8672563Y-15210174D02*
X8663039Y-15200650D01*
X8663039Y-15200650D02*
X8643991Y-15172079D01*
X8643991Y-15172079D02*
X8634468Y-15153031D01*
X8634468Y-15153031D02*
X8624944Y-15124460D01*
X8624944Y-15124460D02*
X8615420Y-15076841D01*
X8615420Y-15076841D02*
X8615420Y-15038746D01*
X8615420Y-15038746D02*
X8624944Y-14991127D01*
X8624944Y-14991127D02*
X8634468Y-14962555D01*
X8634468Y-14962555D02*
X8643991Y-14943508D01*
X8643991Y-14943508D02*
X8663039Y-14914936D01*
X8663039Y-14914936D02*
X8672563Y-14905412D01*
X8729706Y-14933984D02*
X8853515Y-14933984D01*
X8853515Y-14933984D02*
X8786849Y-15010174D01*
X8786849Y-15010174D02*
X8815420Y-15010174D01*
X8815420Y-15010174D02*
X8834468Y-15019698D01*
X8834468Y-15019698D02*
X8843991Y-15029222D01*
X8843991Y-15029222D02*
X8853515Y-15048269D01*
X8853515Y-15048269D02*
X8853515Y-15095888D01*
X8853515Y-15095888D02*
X8843991Y-15114936D01*
X8843991Y-15114936D02*
X8834468Y-15124460D01*
X8834468Y-15124460D02*
X8815420Y-15133984D01*
X8815420Y-15133984D02*
X8758277Y-15133984D01*
X8758277Y-15133984D02*
X8739230Y-15124460D01*
X8739230Y-15124460D02*
X8729706Y-15114936D01*
X9024944Y-14933984D02*
X8986849Y-14933984D01*
X8986849Y-14933984D02*
X8967801Y-14943508D01*
X8967801Y-14943508D02*
X8958277Y-14953031D01*
X8958277Y-14953031D02*
X8939230Y-14981603D01*
X8939230Y-14981603D02*
X8929706Y-15019698D01*
X8929706Y-15019698D02*
X8929706Y-15095888D01*
X8929706Y-15095888D02*
X8939230Y-15114936D01*
X8939230Y-15114936D02*
X8948753Y-15124460D01*
X8948753Y-15124460D02*
X8967801Y-15133984D01*
X8967801Y-15133984D02*
X9005896Y-15133984D01*
X9005896Y-15133984D02*
X9024944Y-15124460D01*
X9024944Y-15124460D02*
X9034468Y-15114936D01*
X9034468Y-15114936D02*
X9043991Y-15095888D01*
X9043991Y-15095888D02*
X9043991Y-15048269D01*
X9043991Y-15048269D02*
X9034468Y-15029222D01*
X9034468Y-15029222D02*
X9024944Y-15019698D01*
X9024944Y-15019698D02*
X9005896Y-15010174D01*
X9005896Y-15010174D02*
X8967801Y-15010174D01*
X8967801Y-15010174D02*
X8948753Y-15019698D01*
X8948753Y-15019698D02*
X8939230Y-15029222D01*
X8939230Y-15029222D02*
X8929706Y-15048269D01*
X9215420Y-14933984D02*
X9177325Y-14933984D01*
X9177325Y-14933984D02*
X9158277Y-14943508D01*
X9158277Y-14943508D02*
X9148753Y-14953031D01*
X9148753Y-14953031D02*
X9129706Y-14981603D01*
X9129706Y-14981603D02*
X9120182Y-15019698D01*
X9120182Y-15019698D02*
X9120182Y-15095888D01*
X9120182Y-15095888D02*
X9129706Y-15114936D01*
X9129706Y-15114936D02*
X9139230Y-15124460D01*
X9139230Y-15124460D02*
X9158277Y-15133984D01*
X9158277Y-15133984D02*
X9196372Y-15133984D01*
X9196372Y-15133984D02*
X9215420Y-15124460D01*
X9215420Y-15124460D02*
X9224944Y-15114936D01*
X9224944Y-15114936D02*
X9234468Y-15095888D01*
X9234468Y-15095888D02*
X9234468Y-15048269D01*
X9234468Y-15048269D02*
X9224944Y-15029222D01*
X9224944Y-15029222D02*
X9215420Y-15019698D01*
X9215420Y-15019698D02*
X9196372Y-15010174D01*
X9196372Y-15010174D02*
X9158277Y-15010174D01*
X9158277Y-15010174D02*
X9139230Y-15019698D01*
X9139230Y-15019698D02*
X9129706Y-15029222D01*
X9129706Y-15029222D02*
X9120182Y-15048269D01*
X9472563Y-15133984D02*
X9472563Y-14933984D01*
X9558277Y-15133984D02*
X9558277Y-15029222D01*
X9558277Y-15029222D02*
X9548753Y-15010174D01*
X9548753Y-15010174D02*
X9529706Y-15000650D01*
X9529706Y-15000650D02*
X9501134Y-15000650D01*
X9501134Y-15000650D02*
X9482087Y-15010174D01*
X9482087Y-15010174D02*
X9472563Y-15019698D01*
X9682087Y-15133984D02*
X9663039Y-15124460D01*
X9663039Y-15124460D02*
X9653515Y-15114936D01*
X9653515Y-15114936D02*
X9643992Y-15095888D01*
X9643992Y-15095888D02*
X9643992Y-15038746D01*
X9643992Y-15038746D02*
X9653515Y-15019698D01*
X9653515Y-15019698D02*
X9663039Y-15010174D01*
X9663039Y-15010174D02*
X9682087Y-15000650D01*
X9682087Y-15000650D02*
X9710658Y-15000650D01*
X9710658Y-15000650D02*
X9729706Y-15010174D01*
X9729706Y-15010174D02*
X9739230Y-15019698D01*
X9739230Y-15019698D02*
X9748753Y-15038746D01*
X9748753Y-15038746D02*
X9748753Y-15095888D01*
X9748753Y-15095888D02*
X9739230Y-15114936D01*
X9739230Y-15114936D02*
X9729706Y-15124460D01*
X9729706Y-15124460D02*
X9710658Y-15133984D01*
X9710658Y-15133984D02*
X9682087Y-15133984D01*
X9863039Y-15133984D02*
X9843992Y-15124460D01*
X9843992Y-15124460D02*
X9834468Y-15105412D01*
X9834468Y-15105412D02*
X9834468Y-14933984D01*
X10015420Y-15124460D02*
X9996373Y-15133984D01*
X9996373Y-15133984D02*
X9958277Y-15133984D01*
X9958277Y-15133984D02*
X9939230Y-15124460D01*
X9939230Y-15124460D02*
X9929706Y-15105412D01*
X9929706Y-15105412D02*
X9929706Y-15029222D01*
X9929706Y-15029222D02*
X9939230Y-15010174D01*
X9939230Y-15010174D02*
X9958277Y-15000650D01*
X9958277Y-15000650D02*
X9996373Y-15000650D01*
X9996373Y-15000650D02*
X10015420Y-15010174D01*
X10015420Y-15010174D02*
X10024944Y-15029222D01*
X10024944Y-15029222D02*
X10024944Y-15048269D01*
X10024944Y-15048269D02*
X9929706Y-15067317D01*
X10101134Y-15124460D02*
X10120182Y-15133984D01*
X10120182Y-15133984D02*
X10158277Y-15133984D01*
X10158277Y-15133984D02*
X10177325Y-15124460D01*
X10177325Y-15124460D02*
X10186849Y-15105412D01*
X10186849Y-15105412D02*
X10186849Y-15095888D01*
X10186849Y-15095888D02*
X10177325Y-15076841D01*
X10177325Y-15076841D02*
X10158277Y-15067317D01*
X10158277Y-15067317D02*
X10129706Y-15067317D01*
X10129706Y-15067317D02*
X10110658Y-15057793D01*
X10110658Y-15057793D02*
X10101134Y-15038746D01*
X10101134Y-15038746D02*
X10101134Y-15029222D01*
X10101134Y-15029222D02*
X10110658Y-15010174D01*
X10110658Y-15010174D02*
X10129706Y-15000650D01*
X10129706Y-15000650D02*
X10158277Y-15000650D01*
X10158277Y-15000650D02*
X10177325Y-15010174D01*
X10253515Y-15210174D02*
X10263039Y-15200650D01*
X10263039Y-15200650D02*
X10282087Y-15172079D01*
X10282087Y-15172079D02*
X10291611Y-15153031D01*
X10291611Y-15153031D02*
X10301134Y-15124460D01*
X10301134Y-15124460D02*
X10310658Y-15076841D01*
X10310658Y-15076841D02*
X10310658Y-15038746D01*
X10310658Y-15038746D02*
X10301134Y-14991127D01*
X10301134Y-14991127D02*
X10291611Y-14962555D01*
X10291611Y-14962555D02*
X10282087Y-14943508D01*
X10282087Y-14943508D02*
X10263039Y-14914936D01*
X10263039Y-14914936D02*
X10253515Y-14905412D01*
D12*
X5097500Y-15306500D02*
G75*
G02*
X5017500Y-15306500I-40000J0D01*
G01*
X5017500Y-15306500D02*
G75*
G02*
X5097500Y-15306500I40000J0D01*
G01*
D11*
X5396372Y-15197984D02*
X5415420Y-15197984D01*
X5415420Y-15197984D02*
X5434467Y-15207508D01*
X5434467Y-15207508D02*
X5443991Y-15217031D01*
X5443991Y-15217031D02*
X5453515Y-15236079D01*
X5453515Y-15236079D02*
X5463039Y-15274174D01*
X5463039Y-15274174D02*
X5463039Y-15321793D01*
X5463039Y-15321793D02*
X5453515Y-15359888D01*
X5453515Y-15359888D02*
X5443991Y-15378936D01*
X5443991Y-15378936D02*
X5434467Y-15388460D01*
X5434467Y-15388460D02*
X5415420Y-15397984D01*
X5415420Y-15397984D02*
X5396372Y-15397984D01*
X5396372Y-15397984D02*
X5377324Y-15388460D01*
X5377324Y-15388460D02*
X5367801Y-15378936D01*
X5367801Y-15378936D02*
X5358277Y-15359888D01*
X5358277Y-15359888D02*
X5348753Y-15321793D01*
X5348753Y-15321793D02*
X5348753Y-15274174D01*
X5348753Y-15274174D02*
X5358277Y-15236079D01*
X5358277Y-15236079D02*
X5367801Y-15217031D01*
X5367801Y-15217031D02*
X5377324Y-15207508D01*
X5377324Y-15207508D02*
X5396372Y-15197984D01*
X5548753Y-15378936D02*
X5558277Y-15388460D01*
X5558277Y-15388460D02*
X5548753Y-15397984D01*
X5548753Y-15397984D02*
X5539229Y-15388460D01*
X5539229Y-15388460D02*
X5548753Y-15378936D01*
X5548753Y-15378936D02*
X5548753Y-15397984D01*
X5672562Y-15283698D02*
X5653515Y-15274174D01*
X5653515Y-15274174D02*
X5643991Y-15264650D01*
X5643991Y-15264650D02*
X5634467Y-15245603D01*
X5634467Y-15245603D02*
X5634467Y-15236079D01*
X5634467Y-15236079D02*
X5643991Y-15217031D01*
X5643991Y-15217031D02*
X5653515Y-15207508D01*
X5653515Y-15207508D02*
X5672562Y-15197984D01*
X5672562Y-15197984D02*
X5710658Y-15197984D01*
X5710658Y-15197984D02*
X5729705Y-15207508D01*
X5729705Y-15207508D02*
X5739229Y-15217031D01*
X5739229Y-15217031D02*
X5748753Y-15236079D01*
X5748753Y-15236079D02*
X5748753Y-15245603D01*
X5748753Y-15245603D02*
X5739229Y-15264650D01*
X5739229Y-15264650D02*
X5729705Y-15274174D01*
X5729705Y-15274174D02*
X5710658Y-15283698D01*
X5710658Y-15283698D02*
X5672562Y-15283698D01*
X5672562Y-15283698D02*
X5653515Y-15293222D01*
X5653515Y-15293222D02*
X5643991Y-15302746D01*
X5643991Y-15302746D02*
X5634467Y-15321793D01*
X5634467Y-15321793D02*
X5634467Y-15359888D01*
X5634467Y-15359888D02*
X5643991Y-15378936D01*
X5643991Y-15378936D02*
X5653515Y-15388460D01*
X5653515Y-15388460D02*
X5672562Y-15397984D01*
X5672562Y-15397984D02*
X5710658Y-15397984D01*
X5710658Y-15397984D02*
X5729705Y-15388460D01*
X5729705Y-15388460D02*
X5739229Y-15378936D01*
X5739229Y-15378936D02*
X5748753Y-15359888D01*
X5748753Y-15359888D02*
X5748753Y-15321793D01*
X5748753Y-15321793D02*
X5739229Y-15302746D01*
X5739229Y-15302746D02*
X5729705Y-15293222D01*
X5729705Y-15293222D02*
X5710658Y-15283698D01*
X5872562Y-15197984D02*
X5891610Y-15197984D01*
X5891610Y-15197984D02*
X5910658Y-15207508D01*
X5910658Y-15207508D02*
X5920182Y-15217031D01*
X5920182Y-15217031D02*
X5929705Y-15236079D01*
X5929705Y-15236079D02*
X5939229Y-15274174D01*
X5939229Y-15274174D02*
X5939229Y-15321793D01*
X5939229Y-15321793D02*
X5929705Y-15359888D01*
X5929705Y-15359888D02*
X5920182Y-15378936D01*
X5920182Y-15378936D02*
X5910658Y-15388460D01*
X5910658Y-15388460D02*
X5891610Y-15397984D01*
X5891610Y-15397984D02*
X5872562Y-15397984D01*
X5872562Y-15397984D02*
X5853515Y-15388460D01*
X5853515Y-15388460D02*
X5843991Y-15378936D01*
X5843991Y-15378936D02*
X5834467Y-15359888D01*
X5834467Y-15359888D02*
X5824943Y-15321793D01*
X5824943Y-15321793D02*
X5824943Y-15274174D01*
X5824943Y-15274174D02*
X5834467Y-15236079D01*
X5834467Y-15236079D02*
X5843991Y-15217031D01*
X5843991Y-15217031D02*
X5853515Y-15207508D01*
X5853515Y-15207508D02*
X5872562Y-15197984D01*
X6063039Y-15197984D02*
X6082086Y-15197984D01*
X6082086Y-15197984D02*
X6101134Y-15207508D01*
X6101134Y-15207508D02*
X6110658Y-15217031D01*
X6110658Y-15217031D02*
X6120182Y-15236079D01*
X6120182Y-15236079D02*
X6129705Y-15274174D01*
X6129705Y-15274174D02*
X6129705Y-15321793D01*
X6129705Y-15321793D02*
X6120182Y-15359888D01*
X6120182Y-15359888D02*
X6110658Y-15378936D01*
X6110658Y-15378936D02*
X6101134Y-15388460D01*
X6101134Y-15388460D02*
X6082086Y-15397984D01*
X6082086Y-15397984D02*
X6063039Y-15397984D01*
X6063039Y-15397984D02*
X6043991Y-15388460D01*
X6043991Y-15388460D02*
X6034467Y-15378936D01*
X6034467Y-15378936D02*
X6024943Y-15359888D01*
X6024943Y-15359888D02*
X6015420Y-15321793D01*
X6015420Y-15321793D02*
X6015420Y-15274174D01*
X6015420Y-15274174D02*
X6024943Y-15236079D01*
X6024943Y-15236079D02*
X6034467Y-15217031D01*
X6034467Y-15217031D02*
X6043991Y-15207508D01*
X6043991Y-15207508D02*
X6063039Y-15197984D01*
X6215420Y-15397984D02*
X6215420Y-15264650D01*
X6215420Y-15283698D02*
X6224943Y-15274174D01*
X6224943Y-15274174D02*
X6243991Y-15264650D01*
X6243991Y-15264650D02*
X6272563Y-15264650D01*
X6272563Y-15264650D02*
X6291610Y-15274174D01*
X6291610Y-15274174D02*
X6301134Y-15293222D01*
X6301134Y-15293222D02*
X6301134Y-15397984D01*
X6301134Y-15293222D02*
X6310658Y-15274174D01*
X6310658Y-15274174D02*
X6329705Y-15264650D01*
X6329705Y-15264650D02*
X6358277Y-15264650D01*
X6358277Y-15264650D02*
X6377324Y-15274174D01*
X6377324Y-15274174D02*
X6386848Y-15293222D01*
X6386848Y-15293222D02*
X6386848Y-15397984D01*
X6482086Y-15397984D02*
X6482086Y-15264650D01*
X6482086Y-15283698D02*
X6491610Y-15274174D01*
X6491610Y-15274174D02*
X6510658Y-15264650D01*
X6510658Y-15264650D02*
X6539229Y-15264650D01*
X6539229Y-15264650D02*
X6558277Y-15274174D01*
X6558277Y-15274174D02*
X6567801Y-15293222D01*
X6567801Y-15293222D02*
X6567801Y-15397984D01*
X6567801Y-15293222D02*
X6577324Y-15274174D01*
X6577324Y-15274174D02*
X6596372Y-15264650D01*
X6596372Y-15264650D02*
X6624943Y-15264650D01*
X6624943Y-15264650D02*
X6643991Y-15274174D01*
X6643991Y-15274174D02*
X6653515Y-15293222D01*
X6653515Y-15293222D02*
X6653515Y-15397984D01*
X7043991Y-15188460D02*
X6872563Y-15445603D01*
X7301134Y-15197984D02*
X7320182Y-15197984D01*
X7320182Y-15197984D02*
X7339229Y-15207508D01*
X7339229Y-15207508D02*
X7348753Y-15217031D01*
X7348753Y-15217031D02*
X7358277Y-15236079D01*
X7358277Y-15236079D02*
X7367801Y-15274174D01*
X7367801Y-15274174D02*
X7367801Y-15321793D01*
X7367801Y-15321793D02*
X7358277Y-15359888D01*
X7358277Y-15359888D02*
X7348753Y-15378936D01*
X7348753Y-15378936D02*
X7339229Y-15388460D01*
X7339229Y-15388460D02*
X7320182Y-15397984D01*
X7320182Y-15397984D02*
X7301134Y-15397984D01*
X7301134Y-15397984D02*
X7282086Y-15388460D01*
X7282086Y-15388460D02*
X7272563Y-15378936D01*
X7272563Y-15378936D02*
X7263039Y-15359888D01*
X7263039Y-15359888D02*
X7253515Y-15321793D01*
X7253515Y-15321793D02*
X7253515Y-15274174D01*
X7253515Y-15274174D02*
X7263039Y-15236079D01*
X7263039Y-15236079D02*
X7272563Y-15217031D01*
X7272563Y-15217031D02*
X7282086Y-15207508D01*
X7282086Y-15207508D02*
X7301134Y-15197984D01*
X7453515Y-15378936D02*
X7463039Y-15388460D01*
X7463039Y-15388460D02*
X7453515Y-15397984D01*
X7453515Y-15397984D02*
X7443991Y-15388460D01*
X7443991Y-15388460D02*
X7453515Y-15378936D01*
X7453515Y-15378936D02*
X7453515Y-15397984D01*
X7586848Y-15197984D02*
X7605896Y-15197984D01*
X7605896Y-15197984D02*
X7624944Y-15207508D01*
X7624944Y-15207508D02*
X7634467Y-15217031D01*
X7634467Y-15217031D02*
X7643991Y-15236079D01*
X7643991Y-15236079D02*
X7653515Y-15274174D01*
X7653515Y-15274174D02*
X7653515Y-15321793D01*
X7653515Y-15321793D02*
X7643991Y-15359888D01*
X7643991Y-15359888D02*
X7634467Y-15378936D01*
X7634467Y-15378936D02*
X7624944Y-15388460D01*
X7624944Y-15388460D02*
X7605896Y-15397984D01*
X7605896Y-15397984D02*
X7586848Y-15397984D01*
X7586848Y-15397984D02*
X7567801Y-15388460D01*
X7567801Y-15388460D02*
X7558277Y-15378936D01*
X7558277Y-15378936D02*
X7548753Y-15359888D01*
X7548753Y-15359888D02*
X7539229Y-15321793D01*
X7539229Y-15321793D02*
X7539229Y-15274174D01*
X7539229Y-15274174D02*
X7548753Y-15236079D01*
X7548753Y-15236079D02*
X7558277Y-15217031D01*
X7558277Y-15217031D02*
X7567801Y-15207508D01*
X7567801Y-15207508D02*
X7586848Y-15197984D01*
X7720182Y-15197984D02*
X7843991Y-15197984D01*
X7843991Y-15197984D02*
X7777325Y-15274174D01*
X7777325Y-15274174D02*
X7805896Y-15274174D01*
X7805896Y-15274174D02*
X7824944Y-15283698D01*
X7824944Y-15283698D02*
X7834467Y-15293222D01*
X7834467Y-15293222D02*
X7843991Y-15312269D01*
X7843991Y-15312269D02*
X7843991Y-15359888D01*
X7843991Y-15359888D02*
X7834467Y-15378936D01*
X7834467Y-15378936D02*
X7824944Y-15388460D01*
X7824944Y-15388460D02*
X7805896Y-15397984D01*
X7805896Y-15397984D02*
X7748753Y-15397984D01*
X7748753Y-15397984D02*
X7729706Y-15388460D01*
X7729706Y-15388460D02*
X7720182Y-15378936D01*
X8034467Y-15397984D02*
X7920182Y-15397984D01*
X7977325Y-15397984D02*
X7977325Y-15197984D01*
X7977325Y-15197984D02*
X7958277Y-15226555D01*
X7958277Y-15226555D02*
X7939229Y-15245603D01*
X7939229Y-15245603D02*
X7920182Y-15255127D01*
X8215420Y-15197984D02*
X8120182Y-15197984D01*
X8120182Y-15197984D02*
X8110658Y-15293222D01*
X8110658Y-15293222D02*
X8120182Y-15283698D01*
X8120182Y-15283698D02*
X8139229Y-15274174D01*
X8139229Y-15274174D02*
X8186848Y-15274174D01*
X8186848Y-15274174D02*
X8205896Y-15283698D01*
X8205896Y-15283698D02*
X8215420Y-15293222D01*
X8215420Y-15293222D02*
X8224944Y-15312269D01*
X8224944Y-15312269D02*
X8224944Y-15359888D01*
X8224944Y-15359888D02*
X8215420Y-15378936D01*
X8215420Y-15378936D02*
X8205896Y-15388460D01*
X8205896Y-15388460D02*
X8186848Y-15397984D01*
X8186848Y-15397984D02*
X8139229Y-15397984D01*
X8139229Y-15397984D02*
X8120182Y-15388460D01*
X8120182Y-15388460D02*
X8110658Y-15378936D01*
X8301134Y-15197984D02*
X8301134Y-15236079D01*
X8377325Y-15197984D02*
X8377325Y-15236079D01*
X8672563Y-15474174D02*
X8663039Y-15464650D01*
X8663039Y-15464650D02*
X8643991Y-15436079D01*
X8643991Y-15436079D02*
X8634468Y-15417031D01*
X8634468Y-15417031D02*
X8624944Y-15388460D01*
X8624944Y-15388460D02*
X8615420Y-15340841D01*
X8615420Y-15340841D02*
X8615420Y-15302746D01*
X8615420Y-15302746D02*
X8624944Y-15255127D01*
X8624944Y-15255127D02*
X8634468Y-15226555D01*
X8634468Y-15226555D02*
X8643991Y-15207508D01*
X8643991Y-15207508D02*
X8663039Y-15178936D01*
X8663039Y-15178936D02*
X8672563Y-15169412D01*
X8758277Y-15397984D02*
X8796372Y-15397984D01*
X8796372Y-15397984D02*
X8815420Y-15388460D01*
X8815420Y-15388460D02*
X8824944Y-15378936D01*
X8824944Y-15378936D02*
X8843991Y-15350365D01*
X8843991Y-15350365D02*
X8853515Y-15312269D01*
X8853515Y-15312269D02*
X8853515Y-15236079D01*
X8853515Y-15236079D02*
X8843991Y-15217031D01*
X8843991Y-15217031D02*
X8834468Y-15207508D01*
X8834468Y-15207508D02*
X8815420Y-15197984D01*
X8815420Y-15197984D02*
X8777325Y-15197984D01*
X8777325Y-15197984D02*
X8758277Y-15207508D01*
X8758277Y-15207508D02*
X8748753Y-15217031D01*
X8748753Y-15217031D02*
X8739230Y-15236079D01*
X8739230Y-15236079D02*
X8739230Y-15283698D01*
X8739230Y-15283698D02*
X8748753Y-15302746D01*
X8748753Y-15302746D02*
X8758277Y-15312269D01*
X8758277Y-15312269D02*
X8777325Y-15321793D01*
X8777325Y-15321793D02*
X8815420Y-15321793D01*
X8815420Y-15321793D02*
X8834468Y-15312269D01*
X8834468Y-15312269D02*
X8843991Y-15302746D01*
X8843991Y-15302746D02*
X8853515Y-15283698D01*
X8977325Y-15197984D02*
X8996372Y-15197984D01*
X8996372Y-15197984D02*
X9015420Y-15207508D01*
X9015420Y-15207508D02*
X9024944Y-15217031D01*
X9024944Y-15217031D02*
X9034468Y-15236079D01*
X9034468Y-15236079D02*
X9043991Y-15274174D01*
X9043991Y-15274174D02*
X9043991Y-15321793D01*
X9043991Y-15321793D02*
X9034468Y-15359888D01*
X9034468Y-15359888D02*
X9024944Y-15378936D01*
X9024944Y-15378936D02*
X9015420Y-15388460D01*
X9015420Y-15388460D02*
X8996372Y-15397984D01*
X8996372Y-15397984D02*
X8977325Y-15397984D01*
X8977325Y-15397984D02*
X8958277Y-15388460D01*
X8958277Y-15388460D02*
X8948753Y-15378936D01*
X8948753Y-15378936D02*
X8939230Y-15359888D01*
X8939230Y-15359888D02*
X8929706Y-15321793D01*
X8929706Y-15321793D02*
X8929706Y-15274174D01*
X8929706Y-15274174D02*
X8939230Y-15236079D01*
X8939230Y-15236079D02*
X8948753Y-15217031D01*
X8948753Y-15217031D02*
X8958277Y-15207508D01*
X8958277Y-15207508D02*
X8977325Y-15197984D01*
X9282087Y-15397984D02*
X9282087Y-15197984D01*
X9367801Y-15397984D02*
X9367801Y-15293222D01*
X9367801Y-15293222D02*
X9358277Y-15274174D01*
X9358277Y-15274174D02*
X9339230Y-15264650D01*
X9339230Y-15264650D02*
X9310658Y-15264650D01*
X9310658Y-15264650D02*
X9291611Y-15274174D01*
X9291611Y-15274174D02*
X9282087Y-15283698D01*
X9491611Y-15397984D02*
X9472563Y-15388460D01*
X9472563Y-15388460D02*
X9463039Y-15378936D01*
X9463039Y-15378936D02*
X9453515Y-15359888D01*
X9453515Y-15359888D02*
X9453515Y-15302746D01*
X9453515Y-15302746D02*
X9463039Y-15283698D01*
X9463039Y-15283698D02*
X9472563Y-15274174D01*
X9472563Y-15274174D02*
X9491611Y-15264650D01*
X9491611Y-15264650D02*
X9520182Y-15264650D01*
X9520182Y-15264650D02*
X9539230Y-15274174D01*
X9539230Y-15274174D02*
X9548753Y-15283698D01*
X9548753Y-15283698D02*
X9558277Y-15302746D01*
X9558277Y-15302746D02*
X9558277Y-15359888D01*
X9558277Y-15359888D02*
X9548753Y-15378936D01*
X9548753Y-15378936D02*
X9539230Y-15388460D01*
X9539230Y-15388460D02*
X9520182Y-15397984D01*
X9520182Y-15397984D02*
X9491611Y-15397984D01*
X9672563Y-15397984D02*
X9653515Y-15388460D01*
X9653515Y-15388460D02*
X9643992Y-15369412D01*
X9643992Y-15369412D02*
X9643992Y-15197984D01*
X9824944Y-15388460D02*
X9805896Y-15397984D01*
X9805896Y-15397984D02*
X9767801Y-15397984D01*
X9767801Y-15397984D02*
X9748753Y-15388460D01*
X9748753Y-15388460D02*
X9739230Y-15369412D01*
X9739230Y-15369412D02*
X9739230Y-15293222D01*
X9739230Y-15293222D02*
X9748753Y-15274174D01*
X9748753Y-15274174D02*
X9767801Y-15264650D01*
X9767801Y-15264650D02*
X9805896Y-15264650D01*
X9805896Y-15264650D02*
X9824944Y-15274174D01*
X9824944Y-15274174D02*
X9834468Y-15293222D01*
X9834468Y-15293222D02*
X9834468Y-15312269D01*
X9834468Y-15312269D02*
X9739230Y-15331317D01*
X9910658Y-15388460D02*
X9929706Y-15397984D01*
X9929706Y-15397984D02*
X9967801Y-15397984D01*
X9967801Y-15397984D02*
X9986849Y-15388460D01*
X9986849Y-15388460D02*
X9996373Y-15369412D01*
X9996373Y-15369412D02*
X9996373Y-15359888D01*
X9996373Y-15359888D02*
X9986849Y-15340841D01*
X9986849Y-15340841D02*
X9967801Y-15331317D01*
X9967801Y-15331317D02*
X9939230Y-15331317D01*
X9939230Y-15331317D02*
X9920182Y-15321793D01*
X9920182Y-15321793D02*
X9910658Y-15302746D01*
X9910658Y-15302746D02*
X9910658Y-15293222D01*
X9910658Y-15293222D02*
X9920182Y-15274174D01*
X9920182Y-15274174D02*
X9939230Y-15264650D01*
X9939230Y-15264650D02*
X9967801Y-15264650D01*
X9967801Y-15264650D02*
X9986849Y-15274174D01*
X10063039Y-15474174D02*
X10072563Y-15464650D01*
X10072563Y-15464650D02*
X10091611Y-15436079D01*
X10091611Y-15436079D02*
X10101134Y-15417031D01*
X10101134Y-15417031D02*
X10110658Y-15388460D01*
X10110658Y-15388460D02*
X10120182Y-15340841D01*
X10120182Y-15340841D02*
X10120182Y-15302746D01*
X10120182Y-15302746D02*
X10110658Y-15255127D01*
X10110658Y-15255127D02*
X10101134Y-15226555D01*
X10101134Y-15226555D02*
X10091611Y-15207508D01*
X10091611Y-15207508D02*
X10072563Y-15178936D01*
X10072563Y-15178936D02*
X10063039Y-15169412D01*
D13*
X5037500Y-15510500D02*
X5037500Y-15630500D01*
X4977500Y-15570500D02*
X5097500Y-15570500D01*
D11*
X5463039Y-15661984D02*
X5348753Y-15661984D01*
X5405896Y-15661984D02*
X5405896Y-15461984D01*
X5405896Y-15461984D02*
X5386848Y-15490555D01*
X5386848Y-15490555D02*
X5367801Y-15509603D01*
X5367801Y-15509603D02*
X5348753Y-15519127D01*
X5548753Y-15642936D02*
X5558277Y-15652460D01*
X5558277Y-15652460D02*
X5548753Y-15661984D01*
X5548753Y-15661984D02*
X5539229Y-15652460D01*
X5539229Y-15652460D02*
X5548753Y-15642936D01*
X5548753Y-15642936D02*
X5548753Y-15661984D01*
X5634467Y-15481031D02*
X5643991Y-15471508D01*
X5643991Y-15471508D02*
X5663039Y-15461984D01*
X5663039Y-15461984D02*
X5710658Y-15461984D01*
X5710658Y-15461984D02*
X5729705Y-15471508D01*
X5729705Y-15471508D02*
X5739229Y-15481031D01*
X5739229Y-15481031D02*
X5748753Y-15500079D01*
X5748753Y-15500079D02*
X5748753Y-15519127D01*
X5748753Y-15519127D02*
X5739229Y-15547698D01*
X5739229Y-15547698D02*
X5624943Y-15661984D01*
X5624943Y-15661984D02*
X5748753Y-15661984D01*
X5872562Y-15461984D02*
X5891610Y-15461984D01*
X5891610Y-15461984D02*
X5910658Y-15471508D01*
X5910658Y-15471508D02*
X5920182Y-15481031D01*
X5920182Y-15481031D02*
X5929705Y-15500079D01*
X5929705Y-15500079D02*
X5939229Y-15538174D01*
X5939229Y-15538174D02*
X5939229Y-15585793D01*
X5939229Y-15585793D02*
X5929705Y-15623888D01*
X5929705Y-15623888D02*
X5920182Y-15642936D01*
X5920182Y-15642936D02*
X5910658Y-15652460D01*
X5910658Y-15652460D02*
X5891610Y-15661984D01*
X5891610Y-15661984D02*
X5872562Y-15661984D01*
X5872562Y-15661984D02*
X5853515Y-15652460D01*
X5853515Y-15652460D02*
X5843991Y-15642936D01*
X5843991Y-15642936D02*
X5834467Y-15623888D01*
X5834467Y-15623888D02*
X5824943Y-15585793D01*
X5824943Y-15585793D02*
X5824943Y-15538174D01*
X5824943Y-15538174D02*
X5834467Y-15500079D01*
X5834467Y-15500079D02*
X5843991Y-15481031D01*
X5843991Y-15481031D02*
X5853515Y-15471508D01*
X5853515Y-15471508D02*
X5872562Y-15461984D01*
X6063039Y-15461984D02*
X6082086Y-15461984D01*
X6082086Y-15461984D02*
X6101134Y-15471508D01*
X6101134Y-15471508D02*
X6110658Y-15481031D01*
X6110658Y-15481031D02*
X6120182Y-15500079D01*
X6120182Y-15500079D02*
X6129705Y-15538174D01*
X6129705Y-15538174D02*
X6129705Y-15585793D01*
X6129705Y-15585793D02*
X6120182Y-15623888D01*
X6120182Y-15623888D02*
X6110658Y-15642936D01*
X6110658Y-15642936D02*
X6101134Y-15652460D01*
X6101134Y-15652460D02*
X6082086Y-15661984D01*
X6082086Y-15661984D02*
X6063039Y-15661984D01*
X6063039Y-15661984D02*
X6043991Y-15652460D01*
X6043991Y-15652460D02*
X6034467Y-15642936D01*
X6034467Y-15642936D02*
X6024943Y-15623888D01*
X6024943Y-15623888D02*
X6015420Y-15585793D01*
X6015420Y-15585793D02*
X6015420Y-15538174D01*
X6015420Y-15538174D02*
X6024943Y-15500079D01*
X6024943Y-15500079D02*
X6034467Y-15481031D01*
X6034467Y-15481031D02*
X6043991Y-15471508D01*
X6043991Y-15471508D02*
X6063039Y-15461984D01*
X6215420Y-15661984D02*
X6215420Y-15528650D01*
X6215420Y-15547698D02*
X6224943Y-15538174D01*
X6224943Y-15538174D02*
X6243991Y-15528650D01*
X6243991Y-15528650D02*
X6272563Y-15528650D01*
X6272563Y-15528650D02*
X6291610Y-15538174D01*
X6291610Y-15538174D02*
X6301134Y-15557222D01*
X6301134Y-15557222D02*
X6301134Y-15661984D01*
X6301134Y-15557222D02*
X6310658Y-15538174D01*
X6310658Y-15538174D02*
X6329705Y-15528650D01*
X6329705Y-15528650D02*
X6358277Y-15528650D01*
X6358277Y-15528650D02*
X6377324Y-15538174D01*
X6377324Y-15538174D02*
X6386848Y-15557222D01*
X6386848Y-15557222D02*
X6386848Y-15661984D01*
X6482086Y-15661984D02*
X6482086Y-15528650D01*
X6482086Y-15547698D02*
X6491610Y-15538174D01*
X6491610Y-15538174D02*
X6510658Y-15528650D01*
X6510658Y-15528650D02*
X6539229Y-15528650D01*
X6539229Y-15528650D02*
X6558277Y-15538174D01*
X6558277Y-15538174D02*
X6567801Y-15557222D01*
X6567801Y-15557222D02*
X6567801Y-15661984D01*
X6567801Y-15557222D02*
X6577324Y-15538174D01*
X6577324Y-15538174D02*
X6596372Y-15528650D01*
X6596372Y-15528650D02*
X6624943Y-15528650D01*
X6624943Y-15528650D02*
X6643991Y-15538174D01*
X6643991Y-15538174D02*
X6653515Y-15557222D01*
X6653515Y-15557222D02*
X6653515Y-15661984D01*
X7043991Y-15452460D02*
X6872563Y-15709603D01*
X7301134Y-15461984D02*
X7320182Y-15461984D01*
X7320182Y-15461984D02*
X7339229Y-15471508D01*
X7339229Y-15471508D02*
X7348753Y-15481031D01*
X7348753Y-15481031D02*
X7358277Y-15500079D01*
X7358277Y-15500079D02*
X7367801Y-15538174D01*
X7367801Y-15538174D02*
X7367801Y-15585793D01*
X7367801Y-15585793D02*
X7358277Y-15623888D01*
X7358277Y-15623888D02*
X7348753Y-15642936D01*
X7348753Y-15642936D02*
X7339229Y-15652460D01*
X7339229Y-15652460D02*
X7320182Y-15661984D01*
X7320182Y-15661984D02*
X7301134Y-15661984D01*
X7301134Y-15661984D02*
X7282086Y-15652460D01*
X7282086Y-15652460D02*
X7272563Y-15642936D01*
X7272563Y-15642936D02*
X7263039Y-15623888D01*
X7263039Y-15623888D02*
X7253515Y-15585793D01*
X7253515Y-15585793D02*
X7253515Y-15538174D01*
X7253515Y-15538174D02*
X7263039Y-15500079D01*
X7263039Y-15500079D02*
X7272563Y-15481031D01*
X7272563Y-15481031D02*
X7282086Y-15471508D01*
X7282086Y-15471508D02*
X7301134Y-15461984D01*
X7453515Y-15642936D02*
X7463039Y-15652460D01*
X7463039Y-15652460D02*
X7453515Y-15661984D01*
X7453515Y-15661984D02*
X7443991Y-15652460D01*
X7443991Y-15652460D02*
X7453515Y-15642936D01*
X7453515Y-15642936D02*
X7453515Y-15661984D01*
X7586848Y-15461984D02*
X7605896Y-15461984D01*
X7605896Y-15461984D02*
X7624944Y-15471508D01*
X7624944Y-15471508D02*
X7634467Y-15481031D01*
X7634467Y-15481031D02*
X7643991Y-15500079D01*
X7643991Y-15500079D02*
X7653515Y-15538174D01*
X7653515Y-15538174D02*
X7653515Y-15585793D01*
X7653515Y-15585793D02*
X7643991Y-15623888D01*
X7643991Y-15623888D02*
X7634467Y-15642936D01*
X7634467Y-15642936D02*
X7624944Y-15652460D01*
X7624944Y-15652460D02*
X7605896Y-15661984D01*
X7605896Y-15661984D02*
X7586848Y-15661984D01*
X7586848Y-15661984D02*
X7567801Y-15652460D01*
X7567801Y-15652460D02*
X7558277Y-15642936D01*
X7558277Y-15642936D02*
X7548753Y-15623888D01*
X7548753Y-15623888D02*
X7539229Y-15585793D01*
X7539229Y-15585793D02*
X7539229Y-15538174D01*
X7539229Y-15538174D02*
X7548753Y-15500079D01*
X7548753Y-15500079D02*
X7558277Y-15481031D01*
X7558277Y-15481031D02*
X7567801Y-15471508D01*
X7567801Y-15471508D02*
X7586848Y-15461984D01*
X7824944Y-15528650D02*
X7824944Y-15661984D01*
X7777325Y-15452460D02*
X7729706Y-15595317D01*
X7729706Y-15595317D02*
X7853515Y-15595317D01*
X7910658Y-15461984D02*
X8043991Y-15461984D01*
X8043991Y-15461984D02*
X7958277Y-15661984D01*
X8110658Y-15481031D02*
X8120182Y-15471508D01*
X8120182Y-15471508D02*
X8139229Y-15461984D01*
X8139229Y-15461984D02*
X8186848Y-15461984D01*
X8186848Y-15461984D02*
X8205896Y-15471508D01*
X8205896Y-15471508D02*
X8215420Y-15481031D01*
X8215420Y-15481031D02*
X8224944Y-15500079D01*
X8224944Y-15500079D02*
X8224944Y-15519127D01*
X8224944Y-15519127D02*
X8215420Y-15547698D01*
X8215420Y-15547698D02*
X8101134Y-15661984D01*
X8101134Y-15661984D02*
X8224944Y-15661984D01*
X8301134Y-15461984D02*
X8301134Y-15500079D01*
X8377325Y-15461984D02*
X8377325Y-15500079D01*
X8672563Y-15738174D02*
X8663039Y-15728650D01*
X8663039Y-15728650D02*
X8643991Y-15700079D01*
X8643991Y-15700079D02*
X8634468Y-15681031D01*
X8634468Y-15681031D02*
X8624944Y-15652460D01*
X8624944Y-15652460D02*
X8615420Y-15604841D01*
X8615420Y-15604841D02*
X8615420Y-15566746D01*
X8615420Y-15566746D02*
X8624944Y-15519127D01*
X8624944Y-15519127D02*
X8634468Y-15490555D01*
X8634468Y-15490555D02*
X8643991Y-15471508D01*
X8643991Y-15471508D02*
X8663039Y-15442936D01*
X8663039Y-15442936D02*
X8672563Y-15433412D01*
X8834468Y-15461984D02*
X8796372Y-15461984D01*
X8796372Y-15461984D02*
X8777325Y-15471508D01*
X8777325Y-15471508D02*
X8767801Y-15481031D01*
X8767801Y-15481031D02*
X8748753Y-15509603D01*
X8748753Y-15509603D02*
X8739230Y-15547698D01*
X8739230Y-15547698D02*
X8739230Y-15623888D01*
X8739230Y-15623888D02*
X8748753Y-15642936D01*
X8748753Y-15642936D02*
X8758277Y-15652460D01*
X8758277Y-15652460D02*
X8777325Y-15661984D01*
X8777325Y-15661984D02*
X8815420Y-15661984D01*
X8815420Y-15661984D02*
X8834468Y-15652460D01*
X8834468Y-15652460D02*
X8843991Y-15642936D01*
X8843991Y-15642936D02*
X8853515Y-15623888D01*
X8853515Y-15623888D02*
X8853515Y-15576269D01*
X8853515Y-15576269D02*
X8843991Y-15557222D01*
X8843991Y-15557222D02*
X8834468Y-15547698D01*
X8834468Y-15547698D02*
X8815420Y-15538174D01*
X8815420Y-15538174D02*
X8777325Y-15538174D01*
X8777325Y-15538174D02*
X8758277Y-15547698D01*
X8758277Y-15547698D02*
X8748753Y-15557222D01*
X8748753Y-15557222D02*
X8739230Y-15576269D01*
X8977325Y-15461984D02*
X8996372Y-15461984D01*
X8996372Y-15461984D02*
X9015420Y-15471508D01*
X9015420Y-15471508D02*
X9024944Y-15481031D01*
X9024944Y-15481031D02*
X9034468Y-15500079D01*
X9034468Y-15500079D02*
X9043991Y-15538174D01*
X9043991Y-15538174D02*
X9043991Y-15585793D01*
X9043991Y-15585793D02*
X9034468Y-15623888D01*
X9034468Y-15623888D02*
X9024944Y-15642936D01*
X9024944Y-15642936D02*
X9015420Y-15652460D01*
X9015420Y-15652460D02*
X8996372Y-15661984D01*
X8996372Y-15661984D02*
X8977325Y-15661984D01*
X8977325Y-15661984D02*
X8958277Y-15652460D01*
X8958277Y-15652460D02*
X8948753Y-15642936D01*
X8948753Y-15642936D02*
X8939230Y-15623888D01*
X8939230Y-15623888D02*
X8929706Y-15585793D01*
X8929706Y-15585793D02*
X8929706Y-15538174D01*
X8929706Y-15538174D02*
X8939230Y-15500079D01*
X8939230Y-15500079D02*
X8948753Y-15481031D01*
X8948753Y-15481031D02*
X8958277Y-15471508D01*
X8958277Y-15471508D02*
X8977325Y-15461984D01*
X9282087Y-15661984D02*
X9282087Y-15461984D01*
X9367801Y-15661984D02*
X9367801Y-15557222D01*
X9367801Y-15557222D02*
X9358277Y-15538174D01*
X9358277Y-15538174D02*
X9339230Y-15528650D01*
X9339230Y-15528650D02*
X9310658Y-15528650D01*
X9310658Y-15528650D02*
X9291611Y-15538174D01*
X9291611Y-15538174D02*
X9282087Y-15547698D01*
X9491611Y-15661984D02*
X9472563Y-15652460D01*
X9472563Y-15652460D02*
X9463039Y-15642936D01*
X9463039Y-15642936D02*
X9453515Y-15623888D01*
X9453515Y-15623888D02*
X9453515Y-15566746D01*
X9453515Y-15566746D02*
X9463039Y-15547698D01*
X9463039Y-15547698D02*
X9472563Y-15538174D01*
X9472563Y-15538174D02*
X9491611Y-15528650D01*
X9491611Y-15528650D02*
X9520182Y-15528650D01*
X9520182Y-15528650D02*
X9539230Y-15538174D01*
X9539230Y-15538174D02*
X9548753Y-15547698D01*
X9548753Y-15547698D02*
X9558277Y-15566746D01*
X9558277Y-15566746D02*
X9558277Y-15623888D01*
X9558277Y-15623888D02*
X9548753Y-15642936D01*
X9548753Y-15642936D02*
X9539230Y-15652460D01*
X9539230Y-15652460D02*
X9520182Y-15661984D01*
X9520182Y-15661984D02*
X9491611Y-15661984D01*
X9672563Y-15661984D02*
X9653515Y-15652460D01*
X9653515Y-15652460D02*
X9643992Y-15633412D01*
X9643992Y-15633412D02*
X9643992Y-15461984D01*
X9824944Y-15652460D02*
X9805896Y-15661984D01*
X9805896Y-15661984D02*
X9767801Y-15661984D01*
X9767801Y-15661984D02*
X9748753Y-15652460D01*
X9748753Y-15652460D02*
X9739230Y-15633412D01*
X9739230Y-15633412D02*
X9739230Y-15557222D01*
X9739230Y-15557222D02*
X9748753Y-15538174D01*
X9748753Y-15538174D02*
X9767801Y-15528650D01*
X9767801Y-15528650D02*
X9805896Y-15528650D01*
X9805896Y-15528650D02*
X9824944Y-15538174D01*
X9824944Y-15538174D02*
X9834468Y-15557222D01*
X9834468Y-15557222D02*
X9834468Y-15576269D01*
X9834468Y-15576269D02*
X9739230Y-15595317D01*
X9910658Y-15652460D02*
X9929706Y-15661984D01*
X9929706Y-15661984D02*
X9967801Y-15661984D01*
X9967801Y-15661984D02*
X9986849Y-15652460D01*
X9986849Y-15652460D02*
X9996373Y-15633412D01*
X9996373Y-15633412D02*
X9996373Y-15623888D01*
X9996373Y-15623888D02*
X9986849Y-15604841D01*
X9986849Y-15604841D02*
X9967801Y-15595317D01*
X9967801Y-15595317D02*
X9939230Y-15595317D01*
X9939230Y-15595317D02*
X9920182Y-15585793D01*
X9920182Y-15585793D02*
X9910658Y-15566746D01*
X9910658Y-15566746D02*
X9910658Y-15557222D01*
X9910658Y-15557222D02*
X9920182Y-15538174D01*
X9920182Y-15538174D02*
X9939230Y-15528650D01*
X9939230Y-15528650D02*
X9967801Y-15528650D01*
X9967801Y-15528650D02*
X9986849Y-15538174D01*
X10063039Y-15738174D02*
X10072563Y-15728650D01*
X10072563Y-15728650D02*
X10091611Y-15700079D01*
X10091611Y-15700079D02*
X10101134Y-15681031D01*
X10101134Y-15681031D02*
X10110658Y-15652460D01*
X10110658Y-15652460D02*
X10120182Y-15604841D01*
X10120182Y-15604841D02*
X10120182Y-15566746D01*
X10120182Y-15566746D02*
X10110658Y-15519127D01*
X10110658Y-15519127D02*
X10101134Y-15490555D01*
X10101134Y-15490555D02*
X10091611Y-15471508D01*
X10091611Y-15471508D02*
X10072563Y-15442936D01*
X10072563Y-15442936D02*
X10063039Y-15433412D01*
X5068211Y-15905211D02*
X5068211Y-15763789D01*
X4926789Y-15763789D01*
X4926789Y-15905211D01*
X5068211Y-15905211D01*
X5339229Y-15725984D02*
X5463039Y-15725984D01*
X5463039Y-15725984D02*
X5396372Y-15802174D01*
X5396372Y-15802174D02*
X5424944Y-15802174D01*
X5424944Y-15802174D02*
X5443991Y-15811698D01*
X5443991Y-15811698D02*
X5453515Y-15821222D01*
X5453515Y-15821222D02*
X5463039Y-15840269D01*
X5463039Y-15840269D02*
X5463039Y-15887888D01*
X5463039Y-15887888D02*
X5453515Y-15906936D01*
X5453515Y-15906936D02*
X5443991Y-15916460D01*
X5443991Y-15916460D02*
X5424944Y-15925984D01*
X5424944Y-15925984D02*
X5367801Y-15925984D01*
X5367801Y-15925984D02*
X5348753Y-15916460D01*
X5348753Y-15916460D02*
X5339229Y-15906936D01*
X5548753Y-15906936D02*
X5558277Y-15916460D01*
X5558277Y-15916460D02*
X5548753Y-15925984D01*
X5548753Y-15925984D02*
X5539229Y-15916460D01*
X5539229Y-15916460D02*
X5548753Y-15906936D01*
X5548753Y-15906936D02*
X5548753Y-15925984D01*
X5634467Y-15745031D02*
X5643991Y-15735508D01*
X5643991Y-15735508D02*
X5663039Y-15725984D01*
X5663039Y-15725984D02*
X5710658Y-15725984D01*
X5710658Y-15725984D02*
X5729705Y-15735508D01*
X5729705Y-15735508D02*
X5739229Y-15745031D01*
X5739229Y-15745031D02*
X5748753Y-15764079D01*
X5748753Y-15764079D02*
X5748753Y-15783127D01*
X5748753Y-15783127D02*
X5739229Y-15811698D01*
X5739229Y-15811698D02*
X5624943Y-15925984D01*
X5624943Y-15925984D02*
X5748753Y-15925984D01*
X5872562Y-15725984D02*
X5891610Y-15725984D01*
X5891610Y-15725984D02*
X5910658Y-15735508D01*
X5910658Y-15735508D02*
X5920182Y-15745031D01*
X5920182Y-15745031D02*
X5929705Y-15764079D01*
X5929705Y-15764079D02*
X5939229Y-15802174D01*
X5939229Y-15802174D02*
X5939229Y-15849793D01*
X5939229Y-15849793D02*
X5929705Y-15887888D01*
X5929705Y-15887888D02*
X5920182Y-15906936D01*
X5920182Y-15906936D02*
X5910658Y-15916460D01*
X5910658Y-15916460D02*
X5891610Y-15925984D01*
X5891610Y-15925984D02*
X5872562Y-15925984D01*
X5872562Y-15925984D02*
X5853515Y-15916460D01*
X5853515Y-15916460D02*
X5843991Y-15906936D01*
X5843991Y-15906936D02*
X5834467Y-15887888D01*
X5834467Y-15887888D02*
X5824943Y-15849793D01*
X5824943Y-15849793D02*
X5824943Y-15802174D01*
X5824943Y-15802174D02*
X5834467Y-15764079D01*
X5834467Y-15764079D02*
X5843991Y-15745031D01*
X5843991Y-15745031D02*
X5853515Y-15735508D01*
X5853515Y-15735508D02*
X5872562Y-15725984D01*
X6063039Y-15725984D02*
X6082086Y-15725984D01*
X6082086Y-15725984D02*
X6101134Y-15735508D01*
X6101134Y-15735508D02*
X6110658Y-15745031D01*
X6110658Y-15745031D02*
X6120182Y-15764079D01*
X6120182Y-15764079D02*
X6129705Y-15802174D01*
X6129705Y-15802174D02*
X6129705Y-15849793D01*
X6129705Y-15849793D02*
X6120182Y-15887888D01*
X6120182Y-15887888D02*
X6110658Y-15906936D01*
X6110658Y-15906936D02*
X6101134Y-15916460D01*
X6101134Y-15916460D02*
X6082086Y-15925984D01*
X6082086Y-15925984D02*
X6063039Y-15925984D01*
X6063039Y-15925984D02*
X6043991Y-15916460D01*
X6043991Y-15916460D02*
X6034467Y-15906936D01*
X6034467Y-15906936D02*
X6024943Y-15887888D01*
X6024943Y-15887888D02*
X6015420Y-15849793D01*
X6015420Y-15849793D02*
X6015420Y-15802174D01*
X6015420Y-15802174D02*
X6024943Y-15764079D01*
X6024943Y-15764079D02*
X6034467Y-15745031D01*
X6034467Y-15745031D02*
X6043991Y-15735508D01*
X6043991Y-15735508D02*
X6063039Y-15725984D01*
X6215420Y-15925984D02*
X6215420Y-15792650D01*
X6215420Y-15811698D02*
X6224943Y-15802174D01*
X6224943Y-15802174D02*
X6243991Y-15792650D01*
X6243991Y-15792650D02*
X6272563Y-15792650D01*
X6272563Y-15792650D02*
X6291610Y-15802174D01*
X6291610Y-15802174D02*
X6301134Y-15821222D01*
X6301134Y-15821222D02*
X6301134Y-15925984D01*
X6301134Y-15821222D02*
X6310658Y-15802174D01*
X6310658Y-15802174D02*
X6329705Y-15792650D01*
X6329705Y-15792650D02*
X6358277Y-15792650D01*
X6358277Y-15792650D02*
X6377324Y-15802174D01*
X6377324Y-15802174D02*
X6386848Y-15821222D01*
X6386848Y-15821222D02*
X6386848Y-15925984D01*
X6482086Y-15925984D02*
X6482086Y-15792650D01*
X6482086Y-15811698D02*
X6491610Y-15802174D01*
X6491610Y-15802174D02*
X6510658Y-15792650D01*
X6510658Y-15792650D02*
X6539229Y-15792650D01*
X6539229Y-15792650D02*
X6558277Y-15802174D01*
X6558277Y-15802174D02*
X6567801Y-15821222D01*
X6567801Y-15821222D02*
X6567801Y-15925984D01*
X6567801Y-15821222D02*
X6577324Y-15802174D01*
X6577324Y-15802174D02*
X6596372Y-15792650D01*
X6596372Y-15792650D02*
X6624943Y-15792650D01*
X6624943Y-15792650D02*
X6643991Y-15802174D01*
X6643991Y-15802174D02*
X6653515Y-15821222D01*
X6653515Y-15821222D02*
X6653515Y-15925984D01*
X7043991Y-15716460D02*
X6872563Y-15973603D01*
X7301134Y-15725984D02*
X7320182Y-15725984D01*
X7320182Y-15725984D02*
X7339229Y-15735508D01*
X7339229Y-15735508D02*
X7348753Y-15745031D01*
X7348753Y-15745031D02*
X7358277Y-15764079D01*
X7358277Y-15764079D02*
X7367801Y-15802174D01*
X7367801Y-15802174D02*
X7367801Y-15849793D01*
X7367801Y-15849793D02*
X7358277Y-15887888D01*
X7358277Y-15887888D02*
X7348753Y-15906936D01*
X7348753Y-15906936D02*
X7339229Y-15916460D01*
X7339229Y-15916460D02*
X7320182Y-15925984D01*
X7320182Y-15925984D02*
X7301134Y-15925984D01*
X7301134Y-15925984D02*
X7282086Y-15916460D01*
X7282086Y-15916460D02*
X7272563Y-15906936D01*
X7272563Y-15906936D02*
X7263039Y-15887888D01*
X7263039Y-15887888D02*
X7253515Y-15849793D01*
X7253515Y-15849793D02*
X7253515Y-15802174D01*
X7253515Y-15802174D02*
X7263039Y-15764079D01*
X7263039Y-15764079D02*
X7272563Y-15745031D01*
X7272563Y-15745031D02*
X7282086Y-15735508D01*
X7282086Y-15735508D02*
X7301134Y-15725984D01*
X7453515Y-15906936D02*
X7463039Y-15916460D01*
X7463039Y-15916460D02*
X7453515Y-15925984D01*
X7453515Y-15925984D02*
X7443991Y-15916460D01*
X7443991Y-15916460D02*
X7453515Y-15906936D01*
X7453515Y-15906936D02*
X7453515Y-15925984D01*
X7653515Y-15925984D02*
X7539229Y-15925984D01*
X7596372Y-15925984D02*
X7596372Y-15725984D01*
X7596372Y-15725984D02*
X7577325Y-15754555D01*
X7577325Y-15754555D02*
X7558277Y-15773603D01*
X7558277Y-15773603D02*
X7539229Y-15783127D01*
X7729706Y-15745031D02*
X7739229Y-15735508D01*
X7739229Y-15735508D02*
X7758277Y-15725984D01*
X7758277Y-15725984D02*
X7805896Y-15725984D01*
X7805896Y-15725984D02*
X7824944Y-15735508D01*
X7824944Y-15735508D02*
X7834467Y-15745031D01*
X7834467Y-15745031D02*
X7843991Y-15764079D01*
X7843991Y-15764079D02*
X7843991Y-15783127D01*
X7843991Y-15783127D02*
X7834467Y-15811698D01*
X7834467Y-15811698D02*
X7720182Y-15925984D01*
X7720182Y-15925984D02*
X7843991Y-15925984D01*
X8015420Y-15725984D02*
X7977325Y-15725984D01*
X7977325Y-15725984D02*
X7958277Y-15735508D01*
X7958277Y-15735508D02*
X7948753Y-15745031D01*
X7948753Y-15745031D02*
X7929706Y-15773603D01*
X7929706Y-15773603D02*
X7920182Y-15811698D01*
X7920182Y-15811698D02*
X7920182Y-15887888D01*
X7920182Y-15887888D02*
X7929706Y-15906936D01*
X7929706Y-15906936D02*
X7939229Y-15916460D01*
X7939229Y-15916460D02*
X7958277Y-15925984D01*
X7958277Y-15925984D02*
X7996372Y-15925984D01*
X7996372Y-15925984D02*
X8015420Y-15916460D01*
X8015420Y-15916460D02*
X8024944Y-15906936D01*
X8024944Y-15906936D02*
X8034467Y-15887888D01*
X8034467Y-15887888D02*
X8034467Y-15840269D01*
X8034467Y-15840269D02*
X8024944Y-15821222D01*
X8024944Y-15821222D02*
X8015420Y-15811698D01*
X8015420Y-15811698D02*
X7996372Y-15802174D01*
X7996372Y-15802174D02*
X7958277Y-15802174D01*
X7958277Y-15802174D02*
X7939229Y-15811698D01*
X7939229Y-15811698D02*
X7929706Y-15821222D01*
X7929706Y-15821222D02*
X7920182Y-15840269D01*
X8158277Y-15725984D02*
X8177325Y-15725984D01*
X8177325Y-15725984D02*
X8196372Y-15735508D01*
X8196372Y-15735508D02*
X8205896Y-15745031D01*
X8205896Y-15745031D02*
X8215420Y-15764079D01*
X8215420Y-15764079D02*
X8224944Y-15802174D01*
X8224944Y-15802174D02*
X8224944Y-15849793D01*
X8224944Y-15849793D02*
X8215420Y-15887888D01*
X8215420Y-15887888D02*
X8205896Y-15906936D01*
X8205896Y-15906936D02*
X8196372Y-15916460D01*
X8196372Y-15916460D02*
X8177325Y-15925984D01*
X8177325Y-15925984D02*
X8158277Y-15925984D01*
X8158277Y-15925984D02*
X8139229Y-15916460D01*
X8139229Y-15916460D02*
X8129706Y-15906936D01*
X8129706Y-15906936D02*
X8120182Y-15887888D01*
X8120182Y-15887888D02*
X8110658Y-15849793D01*
X8110658Y-15849793D02*
X8110658Y-15802174D01*
X8110658Y-15802174D02*
X8120182Y-15764079D01*
X8120182Y-15764079D02*
X8129706Y-15745031D01*
X8129706Y-15745031D02*
X8139229Y-15735508D01*
X8139229Y-15735508D02*
X8158277Y-15725984D01*
X8301134Y-15725984D02*
X8301134Y-15764079D01*
X8377325Y-15725984D02*
X8377325Y-15764079D01*
X8672563Y-16002174D02*
X8663039Y-15992650D01*
X8663039Y-15992650D02*
X8643991Y-15964079D01*
X8643991Y-15964079D02*
X8634468Y-15945031D01*
X8634468Y-15945031D02*
X8624944Y-15916460D01*
X8624944Y-15916460D02*
X8615420Y-15868841D01*
X8615420Y-15868841D02*
X8615420Y-15830746D01*
X8615420Y-15830746D02*
X8624944Y-15783127D01*
X8624944Y-15783127D02*
X8634468Y-15754555D01*
X8634468Y-15754555D02*
X8643991Y-15735508D01*
X8643991Y-15735508D02*
X8663039Y-15706936D01*
X8663039Y-15706936D02*
X8672563Y-15697412D01*
X8834468Y-15792650D02*
X8834468Y-15925984D01*
X8786849Y-15716460D02*
X8739230Y-15859317D01*
X8739230Y-15859317D02*
X8863039Y-15859317D01*
X9091611Y-15925984D02*
X9091611Y-15725984D01*
X9177325Y-15925984D02*
X9177325Y-15821222D01*
X9177325Y-15821222D02*
X9167801Y-15802174D01*
X9167801Y-15802174D02*
X9148753Y-15792650D01*
X9148753Y-15792650D02*
X9120182Y-15792650D01*
X9120182Y-15792650D02*
X9101134Y-15802174D01*
X9101134Y-15802174D02*
X9091611Y-15811698D01*
X9301134Y-15925984D02*
X9282087Y-15916460D01*
X9282087Y-15916460D02*
X9272563Y-15906936D01*
X9272563Y-15906936D02*
X9263039Y-15887888D01*
X9263039Y-15887888D02*
X9263039Y-15830746D01*
X9263039Y-15830746D02*
X9272563Y-15811698D01*
X9272563Y-15811698D02*
X9282087Y-15802174D01*
X9282087Y-15802174D02*
X9301134Y-15792650D01*
X9301134Y-15792650D02*
X9329706Y-15792650D01*
X9329706Y-15792650D02*
X9348753Y-15802174D01*
X9348753Y-15802174D02*
X9358277Y-15811698D01*
X9358277Y-15811698D02*
X9367801Y-15830746D01*
X9367801Y-15830746D02*
X9367801Y-15887888D01*
X9367801Y-15887888D02*
X9358277Y-15906936D01*
X9358277Y-15906936D02*
X9348753Y-15916460D01*
X9348753Y-15916460D02*
X9329706Y-15925984D01*
X9329706Y-15925984D02*
X9301134Y-15925984D01*
X9482087Y-15925984D02*
X9463039Y-15916460D01*
X9463039Y-15916460D02*
X9453515Y-15897412D01*
X9453515Y-15897412D02*
X9453515Y-15725984D01*
X9634468Y-15916460D02*
X9615420Y-15925984D01*
X9615420Y-15925984D02*
X9577325Y-15925984D01*
X9577325Y-15925984D02*
X9558277Y-15916460D01*
X9558277Y-15916460D02*
X9548753Y-15897412D01*
X9548753Y-15897412D02*
X9548753Y-15821222D01*
X9548753Y-15821222D02*
X9558277Y-15802174D01*
X9558277Y-15802174D02*
X9577325Y-15792650D01*
X9577325Y-15792650D02*
X9615420Y-15792650D01*
X9615420Y-15792650D02*
X9634468Y-15802174D01*
X9634468Y-15802174D02*
X9643992Y-15821222D01*
X9643992Y-15821222D02*
X9643992Y-15840269D01*
X9643992Y-15840269D02*
X9548753Y-15859317D01*
X9720182Y-15916460D02*
X9739230Y-15925984D01*
X9739230Y-15925984D02*
X9777325Y-15925984D01*
X9777325Y-15925984D02*
X9796373Y-15916460D01*
X9796373Y-15916460D02*
X9805896Y-15897412D01*
X9805896Y-15897412D02*
X9805896Y-15887888D01*
X9805896Y-15887888D02*
X9796373Y-15868841D01*
X9796373Y-15868841D02*
X9777325Y-15859317D01*
X9777325Y-15859317D02*
X9748753Y-15859317D01*
X9748753Y-15859317D02*
X9729706Y-15849793D01*
X9729706Y-15849793D02*
X9720182Y-15830746D01*
X9720182Y-15830746D02*
X9720182Y-15821222D01*
X9720182Y-15821222D02*
X9729706Y-15802174D01*
X9729706Y-15802174D02*
X9748753Y-15792650D01*
X9748753Y-15792650D02*
X9777325Y-15792650D01*
X9777325Y-15792650D02*
X9796373Y-15802174D01*
X9872563Y-16002174D02*
X9882087Y-15992650D01*
X9882087Y-15992650D02*
X9901134Y-15964079D01*
X9901134Y-15964079D02*
X9910658Y-15945031D01*
X9910658Y-15945031D02*
X9920182Y-15916460D01*
X9920182Y-15916460D02*
X9929706Y-15868841D01*
X9929706Y-15868841D02*
X9929706Y-15830746D01*
X9929706Y-15830746D02*
X9920182Y-15783127D01*
X9920182Y-15783127D02*
X9910658Y-15754555D01*
X9910658Y-15754555D02*
X9901134Y-15735508D01*
X9901134Y-15735508D02*
X9882087Y-15706936D01*
X9882087Y-15706936D02*
X9872563Y-15697412D01*
M02*
