G04 #@! TF.GenerationSoftware,KiCad,Pcbnew,9.0.3*
G04 #@! TF.CreationDate,2025-08-04T14:39:46+02:00*
G04 #@! TF.ProjectId,esp-motioncontroller,6573702d-6d6f-4746-996f-6e636f6e7472,1.0.0*
G04 #@! TF.SameCoordinates,Original*
G04 #@! TF.FileFunction,Paste,Top*
G04 #@! TF.FilePolarity,Positive*
%FSLAX46Y46*%
G04 Gerber Fmt 4.6, Leading zero omitted, Abs format (unit mm)*
G04 Created by KiCad (PCBNEW 9.0.3) date 2025-08-04 14:39:46*
%MOMM*%
%LPD*%
G01*
G04 APERTURE LIST*
G04 Aperture macros list*
%AMRoundRect*
0 Rectangle with rounded corners*
0 $1 Rounding radius*
0 $2 $3 $4 $5 $6 $7 $8 $9 X,Y pos of 4 corners*
0 Add a 4 corners polygon primitive as box body*
4,1,4,$2,$3,$4,$5,$6,$7,$8,$9,$2,$3,0*
0 Add four circle primitives for the rounded corners*
1,1,$1+$1,$2,$3*
1,1,$1+$1,$4,$5*
1,1,$1+$1,$6,$7*
1,1,$1+$1,$8,$9*
0 Add four rect primitives between the rounded corners*
20,1,$1+$1,$2,$3,$4,$5,0*
20,1,$1+$1,$4,$5,$6,$7,0*
20,1,$1+$1,$6,$7,$8,$9,0*
20,1,$1+$1,$8,$9,$2,$3,0*%
G04 Aperture macros list end*
%ADD10RoundRect,0.225000X0.225000X0.250000X-0.225000X0.250000X-0.225000X-0.250000X0.225000X-0.250000X0*%
%ADD11RoundRect,0.150000X-0.150000X0.825000X-0.150000X-0.825000X0.150000X-0.825000X0.150000X0.825000X0*%
%ADD12RoundRect,0.250000X-0.325000X-0.650000X0.325000X-0.650000X0.325000X0.650000X-0.325000X0.650000X0*%
%ADD13RoundRect,0.200000X0.200000X0.275000X-0.200000X0.275000X-0.200000X-0.275000X0.200000X-0.275000X0*%
%ADD14RoundRect,0.200000X0.275000X-0.200000X0.275000X0.200000X-0.275000X0.200000X-0.275000X-0.200000X0*%
%ADD15RoundRect,0.250000X-0.650000X0.325000X-0.650000X-0.325000X0.650000X-0.325000X0.650000X0.325000X0*%
%ADD16RoundRect,0.200000X-0.275000X0.200000X-0.275000X-0.200000X0.275000X-0.200000X0.275000X0.200000X0*%
%ADD17RoundRect,0.225000X-0.250000X0.225000X-0.250000X-0.225000X0.250000X-0.225000X0.250000X0.225000X0*%
%ADD18RoundRect,0.250000X-0.650000X1.000000X-0.650000X-1.000000X0.650000X-1.000000X0.650000X1.000000X0*%
%ADD19RoundRect,0.150000X-0.825000X-0.150000X0.825000X-0.150000X0.825000X0.150000X-0.825000X0.150000X0*%
%ADD20RoundRect,0.200000X-0.200000X-0.275000X0.200000X-0.275000X0.200000X0.275000X-0.200000X0.275000X0*%
%ADD21R,1.800000X1.000000*%
%ADD22RoundRect,0.250000X0.650000X-1.000000X0.650000X1.000000X-0.650000X1.000000X-0.650000X-1.000000X0*%
%ADD23RoundRect,0.249999X-0.640001X0.750001X-0.640001X-0.750001X0.640001X-0.750001X0.640001X0.750001X0*%
%ADD24RoundRect,0.249999X0.640001X-0.750001X0.640001X0.750001X-0.640001X0.750001X-0.640001X-0.750001X0*%
%ADD25RoundRect,0.375000X0.625000X0.375000X-0.625000X0.375000X-0.625000X-0.375000X0.625000X-0.375000X0*%
%ADD26RoundRect,0.500000X0.500000X1.400000X-0.500000X1.400000X-0.500000X-1.400000X0.500000X-1.400000X0*%
%ADD27RoundRect,0.250000X1.000000X0.650000X-1.000000X0.650000X-1.000000X-0.650000X1.000000X-0.650000X0*%
%ADD28RoundRect,0.500000X0.500000X2.250000X-0.500000X2.250000X-0.500000X-2.250000X0.500000X-2.250000X0*%
%ADD29RoundRect,0.150000X0.150000X-0.825000X0.150000X0.825000X-0.150000X0.825000X-0.150000X-0.825000X0*%
G04 APERTURE END LIST*
D10*
G04 #@! TO.C,C18*
X129521388Y-77500000D03*
X127971388Y-77500000D03*
G04 #@! TD*
D11*
G04 #@! TO.C,U3*
X128905000Y-59525000D03*
X127635000Y-59525000D03*
X126365000Y-59525000D03*
X125095000Y-59525000D03*
X125095000Y-64475000D03*
X126365000Y-64475000D03*
X127635000Y-64475000D03*
X128905000Y-64475000D03*
G04 #@! TD*
D12*
G04 #@! TO.C,C3*
X119586444Y-58455138D03*
X122536444Y-58455138D03*
G04 #@! TD*
G04 #@! TO.C,C12*
X119586444Y-65955138D03*
X122536444Y-65955138D03*
G04 #@! TD*
D13*
G04 #@! TO.C,R21*
X91825000Y-117000000D03*
X90175000Y-117000000D03*
G04 #@! TD*
G04 #@! TO.C,R16*
X75500000Y-131000000D03*
X73850000Y-131000000D03*
G04 #@! TD*
G04 #@! TO.C,R19*
X67750000Y-117000000D03*
X66100000Y-117000000D03*
G04 #@! TD*
D14*
G04 #@! TO.C,R23*
X133000000Y-117825000D03*
X133000000Y-116175000D03*
G04 #@! TD*
D13*
G04 #@! TO.C,R20*
X83000000Y-117000000D03*
X81350000Y-117000000D03*
G04 #@! TD*
D15*
G04 #@! TO.C,C5*
X133500000Y-59525000D03*
X133500000Y-62475000D03*
G04 #@! TD*
D12*
G04 #@! TO.C,C8*
X119586444Y-63455138D03*
X122536444Y-63455138D03*
G04 #@! TD*
D16*
G04 #@! TO.C,C4*
X80500000Y-70175000D03*
X80500000Y-71825000D03*
G04 #@! TD*
D17*
G04 #@! TO.C,C19*
X64900000Y-62525000D03*
X64900000Y-64075000D03*
G04 #@! TD*
D14*
G04 #@! TO.C,R13*
X79000000Y-75825000D03*
X79000000Y-74175000D03*
G04 #@! TD*
D18*
G04 #@! TO.C,D1*
X131501087Y-51706794D03*
X131501087Y-55706794D03*
G04 #@! TD*
D16*
G04 #@! TO.C,R12*
X135800000Y-80175000D03*
X135800000Y-81825000D03*
G04 #@! TD*
D19*
G04 #@! TO.C,U4*
X124771388Y-79095000D03*
X124771388Y-80365000D03*
X124771388Y-81635000D03*
X124771388Y-82905000D03*
X129721388Y-82905000D03*
X129721388Y-81635000D03*
X129721388Y-80365000D03*
X129721388Y-79095000D03*
G04 #@! TD*
D15*
G04 #@! TO.C,C2*
X131000000Y-59525000D03*
X131000000Y-62475000D03*
G04 #@! TD*
D20*
G04 #@! TO.C,R8*
X119350000Y-80500000D03*
X121000000Y-80500000D03*
G04 #@! TD*
D21*
G04 #@! TO.C,Y1*
X78500000Y-70750000D03*
X78500000Y-68250000D03*
G04 #@! TD*
D14*
G04 #@! TO.C,R1*
X109000000Y-117825000D03*
X109000000Y-116175000D03*
G04 #@! TD*
D12*
G04 #@! TO.C,C6*
X119586444Y-60955138D03*
X122536444Y-60955138D03*
G04 #@! TD*
D16*
G04 #@! TO.C,C1*
X80500000Y-67175000D03*
X80500000Y-68825000D03*
G04 #@! TD*
D20*
G04 #@! TO.C,R11*
X132000000Y-80250997D03*
X133650000Y-80250997D03*
G04 #@! TD*
D13*
G04 #@! TO.C,R17*
X74500000Y-117000000D03*
X72850000Y-117000000D03*
G04 #@! TD*
D14*
G04 #@! TO.C,R22*
X125500000Y-117825000D03*
X125500000Y-116175000D03*
G04 #@! TD*
D22*
G04 #@! TO.C,D3*
X137000000Y-59000000D03*
X137000000Y-55000000D03*
G04 #@! TD*
D23*
G04 #@! TO.C,U14*
X133270000Y-120235000D03*
X130730000Y-120235000D03*
X130730000Y-129765000D03*
X133270000Y-129765000D03*
G04 #@! TD*
D15*
G04 #@! TO.C,C21*
X134216540Y-69674908D03*
X134216540Y-72624908D03*
G04 #@! TD*
D20*
G04 #@! TO.C,R2*
X119350000Y-83500000D03*
X121000000Y-83500000D03*
G04 #@! TD*
D24*
G04 #@! TO.C,U8*
X83230000Y-128765000D03*
X85770000Y-128765000D03*
X85770000Y-119235000D03*
X83230000Y-119235000D03*
G04 #@! TD*
D13*
G04 #@! TO.C,R15*
X121000000Y-79000000D03*
X119350000Y-79000000D03*
G04 #@! TD*
D20*
G04 #@! TO.C,R9*
X119350000Y-82000000D03*
X121000000Y-82000000D03*
G04 #@! TD*
D23*
G04 #@! TO.C,U13*
X125270000Y-120235000D03*
X122730000Y-120235000D03*
X122730000Y-129765000D03*
X125270000Y-129765000D03*
G04 #@! TD*
G04 #@! TO.C,U11*
X117270000Y-120235000D03*
X114730000Y-120235000D03*
X114730000Y-129765000D03*
X117270000Y-129765000D03*
G04 #@! TD*
D25*
G04 #@! TO.C,U15*
X131150000Y-74300000D03*
X131150000Y-72000000D03*
D26*
X124850000Y-72000000D03*
D25*
X131150000Y-69700000D03*
G04 #@! TD*
D13*
G04 #@! TO.C,R5*
X83000000Y-131000000D03*
X81350000Y-131000000D03*
G04 #@! TD*
D11*
G04 #@! TO.C,U2*
X73445000Y-100525000D03*
X72175000Y-100525000D03*
X70905000Y-100525000D03*
X69635000Y-100525000D03*
X68365000Y-100525000D03*
X67095000Y-100525000D03*
X65825000Y-100525000D03*
X64555000Y-100525000D03*
X64555000Y-105475000D03*
X65825000Y-105475000D03*
X67095000Y-105475000D03*
X68365000Y-105475000D03*
X69635000Y-105475000D03*
X70905000Y-105475000D03*
X72175000Y-105475000D03*
X73445000Y-105475000D03*
G04 #@! TD*
D24*
G04 #@! TO.C,U6*
X66230000Y-128765000D03*
X68770000Y-128765000D03*
X68770000Y-119235000D03*
X66230000Y-119235000D03*
G04 #@! TD*
D20*
G04 #@! TO.C,R7*
X119350000Y-77440000D03*
X121000000Y-77440000D03*
G04 #@! TD*
D23*
G04 #@! TO.C,U9*
X109270000Y-120235000D03*
X106730000Y-120235000D03*
X106730000Y-129765000D03*
X109270000Y-129765000D03*
G04 #@! TD*
D24*
G04 #@! TO.C,U12*
X91730000Y-128765000D03*
X94270000Y-128765000D03*
X94270000Y-119235000D03*
X91730000Y-119235000D03*
G04 #@! TD*
D13*
G04 #@! TO.C,R6*
X91500000Y-131000000D03*
X89850000Y-131000000D03*
G04 #@! TD*
D15*
G04 #@! TO.C,C22*
X122000000Y-72050000D03*
X122000000Y-75000000D03*
G04 #@! TD*
D27*
G04 #@! TO.C,D2*
X122000000Y-69000000D03*
X118000000Y-69000000D03*
G04 #@! TD*
D28*
G04 #@! TO.C,L1*
X128100000Y-52000000D03*
X119900000Y-52000000D03*
G04 #@! TD*
D20*
G04 #@! TO.C,R10*
X132000000Y-81750997D03*
X133650000Y-81750997D03*
G04 #@! TD*
D17*
G04 #@! TO.C,C7*
X73553790Y-107683971D03*
X73553790Y-109233971D03*
G04 #@! TD*
D16*
G04 #@! TO.C,R4*
X78000000Y-90175000D03*
X78000000Y-91825000D03*
G04 #@! TD*
D13*
G04 #@! TO.C,R18*
X65825000Y-131000000D03*
X64175000Y-131000000D03*
G04 #@! TD*
D14*
G04 #@! TO.C,R3*
X117000000Y-117825000D03*
X117000000Y-116175000D03*
G04 #@! TD*
D24*
G04 #@! TO.C,U7*
X74730000Y-128765000D03*
X77270000Y-128765000D03*
X77270000Y-119235000D03*
X74730000Y-119235000D03*
G04 #@! TD*
D29*
G04 #@! TO.C,U5*
X66655000Y-67375000D03*
X67925000Y-67375000D03*
X69195000Y-67375000D03*
X70465000Y-67375000D03*
X71735000Y-67375000D03*
X73005000Y-67375000D03*
X74275000Y-67375000D03*
X75545000Y-67375000D03*
X75545000Y-62425000D03*
X74275000Y-62425000D03*
X73005000Y-62425000D03*
X71735000Y-62425000D03*
X70465000Y-62425000D03*
X69195000Y-62425000D03*
X67925000Y-62425000D03*
X66655000Y-62425000D03*
G04 #@! TD*
M02*
