M48
; DRILL file {KiCad 9.0.3} date 2025-08-04T15:00:31+0200
; FORMAT={-:-/ absolute / metric / decimal}
; #@! TF.CreationDate,2025-08-04T15:00:31+02:00
; #@! TF.GenerationSoftware,Kicad,Pcbnew,9.0.3
; #@! TF.FileFunction,MixedPlating,1,2
FMAT,2
METRIC
; #@! TA.AperFunction,Plated,PTH,ViaDrill
T1C0.400
; #@! TA.AperFunction,Plated,PTH,ComponentDrill
T2C0.800
; #@! TA.AperFunction,Plated,PTH,ComponentDrill
T3C1.200
; #@! TA.AperFunction,Plated,PTH,ComponentDrill
T4C3.200
%
G90
G05
T1
X52.5Y-52.5
X52.5Y-55.0
X52.5Y-62.5
X52.5Y-70.0
X52.5Y-77.5
X52.5Y-85.0
X52.5Y-92.5
X52.5Y-102.5
X52.5Y-110.0
X52.5Y-117.5
X52.5Y-135.0
X55.925Y-83.727
X55.925Y-123.727
X55.925Y-128.727
X55.925Y-133.727
X57.5Y-45.0
X58.502Y-47.714
X59.4Y-88.0
X60.0Y-142.5
X60.925Y-128.727
X60.925Y-133.727
X60.925Y-138.727
X61.4Y-110.0
X61.6Y-103.8
X61.8Y-73.8
X61.8Y-101.4
X62.0Y-70.2
X62.0Y-97.2
X62.179Y-62.552
X62.2Y-112.2
X62.4Y-95.0
X62.5Y-45.0
X62.5Y-142.5
X63.164Y-100.482
X63.2Y-107.4
X63.5Y-64.0
X63.8Y-91.0
X63.895Y-51.156
X64.4Y-112.0
X64.442Y-127.122
X64.545Y-102.662
X64.555Y-98.445
X65.0Y-65.5
X65.148Y-68.531
X65.177Y-60.742
X65.4Y-85.4
X65.925Y-78.727
X65.925Y-88.727
X65.925Y-108.727
X65.925Y-123.727
X65.925Y-138.727
X66.0Y-73.0
X66.305Y-47.714
X67.5Y-45.0
X67.8Y-102.8
X67.8Y-109.0
X68.0Y-60.4
X68.362Y-107.717
X68.581Y-64.698
X68.6Y-94.4
X68.6Y-98.6
X68.6Y-115.6
X69.0Y-117.5
X69.39Y-126.752
X70.0Y-91.2
X70.2Y-69.6
X70.265Y-119.235
X70.6Y-113.6
X70.8Y-118.0
X70.925Y-78.727
X70.925Y-83.727
X70.925Y-88.727
X70.925Y-123.727
X70.925Y-138.727
X71.746Y-60.0
X72.318Y-122.017
X72.4Y-111.8
X72.4Y-115.2
X72.5Y-45.0
X72.5Y-142.5
X73.0Y-98.6
X73.19Y-51.328
X73.6Y-110.6
X73.766Y-70.66
X73.993Y-47.714
X74.6Y-108.6
X74.8Y-106.4
X75.2Y-108.0
X75.4Y-96.6
X75.8Y-116.4
X75.925Y-53.727
X75.925Y-58.727
X75.925Y-73.727
X75.925Y-78.727
X75.925Y-123.727
X75.925Y-138.727
X76.0Y-69.0
X76.5Y-67.5
X76.918Y-69.827
X77.19Y-66.74
X77.2Y-93.2
X77.2Y-99.6
X77.5Y-117.5
X77.541Y-63.556
X77.6Y-114.8
X77.8Y-106.2
X78.0Y-89.0
X78.951Y-66.854
X79.0Y-89.0
X79.1Y-119.1
X79.184Y-64.968
X79.8Y-91.4
X79.8Y-118.4
X79.994Y-59.975
X80.317Y-110.32
X80.396Y-105.611
X80.465Y-75.693
X80.494Y-74.758
X80.53Y-72.867
X80.8Y-93.4
X80.925Y-53.727
X80.925Y-78.727
X80.925Y-123.727
X80.925Y-138.727
X81.157Y-121.542
X81.181Y-61.775
X81.2Y-87.0
X81.451Y-51.213
X81.5Y-67.0
X81.858Y-67.841
X82.0Y-72.0
X82.2Y-95.2
X82.5Y-142.5
X85.7Y-117.1
X85.925Y-58.727
X85.925Y-63.727
X85.925Y-68.727
X85.925Y-73.727
X85.925Y-103.727
X85.925Y-113.727
X85.925Y-123.727
X85.925Y-138.727
X86.0Y-93.0
X86.128Y-90.8
X86.395Y-95.15
X86.484Y-83.298
X86.6Y-77.4
X87.7Y-119.1
X87.8Y-116.4
X90.925Y-58.727
X90.925Y-63.727
X90.925Y-68.727
X90.925Y-73.727
X90.925Y-88.727
X90.925Y-93.727
X90.925Y-98.727
X90.925Y-103.727
X90.925Y-108.727
X90.925Y-123.727
X90.925Y-138.727
X91.6Y-82.4
X92.5Y-142.5
X92.8Y-114.0
X93.0Y-95.4
X94.3Y-117.1
X94.3Y-121.1
X95.925Y-53.727
X95.925Y-58.727
X95.925Y-63.727
X95.925Y-68.727
X95.925Y-73.727
X95.925Y-78.727
X95.925Y-83.727
X95.925Y-88.727
X95.925Y-93.727
X95.925Y-98.727
X95.925Y-103.727
X95.925Y-108.727
X95.925Y-113.727
X95.925Y-133.727
X100.162Y-105.647
X100.925Y-53.727
X100.925Y-58.727
X100.925Y-63.727
X100.925Y-113.727
X100.925Y-118.727
X100.925Y-123.727
X100.925Y-128.727
X100.925Y-133.727
X101.65Y-92.4
X101.65Y-102.8
X104.463Y-64.836
X104.525Y-67.349
X104.8Y-74.8
X104.8Y-85.0
X104.8Y-100.2
X104.8Y-120.4
X105.0Y-52.0
X105.0Y-90.2
X105.0Y-142.5
X105.105Y-72.493
X105.925Y-123.727
X106.039Y-125.703
X106.8Y-118.0
X108.925Y-114.419
X110.2Y-67.2
X110.377Y-72.371
X110.405Y-74.946
X110.432Y-62.231
X110.435Y-117.385
X110.474Y-64.764
X110.925Y-83.727
X110.925Y-98.727
X110.925Y-103.727
X110.925Y-108.727
X110.925Y-123.727
X110.925Y-133.727
X111.0Y-60.0
X111.4Y-51.2
X111.6Y-113.6
X112.2Y-57.0
X113.0Y-120.2
X113.785Y-125.941
X114.8Y-79.0
X114.8Y-118.2
X114.869Y-74.023
X115.0Y-126.0
X115.0Y-142.5
X115.902Y-74.884
X115.925Y-83.727
X115.925Y-88.727
X115.925Y-93.727
X115.925Y-98.727
X115.925Y-103.727
X115.925Y-108.727
X115.925Y-123.727
X117.5Y-45.0
X117.5Y-52.5
X117.5Y-55.0
X117.5Y-60.0
X117.5Y-65.0
X117.8Y-79.0
X120.0Y-45.0
X120.148Y-74.999
X120.536Y-89.92
X120.6Y-120.2
X120.925Y-108.727
X120.925Y-113.727
X120.925Y-123.727
X121.134Y-126.013
X122.6Y-118.2
X122.902Y-73.564
X123.861Y-59.627
X123.861Y-64.744
X123.961Y-60.855
X123.961Y-66.055
X123.98Y-75.0
X123.997Y-62.16
X124.161Y-58.455
X124.161Y-63.455
X125.0Y-45.0
X125.0Y-126.0
X125.0Y-142.5
X125.3Y-66.3
X125.426Y-74.941
X125.536Y-89.92
X125.925Y-108.727
X125.925Y-113.727
X125.925Y-123.727
X125.986Y-67.464
X126.5Y-66.3
X126.746Y-77.5
X127.2Y-81.0
X127.7Y-66.3
X127.8Y-78.8
X127.8Y-84.4
X128.352Y-73.851
X128.434Y-67.362
X128.6Y-120.4
X128.9Y-66.3
X129.032Y-74.874
X129.746Y-84.1
X130.0Y-45.0
X130.184Y-57.543
X130.4Y-118.4
X130.536Y-89.92
X130.925Y-48.727
X130.925Y-108.727
X130.925Y-123.727
X131.01Y-63.618
X131.3Y-75.9
X131.525Y-78.203
X131.946Y-83.3
X132.089Y-65.9
X132.3Y-63.7
X132.5Y-75.5
X133.0Y-57.543
X133.086Y-54.086
X133.392Y-74.491
X133.5Y-63.7
X133.8Y-127.4
X134.274Y-73.649
X135.0Y-47.5
X135.0Y-67.5
X135.0Y-142.5
X135.925Y-48.727
X135.925Y-63.727
X135.925Y-78.727
X135.925Y-83.727
X135.925Y-88.727
X135.925Y-93.727
X135.925Y-98.727
X135.925Y-103.727
X135.925Y-108.727
X135.925Y-113.727
X135.925Y-118.727
X135.925Y-123.727
X135.925Y-128.727
X135.925Y-133.727
X136.07Y-72.63
X137.5Y-45.0
X137.5Y-65.0
X137.5Y-72.5
X137.5Y-77.5
X140.0Y-57.5
X140.0Y-62.5
X140.0Y-67.5
X140.0Y-72.5
X140.0Y-77.5
X140.0Y-142.5
X140.925Y-48.727
X140.925Y-88.727
X140.925Y-103.727
X140.925Y-113.727
X140.925Y-128.727
X140.925Y-133.727
X142.5Y-45.0
X145.925Y-58.727
X145.925Y-63.727
X145.925Y-73.727
X145.925Y-78.727
X145.925Y-83.727
X145.925Y-93.727
X145.925Y-98.727
X145.925Y-103.727
X145.925Y-108.727
X145.925Y-113.727
X145.925Y-118.727
X145.925Y-123.727
X145.925Y-128.727
X147.174Y-68.533
X149.623Y-135.089
X150.0Y-54.4
X150.0Y-57.5
X150.0Y-65.0
X150.0Y-72.5
X150.0Y-80.0
X150.0Y-90.0
X150.0Y-97.5
X150.0Y-105.0
X150.0Y-112.5
X150.0Y-117.5
X150.0Y-122.5
X150.0Y-127.5
X150.0Y-132.5
X150.0Y-137.5
T2
X67.66Y-85.6
X70.2Y-85.6
X71.5Y-126.5
X71.5Y-129.04
X80.0Y-126.46
X80.0Y-129.0
X83.816Y-99.057
X83.816Y-101.597
X83.816Y-104.137
X83.82Y-50.8
X83.82Y-53.34
X83.82Y-55.88
X83.82Y-58.42
X83.82Y-60.96
X83.82Y-63.5
X83.82Y-66.04
X83.82Y-68.58
X83.82Y-71.12
X83.82Y-73.66
X83.82Y-76.2
X83.82Y-78.74
X83.82Y-81.28
X83.82Y-83.82
X83.82Y-86.36
X83.82Y-88.9
X83.82Y-91.44
X83.82Y-93.98
X83.82Y-96.52
X88.5Y-126.25
X88.5Y-128.79
X97.0Y-121.46
X97.0Y-124.0
X97.0Y-126.95
X97.0Y-129.49
X104.0Y-122.0
X104.0Y-124.54
X104.0Y-127.46
X104.0Y-130.0
X106.68Y-50.8
X106.68Y-53.34
X106.68Y-55.88
X106.68Y-58.42
X106.68Y-60.96
X106.68Y-63.5
X106.68Y-66.04
X106.68Y-68.58
X106.68Y-71.12
X106.68Y-73.66
X106.68Y-76.2
X106.68Y-78.74
X106.68Y-81.28
X106.68Y-83.82
X106.68Y-86.36
X106.68Y-88.9
X106.68Y-91.44
X106.68Y-93.98
X106.68Y-96.52
X106.68Y-99.06
X106.68Y-101.6
X106.68Y-104.14
X109.22Y-50.8
X109.22Y-53.34
X109.22Y-55.88
X109.22Y-58.42
X109.22Y-60.96
X109.22Y-63.5
X109.22Y-66.04
X109.22Y-68.58
X109.22Y-71.12
X109.22Y-73.66
X109.22Y-76.2
X109.22Y-78.74
X109.22Y-81.28
X109.22Y-83.82
X109.22Y-86.36
X109.22Y-88.9
X109.22Y-91.44
X109.22Y-93.98
X109.22Y-96.52
X109.22Y-99.06
X109.22Y-101.6
X109.22Y-104.14
X112.0Y-127.46
X112.0Y-130.0
X116.8Y-73.4
X119.34Y-73.4
X120.0Y-127.46
X120.0Y-130.0
X128.0Y-127.46
X128.0Y-130.0
T3
X59.5Y-52.5
X59.5Y-56.0
X59.5Y-59.5
X59.5Y-63.0
X59.5Y-66.5
X59.5Y-70.0
X59.5Y-73.5
X59.5Y-77.0
X59.5Y-80.5
X59.5Y-84.0
X59.5Y-91.0
X59.5Y-94.5
X59.5Y-98.0
X59.5Y-101.5
X59.5Y-105.0
X59.5Y-108.5
X59.5Y-112.0
X59.5Y-115.5
X59.5Y-119.0
X59.5Y-122.5
X63.0Y-136.5
X66.5Y-136.5
X70.0Y-136.5
X73.5Y-136.5
X77.0Y-136.5
X80.5Y-136.5
X84.0Y-136.5
X87.5Y-136.5
X91.0Y-136.5
X94.5Y-136.5
X105.0Y-136.5
X108.5Y-136.5
X112.0Y-136.5
X115.5Y-136.5
X119.0Y-136.5
X122.5Y-136.5
X126.0Y-136.5
X129.5Y-136.5
X133.0Y-136.5
X136.5Y-136.5
X143.0Y-52.5
X143.0Y-56.0
X143.0Y-59.5
X143.0Y-63.0
X143.0Y-66.5
X143.0Y-70.0
X143.0Y-73.5
X143.0Y-77.0
X143.0Y-80.5
X143.0Y-84.0
X143.0Y-91.0
X143.0Y-94.5
X143.0Y-98.0
X143.0Y-101.5
X143.0Y-105.0
X143.0Y-108.5
X143.0Y-112.0
X143.0Y-115.5
X143.0Y-119.0
X143.0Y-122.5
T4
X54.0Y-47.0
X54.0Y-141.0
X148.0Y-47.0
X148.0Y-141.0
M30
